<svg display="none" xmlns="http://www.w3.org/2000/svg">

    <symbol>
        <svg id="mark" viewBox="0 0 18 23" xmlns="http://www.w3.org/2000/svg">
            <path d="M9 0.219727C4.275 0.219727 0 3.88062 0 9.54249C0 13.1579 2.75625 17.41 8.2575 22.3101C8.685 22.6853 9.32625 22.6853 9.75375 22.3101C15.2438 17.41 18 13.1579 18 9.54249C18 3.88062 13.725 0.219727 9 0.219727ZM9 11.589C7.7625 11.589 6.75 10.5657 6.75 9.31511C6.75 8.0645 7.7625 7.04126 9 7.04126C10.2375 7.04126 11.25 8.0645 11.25 9.31511C11.25 10.5657 10.2375 11.589 9 11.589Z"
            />
        </svg>
    </symbol>

    <symbol id="arrow-line-v2" viewBox="0 0 31 29" xmlns="http://www.w3.org/2000/svg">
        <path fill-rule="evenodd" clip-rule="evenodd"
              d="M0 14.321C0 14.8635 0.200834 15.3838 0.558327 15.7674C0.915817 16.151 1.40068 16.3665 1.90625 16.3665H23.9921L15.8066 25.1458C15.6294 25.336 15.4888 25.5618 15.3929 25.8102C15.297 26.0587 15.2476 26.3251 15.2476 26.594C15.2476 26.863 15.297 27.1293 15.3929 27.3778C15.4888 27.6263 15.6294 27.852 15.8066 28.0422C15.9839 28.2324 16.1943 28.3833 16.4258 28.4862C16.6574 28.5891 16.9056 28.6421 17.1563 28.6421C17.4069 28.6421 17.6551 28.5891 17.8867 28.4862C18.1182 28.3833 18.3286 28.2324 18.5059 28.0422L29.9434 15.7693C30.1209 15.5792 30.2618 15.3535 30.3579 15.105C30.454 14.8565 30.5034 14.5901 30.5034 14.321C30.5034 14.052 30.454 13.7856 30.3579 13.5371C30.2618 13.2886 30.1209 13.0628 29.9434 12.8728L18.5059 0.599869C18.1479 0.21578 17.6625 0 17.1563 0C16.65 0 16.1646 0.21578 15.8066 0.599869C15.4487 0.983958 15.2476 1.5049 15.2476 2.04808C15.2476 2.59126 15.4487 3.1122 15.8066 3.49629L23.9921 12.2756H1.90625C1.40068 12.2756 0.915817 12.4911 0.558327 12.8747C0.200834 13.2583 0 13.7785 0 14.321Z"/>
    </symbol>

    <symbol id="arrow" viewBox="0 0 12 7" fill="none" xmlns="http://www.w3.org/2000/svg">
        <path d="M1 1L6 6L11 1" stroke="#343434" stroke-linecap="round" stroke-linejoin="round"/>
    </symbol>

    <symbol id="arrow--transparent" viewBox="0 0 12 7" fill="none" xmlns="http://www.w3.org/2000/svg">
        <path d="M1 1L6 6L11 1" stroke-linecap="round" stroke-width="2" stroke-linejoin="round"/>
    </symbol>

    <symbol id="logo" viewBox="0 0 100 72" xmlns="http://www.w3.org/2000/svg">
        <path d="M14.6846 72C6.63601 72 0 64.6861 0 56.3028C0 47.747 6.89882 40.8816 14.9474 40.8816C23.0289 40.8816 29.8292 47.7815 29.8292 56.3373C29.8292 64.7551 23.3246 71.9655 15.2102 71.9655H14.6846V72ZM70.9264 10.5568C71.5177 11.9023 70.9921 13.4202 69.7109 14.0412C68.8568 14.4552 67.8712 14.3517 67.1485 13.7652L62.8778 16.9046L63.0749 47.3675C66.82 39.6397 77.2668 38.8462 82.7858 44.7456C85.184 47.2985 86.3995 50.4035 86.3995 54.0259V71.2755H84.3955V54.0259C84.3955 50.9554 83.3771 48.299 81.3075 46.091C77.1353 41.5716 70.5322 41.7786 66.3272 46.1255C64.159 48.368 63.0749 50.9899 63.0749 54.0259V71.2755H61.071L61.2352 26.7714L55.8476 22.7695C55.1248 23.356 54.1064 23.4595 53.2851 23.0455C52.0368 22.4245 51.4783 20.9066 52.0696 19.5611C52.661 18.2501 54.1064 17.6636 55.3548 18.2846C56.4717 18.8366 57.0631 20.1821 56.7017 21.4586L61.2681 24.805L61.3338 5.10589C60.3154 4.7609 59.5926 3.72592 59.5926 2.62195C59.5926 1.17298 60.7753 0 62.1222 0C63.4691 0 64.6189 1.20747 64.6189 2.62195C64.6189 3.76042 63.8962 4.7954 62.8778 5.14039L62.9106 14.9727L66.3601 12.4542C65.9658 11.2123 66.5572 9.86679 67.707 9.28031C68.8896 8.65932 70.3679 9.21131 70.9264 10.5568ZM100 33.9818C100 32.4983 98.883 31.3598 97.5033 31.3598C96.1235 31.3598 95.0066 32.5328 95.0066 33.9818C95.0066 35.4308 96.1235 36.6037 97.5033 36.6037C98.883 36.6037 100 35.4308 100 33.9818ZM27.8581 56.4753C27.8581 49.0925 22.0762 42.7446 15.0131 42.7446C7.95007 42.7446 2.03679 49.127 2.03679 56.5098C2.03679 63.9272 7.98292 70.137 15.046 70.137C22.1091 70.137 27.8581 63.8582 27.8581 56.4753ZM53.2851 44.4006C51.8397 43.2966 50.2628 42.7446 48.5874 42.7446C44.1524 42.7446 40.1774 46.8155 40.1774 51.5074V71.2755H38.1735V41.6406H40.1774V46.0565C41.8528 42.7101 45.5322 40.9161 49.0145 40.9161C50.9527 40.9161 52.8252 41.6061 54.5992 42.9861L53.2851 44.4006ZM98.4888 41.6751V71.241H96.4849V41.6751H98.4888Z"/>
    </symbol>

    <symbol id="tel" viewBox="0 0 22 23" xmlns="http://www.w3.org/2000/svg">
        <path d="M16.9062 22.5913C12.4242 22.5854 8.12739 20.7686 4.95812 17.5394C1.78886 14.3102 0.00580949 9.9321 0 5.36529C0 4.00064 0.532042 2.69188 1.47908 1.72692C2.42612 0.761962 3.71058 0.219854 5.0499 0.219854C5.33351 0.217653 5.61664 0.243879 5.89521 0.298154C6.16451 0.338759 6.42925 0.406197 6.68563 0.499498C6.86594 0.563961 7.02662 0.675263 7.15177 0.822399C7.27692 0.969535 7.3622 1.14741 7.3992 1.33843L8.90319 8.04987C8.94373 8.23204 8.93885 8.42166 8.88899 8.60142C8.83913 8.78118 8.74589 8.94535 8.61776 9.07896C8.47505 9.23556 8.46407 9.24674 7.11377 9.96263C8.1951 12.3797 10.0923 14.3208 12.4601 15.4325C13.1737 14.0454 13.1846 14.0342 13.3383 13.8888C13.4694 13.7583 13.6306 13.6633 13.807 13.6125C13.9834 13.5617 14.1695 13.5567 14.3483 13.598L20.9351 15.1304C21.1166 15.1733 21.2844 15.2626 21.4226 15.3898C21.5609 15.517 21.6652 15.6779 21.7255 15.8575C21.8182 16.123 21.888 16.3962 21.9341 16.6741C21.9783 16.9552 22.0003 17.2395 22 17.5242C21.9798 18.883 21.4328 20.1785 20.4784 21.1278C19.5241 22.0772 18.2399 22.6033 16.9062 22.5913Z"/>
    </symbol>

    <symbol id="header-tel" viewBox="0 0 36 36" fill="none" xmlns="http://www.w3.org/2000/svg">
        <rect width="36" height="36" rx="9" fill="#333333"/>
        <path d="M26.5 22.4375C25.0938 22.4375 23.7438 22.2125 22.4838 21.7963C22.09 21.6725 21.6512 21.7625 21.3362 22.0663L18.8613 24.5413C15.6775 22.9213 13.0675 20.3225 11.4475 17.1275L13.9225 14.6412C14.2375 14.3487 14.3275 13.91 14.2037 13.5163C13.7875 12.2563 13.5625 10.9062 13.5625 9.5C13.5625 8.88125 13.0563 8.375 12.4375 8.375H8.5C7.88125 8.375 7.375 8.88125 7.375 9.5C7.375 20.0638 15.9362 28.625 26.5 28.625C27.1188 28.625 27.625 28.1188 27.625 27.5V23.5625C27.625 22.9437 27.1188 22.4375 26.5 22.4375ZM25.375 18.5H27.625C27.625 12.9088 23.0912 8.375 17.5 8.375V10.625C21.8537 10.625 25.375 14.1463 25.375 18.5ZM20.875 18.5H23.125C23.125 15.395 20.605 12.875 17.5 12.875V15.125C19.3675 15.125 20.875 16.6325 20.875 18.5Z"
              fill="white"/>
    </symbol>


    <symbol id="line-arrow" viewBox="0 0 27 13" xmlns="http://www.w3.org/2000/svg">
        <path d="M0 6H24.8625L18.9993 0.75L19.7409 0L27 6.5L19.7409 13L18.9993 12.25L24.8625 7H0L0 6Z"/>
    </symbol>

    <symbol id="likes" viewBox="0 0 141 141" fill="none" xmlns="http://www.w3.org/2000/svg">
        <circle cx="70.5" cy="70.5" r="69.5" stroke="#D5D5D5" stroke-width="2"/>
        <g clip-path="url(#clip0)">
            <path d="M106.779 63.8413C106.779 61.9622 106.05 60.2339 104.728 58.9748C103.451 57.7591 101.745 57.0897 99.9245 57.0897L78.0365 57.0903C75.8177 54.6769 75.0772 51.148 76.2481 48.3297C78.0043 44.103 77.9055 40.6898 75.9179 36.9168C74.3677 33.9739 70.4557 31.6516 67.7123 32.0432C66.0593 32.2793 64.907 33.4183 64.5504 35.168C64.4331 35.7439 64.398 36.4226 64.3572 37.2084C64.2442 39.3891 64.0894 42.3758 62.1794 46.0348C61.0645 48.1709 60.6794 50.4457 60.3397 52.453C59.7147 56.1452 59.3429 58.3374 55.6634 58.7394V58.3731C55.6634 57.6287 55.06 57.0254 54.3157 57.0254H43.5684C42.8241 57.0254 42.2207 57.6287 42.2207 58.3731V98.0004C42.2207 98.7447 42.8241 99.3481 43.5684 99.3481H54.316C55.0603 99.3481 55.6637 98.7447 55.6637 98.0004V97.6223C58.1385 97.818 60.6375 98.508 63.2597 99.234C66.3959 100.102 69.6386 101 72.9229 101H88.0365C92.1711 101 95.5164 98.8208 96.9853 95.1702C97.8218 93.0911 97.8585 90.9466 97.1631 89.3485C98.188 88.6121 99.0412 87.5897 99.6622 86.3201C100.784 84.0276 100.896 81.4318 100.039 79.4329C101.507 78.2817 102.414 76.6268 102.827 75.0329C103.311 73.166 103.174 71.348 102.528 69.9594C105.015 68.9604 106.779 66.5772 106.779 63.8413ZM100.03 67.7629L93.2912 67.9094C92.5472 67.9256 91.957 68.5419 91.9732 69.2861C91.9893 70.0302 92.6063 70.6177 93.3498 70.6042L99.6517 70.4671C100.382 71.135 100.634 72.7513 100.218 74.3561C99.9818 75.2683 98.9395 78.2447 95.4591 78.2447C94.7148 78.2447 94.1114 78.8481 94.1114 79.5924C94.1114 80.3368 94.7148 80.9401 95.4591 80.9401C96.2461 80.9401 96.967 80.8381 97.6238 80.6539C98.0928 81.9159 97.969 83.648 97.2412 85.1353C96.8678 85.8988 96.1175 87.0312 94.7812 87.6178C94.7422 87.632 94.7035 87.6484 94.6658 87.6665C94.1544 87.8736 93.5604 88.0009 92.8732 88.0009C92.1288 88.0009 91.5255 88.6043 91.5255 89.3486C91.5255 90.093 92.1288 90.6963 92.8732 90.6963C93.5109 90.6963 94.1263 90.6221 94.7129 90.4775C95.0556 91.3211 95.0819 92.6799 94.4849 94.1638C93.9839 95.4088 92.353 98.3045 88.0368 98.3045H72.9229C70.0049 98.3045 67.0779 97.494 63.9792 96.6361C61.2728 95.8867 58.487 95.1168 55.6637 94.9195V78.2447C55.6637 77.5004 55.0603 76.897 54.316 76.897C53.5716 76.897 52.9683 77.5004 52.9683 78.2447V96.6525H44.9161V59.7206H52.9683V72.1214C52.9683 72.8658 53.5716 73.4691 54.316 73.4691C55.0603 73.4691 55.6637 72.8658 55.6637 72.1214V61.4442C61.6434 60.902 62.3603 56.6671 62.9975 52.9029C63.3189 51.0041 63.6513 49.0407 64.569 47.2821C66.7508 43.1022 66.9304 39.6394 67.0491 37.3479C67.0843 36.67 67.1146 36.0846 67.1917 35.7061C67.3593 34.8835 67.7452 34.7614 68.0936 34.7117C69.5767 34.4999 72.4343 36.0873 73.5333 38.1732C75.1491 41.2402 75.2124 43.7979 73.7591 47.2956C72.4724 50.3925 72.8843 54.1057 74.6865 57.0906H73.025C72.2808 57.0906 71.6772 57.6941 71.6772 58.4383C71.6772 59.1825 72.2808 59.786 73.025 59.786L99.9245 59.7852C101.05 59.7852 102.096 60.1907 102.869 60.9272C103.652 61.6725 104.083 62.7074 104.083 63.8414C104.084 65.9551 102.265 67.7143 100.03 67.7629Z"
                  fill="#343434"/>
        </g>
        <defs>
            <clipPath id="clip0">
                <rect width="69" height="69" fill="white" transform="translate(40 32)"/>
            </clipPath>
        </defs>
    </symbol>

    <symbol id="video" viewBox="0 0 141 141" fill="none" xmlns="http://www.w3.org/2000/svg">
        <circle cx="70.5" cy="70.5" r="69.5" stroke="#D5D5D5" stroke-width="2"/>
        <path d="M52.5781 52.9219V41.2031C52.5781 39.9105 51.527 38.8594 50.2344 38.8594H47.8906C46.598 38.8594 45.5469 39.9105 45.5469 41.2031V52.9219C45.5469 54.2145 46.598 55.2656 47.8906 55.2656H50.2344C51.527 55.2656 52.5781 54.2145 52.5781 52.9219ZM47.8906 52.9219V41.2031H50.2344L50.2355 52.9219H47.8906Z"
              fill="#343434"/>
        <path d="M101.797 90.4219C99.2117 90.4219 97.1094 92.5242 97.1094 95.1094V102.141C97.1094 103.433 96.0582 104.484 94.7656 104.484C93.473 104.484 92.4219 103.433 92.4219 102.141V90.3527C95.0586 90.0129 97.1094 87.7781 97.1094 85.05C97.1094 84.6352 97.0613 84.2203 96.9664 83.8195L93.732 70.0758C92.9422 66.7184 92.525 63.2754 92.4512 59.8266C95.1078 59.2699 97.1094 56.9121 97.1094 54.0938V47.3672C97.1094 44.5992 95.1418 42.1863 92.4312 41.6285L56.798 34.2926C56.4113 34.2129 56.0129 34.1719 55.6156 34.1719H51.4062H49.0625H46.7188C43.4879 34.1719 40.8594 36.8004 40.8594 40.0312V54.0938C40.8594 57.3246 43.4879 59.9531 46.7188 59.9531H49.0625H51.4062H54.9219V67.5539C53.5332 68.3168 52.5781 69.777 52.5781 71.4715C52.5781 72.6691 53.0445 73.7965 53.893 74.6437L54.2949 75.0457C54.6992 75.45 54.9219 75.9879 54.9219 76.5598V90.6141C48.4977 90.975 36.1719 92.2008 36.1719 96.2812V99.7969C36.1719 104.629 49.5359 106.828 61.9531 106.828C74.3703 106.828 87.7344 104.629 87.7344 99.7969V96.2812C87.7344 92.2008 75.4086 90.975 68.9844 90.6141V75.157C70.3988 74.0859 71.3281 72.4055 71.3281 70.5C71.3281 67.6711 69.3113 65.3039 66.6406 64.759V59.9531H75.7578L73.5184 71.148L80.7418 74.7609L81.7215 81.2895L79.5453 81.7254C77.5004 82.1332 76.0156 83.9437 76.0156 86.0297C76.0156 88.452 77.9855 90.4219 80.4078 90.4219H90.0781V102.141C90.0781 104.726 92.1805 106.828 94.7656 106.828C97.3508 106.828 99.4531 104.726 99.4531 102.141V95.1094C99.4531 93.8168 100.504 92.7656 101.797 92.7656H107.656C108.303 92.7656 108.828 92.241 108.828 91.5938C108.828 90.9465 108.303 90.4219 107.656 90.4219H101.797ZM84.05 81.0047L80.8918 59.9531H90.1121C90.1813 62.9848 90.5176 66.007 91.1164 68.9801C89.0891 69.8754 86.5625 71.8852 86.5625 76.3594C86.5625 79.5762 86.5543 80.7832 84.05 81.0047ZM94.7656 47.3672V54.0938C94.7656 56.032 93.1883 57.6094 91.25 57.6094H76.0156V52.8434C79.3859 52.473 81.2844 50.5488 83.1137 48.6668C85.0918 46.6313 87.1484 44.5336 91.4199 43.8129L91.959 43.9242C93.5855 44.2582 94.7656 45.7066 94.7656 47.3672ZM74.8438 50.5781H71.3281C66.6875 50.5781 63.0312 45.3937 62.1547 37.7883L86.743 42.8508C84.4051 44.0004 82.85 45.5766 81.4332 47.0344C79.5078 49.0137 77.9891 50.5781 74.8438 50.5781ZM59.7605 37.2949C60.609 46.5375 65.2812 52.9219 71.3281 52.9219H73.6719V57.6094H56.0633C56.8074 56.6273 57.2656 55.418 57.2656 54.0938V40.0312C57.2656 38.7305 56.825 37.5387 56.1043 36.5648C56.177 36.5754 56.252 36.5719 56.3246 36.5871L59.7605 37.2949ZM49.0625 57.6094H46.7188C44.7805 57.6094 43.2031 56.032 43.2031 54.0938V40.0312C43.2031 38.093 44.7805 36.5156 46.7188 36.5156H49.0625H51.4062C53.3445 36.5156 54.9219 38.093 54.9219 40.0312V54.0938C54.9219 56.032 53.3445 57.6094 51.4062 57.6094H49.0625ZM61.9531 104.484C46.7879 104.484 38.5156 101.387 38.5156 99.7969V99.0293C44.4594 102.032 59.8309 102.141 61.9531 102.141C64.0754 102.141 79.4469 102.032 85.3906 99.0293V99.7969C85.3906 101.387 77.1184 104.484 61.9531 104.484ZM68.9844 97.4531V92.966C80.0387 93.5941 84.7602 95.4305 85.3602 96.2824C84.4941 97.5832 76.2055 99.7969 61.9531 99.7969C47.7008 99.7969 39.4121 97.5832 38.5461 96.2824C39.1461 95.4293 43.8676 93.5941 54.9219 92.966V97.4531H57.2656V76.5598C57.2656 75.3621 56.7992 74.2348 55.9508 73.3875L55.5488 72.9855C55.1445 72.5812 54.9219 72.0434 54.9219 71.4715C54.9219 70.2891 55.8828 69.3281 57.0652 69.3281H59.7277C59.6504 69.7066 59.6094 70.0992 59.6094 70.5C59.6094 73.7309 62.2379 76.3594 65.4688 76.3594C65.8695 76.3594 66.2621 76.3184 66.6406 76.241V97.4531H68.9844ZM68.9844 70.5C68.9844 72.4383 67.407 74.0156 65.4688 74.0156C63.5305 74.0156 61.9531 72.4383 61.9531 70.5C61.9531 68.5617 63.5305 66.9844 65.4688 66.9844C67.407 66.9844 68.9844 68.5617 68.9844 70.5ZM64.2969 64.759C62.8754 65.0484 61.6566 65.8676 60.8117 66.9844H57.2656V59.9531H64.2969V64.759ZM76.168 69.852L78.1484 59.9531H78.5223L80.3188 71.9273L76.168 69.852ZM78.3594 86.0297C78.3594 85.057 79.052 84.2121 80.0059 84.0211L83.1922 83.3836C88.898 83.3227 88.9062 79.7859 88.9062 76.3594C88.9062 73.984 89.8285 72.3105 91.6238 71.3484L94.6859 84.3574C94.7387 84.5836 94.7656 84.8156 94.7656 85.05C94.7656 86.7199 93.4074 88.0781 91.7375 88.0781H80.4078C79.2781 88.0781 78.3594 87.1594 78.3594 86.0297Z"
              fill="#343434"/>
    </symbol>

    <symbol id="prof" viewBox="0 0 141 141" fill="none" xmlns="http://www.w3.org/2000/svg">
        <circle cx="70.5" cy="70.5" r="69.5" stroke="#D5D5D5" stroke-width="2"/>
        <g clip-path="url(#clip0)">
            <path d="M41.4557 78.2845C41.6644 78.0539 41.7658 77.7459 41.7349 77.4363L40.5934 66.0213C41.2969 65.3894 41.7403 64.4734 41.7403 63.4555C41.7403 61.9385 40.7555 60.6481 39.3919 60.1875V51.09L47.758 54.9742V69.3265C47.758 71.2365 50.1813 72.675 55.1663 73.7246C59.4525 74.6269 65.1356 75.124 71.1684 75.124C77.2012 75.124 82.8843 74.6271 87.1706 73.7246C92.1556 72.675 94.5788 71.2363 94.5788 69.3265V54.9742L104.509 50.3636C104.898 50.1832 105.146 49.7937 105.146 49.3651C105.146 48.9366 104.898 48.5472 104.509 48.3666L96.4904 44.6436C95.9388 44.3874 95.2843 44.627 95.0284 45.1786C94.7724 45.73 95.0119 46.3845 95.5634 46.6406L101.432 49.3651L71.1684 63.4159L43.276 50.4661H69.9941C70.602 50.4661 71.0949 49.9732 71.0949 49.3653C71.0949 48.7573 70.602 48.2645 69.9941 48.2645H43.276L71.1683 35.3145L90.666 44.367C91.2174 44.623 91.8719 44.3835 92.128 43.8321C92.3839 43.2806 92.1444 42.6262 91.593 42.37L71.6318 33.1023C71.3379 32.9658 70.9987 32.966 70.7048 33.1023L37.8275 48.3668C37.4441 48.5442 37.1902 48.943 37.1902 49.3653V60.1875C35.8266 60.6481 34.8418 61.9385 34.8418 63.4555C34.8418 64.4734 35.2852 65.3893 35.9887 66.0213L34.8472 77.4363C34.7834 78.0748 35.3011 78.6466 35.9426 78.6466H40.6394C40.9505 78.6466 41.247 78.515 41.4557 78.2845ZM71.1684 65.7305C71.3266 65.7305 71.485 65.6965 71.6319 65.6282L92.3772 55.9965V69.3159C92.2811 69.6332 90.9767 70.7214 86.3066 71.6545C82.2137 72.4721 76.8375 72.9224 71.1684 72.9224C65.4993 72.9224 60.1231 72.4721 56.0302 71.6545C51.36 70.7214 50.0558 69.6332 49.9596 69.3159V55.9965L70.7049 65.6282C70.8518 65.6963 71.01 65.7305 71.1684 65.7305ZM38.2911 62.208C38.9791 62.208 39.5387 62.7676 39.5387 63.4555C39.5387 64.1435 38.9791 64.7031 38.2911 64.7031C37.6032 64.7031 37.0435 64.1435 37.0435 63.4555C37.0435 62.7676 37.6032 62.208 38.2911 62.208ZM37.1591 76.445L38.1135 66.9002C38.1724 66.9031 38.2315 66.9047 38.291 66.9047C38.3504 66.9047 38.4097 66.9033 38.4684 66.9002L39.423 76.445H37.1591Z"
                  fill="#343434"/>
            <path d="M49.9596 90.462C49.9596 87.9127 47.8856 85.8386 45.3363 85.8386C42.7869 85.8386 40.7129 87.9127 40.7129 90.462C40.7129 93.0113 42.7869 95.0854 45.3363 95.0854C47.8856 95.0854 49.9596 93.0113 49.9596 90.462ZM42.9145 90.462C42.9145 89.1266 44.0009 88.0402 45.3363 88.0402C46.6716 88.0402 47.758 89.1266 47.758 90.462C47.758 91.7973 46.6716 92.8837 45.3363 92.8837C44.0009 92.8837 42.9145 91.7973 42.9145 90.462Z"
                  fill="#343434"/>
            <path d="M105.057 89.3612H101.557C101.01 84.7393 97.0703 81.1418 92.3038 81.1418C92.2432 81.1418 92.1827 81.1468 92.123 81.1568C92.0584 81.1675 85.7084 82.2196 78.7981 82.9039C77.2655 81.7968 75.3856 81.1418 73.3546 81.1418C70.999 81.1418 68.8463 82.022 67.2037 83.4684C64.0744 83.3885 60.239 83.0891 55.7906 82.5763C55.1852 82.5065 54.6407 82.9398 54.5709 83.5438C54.5014 84.1478 54.9345 84.6938 55.5385 84.7635C59.2604 85.1925 62.5656 85.4743 65.403 85.6058C64.7173 86.7244 64.2628 87.9984 64.1017 89.3612H58.2523C57.6444 89.3612 57.1515 89.854 57.1515 90.462C57.1515 92.8971 55.3303 94.6748 52.9369 95.8458C54.018 94.324 54.6564 92.4667 54.6564 90.462C54.6564 85.3228 50.4754 81.1418 45.3362 81.1418C40.1971 81.1418 36.0161 85.3228 36.0161 90.462C36.0161 95.6011 40.1971 99.7821 45.3362 99.7821C53.1831 99.7821 57.4668 99.0561 61.2462 98.4155C63.2382 98.0779 65.1269 97.7578 67.348 97.5806C67.7773 97.9435 68.2401 98.2674 68.7303 98.5489V106.901C68.7303 107.639 69.4776 108.179 70.1793 107.945L73.3537 106.887L76.5281 107.945C77.2301 108.179 77.9771 107.639 77.9771 106.901V98.5498C78.2678 98.3829 78.5489 98.2013 78.819 98.0053C80.3212 98.2066 81.7929 98.4394 83.2185 98.6668C86.636 99.2117 89.8712 99.7276 93.082 99.7276C93.2192 99.7276 93.3568 99.7268 93.4938 99.7247C98.601 99.6512 106.158 96.6563 106.158 90.462C106.158 89.854 105.665 89.3612 105.057 89.3612ZM80.4728 90.4524C80.4728 90.4557 80.4724 90.4587 80.4724 90.4618C80.4724 90.4649 80.4728 90.4681 80.4728 90.4712C80.4677 94.3923 77.2767 97.5805 73.3546 97.5805C69.4294 97.5805 66.2361 94.3871 66.2361 90.462C66.2361 86.5368 69.4294 83.3434 73.3546 83.3434C77.2767 83.3434 80.4677 86.5317 80.4728 90.4524ZM38.2179 90.462C38.2179 86.5368 41.4112 83.3434 45.3364 83.3434C49.2616 83.3434 52.4549 86.5368 52.4549 90.462C52.4549 94.3871 49.2616 97.5805 45.3364 97.5805C41.4112 97.5805 38.2179 94.3871 38.2179 90.462ZM60.8784 96.2448C59.2006 96.5291 57.42 96.8306 55.2593 97.075C55.4648 96.9457 55.6643 96.8136 55.8543 96.6774C57.7907 95.2899 58.9548 93.5382 59.2675 91.5626H64.1017C64.2739 93.0185 64.7824 94.372 65.5481 95.5442C63.9125 95.7311 62.4254 95.9827 60.8784 96.2448ZM75.7756 105.373L73.702 104.682C73.4758 104.607 73.2319 104.607 73.0057 104.682L70.9322 105.373V99.4608C71.7051 99.6691 72.5168 99.7821 73.3546 99.7821C74.1919 99.7821 75.0032 99.6694 75.7756 99.4612V105.373ZM93.4626 97.5234C90.3093 97.5676 87.0323 97.0455 83.5653 96.4926C82.6615 96.3485 81.7382 96.2024 80.7991 96.0623C81.7669 94.7789 82.4092 93.238 82.6073 91.5628H88.7685C89.3765 91.5628 89.8693 91.0699 89.8693 90.462C89.8693 89.854 89.3765 89.3612 88.7685 89.3612H82.6073C82.4114 87.705 81.7817 86.18 80.8321 84.9054C86.6244 84.2738 91.6473 83.4654 92.3904 83.3439C95.9024 83.3862 98.8101 85.9846 99.3366 89.3612H94.1097C93.5016 89.3612 93.0089 89.854 93.0089 90.462C93.0089 91.0699 93.5016 91.5628 94.1097 91.5628H103.83C102.937 95.3746 97.4896 97.4653 93.4626 97.5234Z"
                  fill="#343434"/>
            <path d="M73.3543 95.0854C75.9036 95.0854 77.9777 93.0113 77.9777 90.462C77.9777 87.9127 75.9036 85.8386 73.3543 85.8386C70.805 85.8386 68.731 87.9127 68.731 90.462C68.731 93.0113 70.805 95.0854 73.3543 95.0854ZM73.3543 88.0402C74.6897 88.0402 75.7761 89.1266 75.7761 90.462C75.7761 91.7973 74.6897 92.8837 73.3543 92.8837C72.019 92.8837 70.9326 91.7973 70.9326 90.462C70.9326 89.1266 72.0191 88.0402 73.3543 88.0402Z"
                  fill="#343434"/>
        </g>
        <defs>
            <clipPath id="clip0">
                <rect width="75" height="75" fill="white" transform="translate(33 33)"/>
            </clipPath>
        </defs>
    </symbol>

    <symbol id="license" viewBox="0 0 141 141" fill="none" xmlns="http://www.w3.org/2000/svg">
        <circle cx="70.5" cy="70.5" r="69.5" stroke="#D5D5D5" stroke-width="2"/>
        <g clip-path="url(#clip0)">
            <path d="M79.8152 79.4706C80.0486 79.5801 80.2955 79.6338 80.54 79.6338C80.9269 79.6338 81.3082 79.4994 81.6217 79.2385L83.147 77.9694L84.6726 79.2385C85.1843 79.6642 85.8766 79.753 86.479 79.4705C87.0816 79.1879 87.456 78.5989 87.456 77.9334V70.7537C88.7642 69.574 89.588 67.8672 89.588 65.9711C89.588 62.4195 86.6987 59.5302 83.147 59.5302C79.5954 59.5302 76.7061 62.4195 76.7061 65.9711C76.7061 67.8672 77.5299 69.5741 78.8381 70.7537V77.9334C78.8383 78.599 79.2126 79.188 79.8152 79.4706ZM85.261 76.8728L84.2328 76.0174C83.6037 75.494 82.6905 75.4942 82.0612 76.0174L81.0331 76.8728V72.0539C81.6957 72.2848 82.4066 72.412 83.147 72.412C83.8875 72.412 84.5982 72.2848 85.261 72.0539V76.8728ZM83.147 61.7253C85.4884 61.7253 87.393 63.63 87.393 65.9713C87.393 68.3124 85.4884 70.2171 83.147 70.2171C80.8057 70.2171 78.901 68.3124 78.901 65.9713C78.9012 63.63 80.8059 61.7253 83.147 61.7253Z"
                  fill="#343434"/>
            <path d="M96.1124 33H44.8873C42.6752 33 40.8755 34.7997 40.8755 37.012V103.988C40.8755 106.2 42.6752 108 44.8873 108H96.1124C98.3246 108 100.124 106.2 100.124 103.988V37.012C100.124 34.7997 98.3246 33 96.1124 33V33ZM97.9293 103.988C97.9293 104.99 97.1142 105.805 96.1122 105.805H44.8873C43.8856 105.805 43.0705 104.99 43.0705 103.988V37.012C43.0705 36.0101 43.8856 35.195 44.8873 35.195H96.1124C97.1143 35.195 97.9294 36.0101 97.9294 37.012V103.988H97.9293Z"
                  fill="#343434"/>
            <path d="M92.8621 38.4111H48.1374C47.1694 38.4111 46.3818 39.1985 46.3818 40.1665V81.5601C46.3818 82.1662 46.8732 82.6576 47.4793 82.6576C48.0854 82.6576 48.5768 82.1662 48.5768 81.5601V40.6061H92.4225V100.394H48.5768V86.7277C48.5768 86.1216 48.0854 85.6302 47.4793 85.6302C46.8732 85.6302 46.3818 86.1216 46.3818 86.7277V100.834C46.3818 101.802 47.1694 102.589 48.1374 102.589H92.8621C93.83 102.589 94.6176 101.802 94.6176 100.834V40.1665C94.6176 39.1985 93.83 38.4111 92.8621 38.4111Z"
                  fill="#343434"/>
            <path d="M89.5881 47.3838C89.5881 46.139 88.5753 45.1262 87.3305 45.1262H53.6697C52.4249 45.1262 51.4121 46.139 51.4121 47.3838V51.5687C51.4121 52.8135 52.4249 53.8263 53.6697 53.8263H77.2164C77.8225 53.8263 78.3139 53.3349 78.3139 52.7288C78.3139 52.1227 77.8225 51.6313 77.2164 51.6313H53.6697C53.6352 51.6313 53.6071 51.6032 53.6071 51.5687V47.3838C53.6071 47.3493 53.6352 47.3212 53.6697 47.3212H87.3305C87.365 47.3212 87.3931 47.3493 87.3931 47.3838V51.5687C87.3931 51.6032 87.365 51.6313 87.3305 51.6313H82.253C81.6469 51.6313 81.1555 52.1227 81.1555 52.7288C81.1555 53.3349 81.6469 53.8263 82.253 53.8263H87.3305C88.5753 53.8263 89.5881 52.8135 89.5881 51.5687V47.3838Z"
                  fill="#343434"/>
            <path d="M57.9705 91.2781C57.0763 93.2677 57.6751 94.2376 58.3349 94.701C59.8803 95.7861 61.792 94.0727 62.7108 93.249L62.7206 93.2402C63.0167 93.9151 63.5146 94.4514 64.1566 94.7767C65.7579 95.5882 67.0979 94.7834 68.0689 93.7621C68.298 94.1817 68.5867 94.5485 68.9298 94.85C69.7954 95.6102 71.0405 95.874 72.3524 95.874C73.5294 95.874 74.7603 95.6615 75.8176 95.4047C76.4065 95.2616 76.7681 94.6682 76.625 94.0792C76.4819 93.4903 75.8885 93.1284 75.2995 93.2718C72.9604 93.8398 71.0748 93.8126 70.3784 93.201C69.7749 92.6708 69.6571 91.7493 69.6406 91.2473C69.6246 90.7648 69.2954 90.3494 68.8291 90.2237C68.3632 90.098 67.8695 90.2917 67.6134 90.701C66.5067 92.4686 65.7468 93.1221 65.1487 92.8189C64.9158 92.7008 64.7548 92.4888 64.6702 92.1885C64.5415 91.731 64.6228 91.1519 64.8726 90.7471C65.191 90.2314 65.0311 89.5552 64.5154 89.2368C63.9997 88.9184 63.3234 89.0783 63.0051 89.5939C62.5294 90.3642 61.9181 91.0145 61.2459 91.6146C60.476 92.3047 60.017 92.6134 59.7492 92.7486C59.8584 92.3366 60.2282 91.5374 61.2796 89.9923C62.3756 88.383 63.4905 86.7721 64.6584 85.2001L64.6806 85.1701C65.0248 84.7071 64.9519 84.0569 64.5138 83.6816C64.0757 83.3065 63.4219 83.3343 63.0174 83.7457C60.5198 86.2856 56.4715 87.4862 52.7046 86.8053C52.1082 86.6973 51.5372 87.0936 51.4293 87.6901C51.3215 88.2865 51.7176 88.8575 52.314 88.9654C54.8414 89.4224 57.4213 89.1854 59.7365 88.35C59.7232 88.3708 59.5601 88.6175 59.4646 88.758C59.0666 89.3425 58.4009 90.3207 57.9705 91.2781Z"
                  fill="#343434"/>
            <path d="M67.1312 59.5303C66.5251 59.5303 66.0337 60.0217 66.0337 60.6278C66.0337 61.2339 66.5251 61.7253 67.1312 61.7253H70.4999C71.106 61.7253 71.5974 61.2339 71.5974 60.6278C71.5974 60.0217 71.106 59.5303 70.4999 59.5303H67.1312Z"
                  fill="#343434"/>
            <path d="M52.5096 61.7253H61.6693C62.2754 61.7253 62.7668 61.2339 62.7668 60.6278C62.7668 60.0217 62.2754 59.5303 61.6693 59.5303H52.5096C51.9035 59.5303 51.4121 60.0217 51.4121 60.6278C51.4121 61.2339 51.9035 61.7253 52.5096 61.7253Z"
                  fill="#343434"/>
            <path d="M52.5096 66.795H70.5C71.1061 66.795 71.5975 66.3036 71.5975 65.6975C71.5975 65.0914 71.1061 64.6 70.5 64.6H52.5096C51.9035 64.6 51.4121 65.0914 51.4121 65.6975C51.4121 66.3036 51.9035 66.795 52.5096 66.795Z"
                  fill="#343434"/>
            <path d="M71.5972 70.7672C71.5972 70.1611 71.1058 69.6697 70.4997 69.6697H61.6688C61.0627 69.6697 60.5713 70.1611 60.5713 70.7672C60.5713 71.3733 61.0627 71.8647 61.6688 71.8647H70.4997C71.1058 71.8647 71.5972 71.3733 71.5972 70.7672Z"
                  fill="#343434"/>
            <path d="M52.5096 71.8647H56.3396C56.9457 71.8647 57.4371 71.3733 57.4371 70.7672C57.4371 70.1611 56.9457 69.6697 56.3396 69.6697H52.5096C51.9035 69.6697 51.4121 70.1611 51.4121 70.7672C51.4121 71.3733 51.9035 71.8647 52.5096 71.8647Z"
                  fill="#343434"/>
            <path d="M52.5096 76.9344H66.2145C66.8206 76.9344 67.312 76.443 67.312 75.8369C67.312 75.2308 66.8206 74.7394 66.2145 74.7394H52.5096C51.9035 74.7394 51.4121 75.2308 51.4121 75.8369C51.4121 76.443 51.9035 76.9344 52.5096 76.9344Z"
                  fill="#343434"/>
        </g>
        <defs>
            <clipPath id="clip0">
                <rect width="75" height="75" fill="white" transform="translate(33 33)"/>
            </clipPath>
        </defs>
    </symbol>

    <symbol id="adress" viewBox="0 0 30 31" fill="none" xmlns="http://www.w3.org/2000/svg">
        <path d="M15.0001 2.41211C20.7698 2.41211 25.4466 7.08889 25.4466 12.8585C25.4466 17.2728 22.3448 22.0835 16.2216 27.3421C15.8811 27.6346 15.447 27.7952 14.9981 27.7948C14.5493 27.7944 14.1155 27.633 13.7755 27.34L13.3705 26.9885C7.51835 21.8671 4.55371 17.1743 4.55371 12.8585C4.55371 7.08889 9.2305 2.41211 15.0001 2.41211ZM15.0001 4.01925C12.6558 4.01925 10.4075 4.95053 8.74982 6.60822C7.09213 8.26591 6.16085 10.5142 6.16085 12.8585C6.16085 16.6107 8.89085 20.9339 14.4259 25.7768L14.8255 26.1228C14.8741 26.1646 14.9361 26.1876 15.0001 26.1876C15.0642 26.1876 15.1262 26.1646 15.1748 26.1228C20.9776 21.1385 23.8394 16.6996 23.8394 12.8585C23.8394 11.6977 23.6108 10.5483 23.1666 9.47589C22.7224 8.40346 22.0713 7.42902 21.2505 6.60822C20.4297 5.78742 19.4552 5.13632 18.3828 4.6921C17.3104 4.24789 16.1609 4.01925 15.0001 4.01925ZM15.0001 8.84068C16.0657 8.84068 17.0877 9.26399 17.8412 10.0175C18.5947 10.771 19.018 11.7929 19.018 12.8585C19.018 13.9241 18.5947 14.9461 17.8412 15.6996C17.0877 16.4531 16.0657 16.8764 15.0001 16.8764C13.9345 16.8764 12.9126 16.4531 12.1591 15.6996C11.4056 14.9461 10.9823 13.9241 10.9823 12.8585C10.9823 11.7929 11.4056 10.771 12.1591 10.0175C12.9126 9.26399 13.9345 8.84068 15.0001 8.84068ZM15.0001 10.4478C14.3608 10.4478 13.7476 10.7018 13.2955 11.1539C12.8434 11.606 12.5894 12.2192 12.5894 12.8585C12.5894 13.4979 12.8434 14.1111 13.2955 14.5632C13.7476 15.0153 14.3608 15.2693 15.0001 15.2693C15.6395 15.2693 16.2527 15.0153 16.7048 14.5632C17.1569 14.1111 17.4109 13.4979 17.4109 12.8585C17.4109 12.2192 17.1569 11.606 16.7048 11.1539C16.2527 10.7018 15.6395 10.4478 15.0001 10.4478Z"
              fill="#343434"/>
    </symbol>

    <symbol id="clock" viewBox="0 0 29 30" fill="none" xmlns="http://www.w3.org/2000/svg">
        <path d="M14.5 27.189C11.9907 27.189 9.53766 26.4449 7.45121 25.0507C5.36476 23.6566 3.73857 21.6751 2.77828 19.3568C1.818 17.0384 1.56674 14.4874 2.05629 12.0263C2.54584 9.56513 3.75421 7.30443 5.52859 5.53005C7.30297 3.75567 9.56366 2.54731 12.0248 2.05776C14.4859 1.56821 17.037 1.81946 19.3553 2.77975C21.6736 3.74004 23.6552 5.36622 25.0493 7.45267C26.4434 9.53912 27.1875 11.9921 27.1875 14.5015C27.1875 17.8664 25.8508 21.0935 23.4714 23.4729C21.0921 25.8523 17.8649 27.189 14.5 27.189ZM14.5 3.62647C12.3491 3.62647 10.2466 4.26428 8.45818 5.45924C6.6698 6.6542 5.27592 8.35264 4.45282 10.3398C3.62971 12.3269 3.41435 14.5135 3.83397 16.6231C4.25358 18.7326 5.28932 20.6704 6.81022 22.1913C8.33112 23.7122 10.2689 24.7479 12.3784 25.1675C14.4879 25.5871 16.6745 25.3718 18.6617 24.5487C20.6488 23.7256 22.3473 22.3317 23.5422 20.5433C24.7372 18.7549 25.375 16.6523 25.375 14.5015C25.375 11.6172 24.2292 8.85114 22.1898 6.81168C20.1503 4.77223 17.3842 3.62647 14.5 3.62647Z"
              fill="#343434"/>
        <path d="M18.6597 19.939L13.5938 14.873V6.34521H15.4062V14.1208L19.9375 18.6612L18.6597 19.939Z"
              fill="#343434"/>
    </symbol>

    <symbol id="tel-2" viewBox="0 0 30 31" xmlns="http://www.w3.org/2000/svg">
        <path d="M23.1082 29.5349C22.8279 29.5341 22.5485 29.5034 22.2748 29.4432C17.0637 28.3652 12.2628 25.8377 8.42482 22.1516C4.66871 18.4573 2.06365 13.7537 0.924821 8.60989C0.790538 7.96881 0.823497 7.30397 1.02052 6.67932C1.21755 6.05467 1.57202 5.49123 2.04982 5.04322L5.38315 1.83489C5.55341 1.67388 5.7557 1.55058 5.97683 1.47304C6.19797 1.3955 6.43296 1.36546 6.66649 1.38489C6.90862 1.41015 7.14229 1.48815 7.35104 1.6134C7.5598 1.73866 7.73858 1.90812 7.87482 2.10989L12.0415 8.26822C12.1977 8.50717 12.2732 8.78997 12.2567 9.075C12.2402 9.36003 12.1326 9.63223 11.9498 9.85155L9.85815 12.3516C10.6912 14.1953 11.8709 15.8616 13.3332 17.2599C14.7859 18.7089 16.503 19.8659 18.3915 20.6682L20.9832 18.6099C21.2008 18.4379 21.4657 18.3362 21.7426 18.3183C22.0194 18.3004 22.2952 18.3673 22.5332 18.5099L28.8248 22.5766C29.0407 22.7055 29.2247 22.8816 29.3629 23.0917C29.501 23.3018 29.5899 23.5404 29.6228 23.7897C29.6556 24.039 29.6317 24.2925 29.5526 24.5313C29.4736 24.77 29.3416 24.9878 29.1665 25.1682L25.9165 28.3849C25.5473 28.7523 25.1091 29.043 24.6272 29.2403C24.1452 29.4377 23.629 29.5378 23.1082 29.5349ZM6.53315 3.03489L3.19982 6.24322C2.93103 6.49368 2.73206 6.80979 2.62248 7.16046C2.51289 7.51113 2.49647 7.88428 2.57482 8.24322C3.63375 13.07 6.06792 17.4868 9.58315 20.9599C13.195 24.4278 17.7128 26.8052 22.6165 27.8182C22.9877 27.8958 23.3723 27.8801 23.7359 27.7725C24.0995 27.6648 24.4307 27.4687 24.6998 27.2016L27.9498 23.9849L21.8748 20.0599L19.0915 22.2766C18.9849 22.3609 18.8594 22.4179 18.7257 22.4426C18.5921 22.4673 18.4545 22.4589 18.3248 22.4182C16.0137 21.5667 13.9194 20.215 12.1915 18.4599C10.4043 16.7909 9.01701 14.7399 8.13315 12.4599C8.09576 12.3219 8.09452 12.1765 8.12955 12.0379C8.16457 11.8992 8.23469 11.7719 8.33315 11.6682L10.5832 8.97655L6.53315 3.03489Z"/>
    </symbol>

    <symbol id="close" viewBox="0 0 25 25" xmlns="http://www.w3.org/2000/svg">
        <g opacity="0.3">
            <rect x="1.41406" width="32" height="2" rx="1" transform="rotate(45 1.41406 0)"/>
            <rect x="0.414062" y="23" width="32" height="2" rx="1" transform="rotate(-45 0.414062 23)"/>
        </g>
    </symbol>

    <symbol id="no-check" viewBox="0 0 26 26" fill="none" xmlns="http://www.w3.org/2000/svg">
        <rect x="3" width="32" height="3.75" rx="1.875" transform="rotate(45 3 0)" fill="#790C3B"/>
        <rect y="23" width="32" height="3.57102" rx="1.78551" transform="rotate(-45 0 23)" fill="#790C3B"/>
    </symbol>

    <symbol id="men" viewBox="0 0 128 128" fill="none" xmlns="http://www.w3.org/2000/svg">
        <path d="M80.2665 45.5307L99.1198 26.6667H74.6665V16H117.333V58.6667H106.666V34.208L87.8025 53.072C93.9564 61.1388 96.8148 71.2427 95.7991 81.3378C94.7833 91.4329 89.9692 100.765 82.3316 107.444C74.6939 114.123 64.8036 117.65 54.6632 117.311C44.5227 116.972 34.8901 112.792 27.7158 105.617C20.5414 98.4431 16.3615 88.8104 16.0224 78.67C15.6833 68.5296 19.2103 58.6392 25.8894 51.0016C32.5684 43.364 41.9003 38.5499 51.9954 37.5341C62.0905 36.5183 72.1944 39.3768 80.2612 45.5307H80.2665ZM55.9998 106.667C63.7795 106.667 71.2406 103.576 76.7416 98.0751C82.2427 92.5741 85.3332 85.113 85.3332 77.3333C85.3332 69.5536 82.2427 62.0926 76.7416 56.5915C71.2406 51.0905 63.7795 48 55.9998 48C48.2201 48 40.7591 51.0905 35.258 56.5915C29.757 62.0926 26.6665 69.5536 26.6665 77.3333C26.6665 85.113 29.757 92.5741 35.258 98.0751C40.7591 103.576 48.2201 106.667 55.9998 106.667Z"
              fill="#343434"/>
    </symbol>

    <symbol id="women" viewBox="0 0 120 120" fill="none" xmlns="http://www.w3.org/2000/svg">
        <path d="M55.0004 79.6699C45.58 78.3928 36.9962 73.5859 30.9846 66.2215C24.9731 58.857 21.9825 49.4844 22.6177 39.9991C23.2528 30.5138 27.4663 21.6236 34.406 15.1264C41.3457 8.62913 50.4939 5.00965 60.0004 4.9999C69.5185 4.99072 78.684 8.60126 85.6387 15.0995C92.5934 21.5978 96.8168 30.4976 97.4528 39.9944C98.0887 49.4913 95.0895 58.8747 89.0633 66.2422C83.0371 73.6097 74.4348 78.41 65.0004 79.6699V89.9999H90.0004V99.9999H65.0004V120H55.0004V99.9999H30.0004V89.9999H55.0004V79.6699ZM60.0004 69.9999C67.2938 69.9999 74.2886 67.1026 79.4458 61.9453C84.6031 56.7881 87.5004 49.7933 87.5004 42.4999C87.5004 35.2064 84.6031 28.2117 79.4458 23.0545C74.2886 17.8972 67.2938 14.9999 60.0004 14.9999C52.7069 14.9999 45.7122 17.8972 40.5549 23.0545C35.3977 28.2117 32.5004 35.2064 32.5004 42.4999C32.5004 49.7933 35.3977 56.7881 40.5549 61.9453C45.7122 67.1026 52.7069 69.9999 60.0004 69.9999Z"
              fill="#343434"/>
    </symbol>


</svg>

