<svg width="141" height="141" viewBox="0 0 141 141" fill="none" xmlns="http://www.w3.org/2000/svg">
<circle cx="70.5" cy="70.5" r="69.5" stroke="#D5D5D5" stroke-width="2"/>
<g clip-path="url(#clip0)">
<path d="M106.779 63.8413C106.779 61.9622 106.05 60.2339 104.728 58.9748C103.451 57.7591 101.745 57.0897 99.9245 57.0897L78.0365 57.0903C75.8177 54.6769 75.0772 51.148 76.2481 48.3297C78.0043 44.103 77.9055 40.6898 75.9179 36.9168C74.3677 33.9739 70.4557 31.6516 67.7123 32.0432C66.0593 32.2793 64.907 33.4183 64.5504 35.168C64.4331 35.7439 64.398 36.4226 64.3572 37.2084C64.2442 39.3891 64.0894 42.3758 62.1794 46.0348C61.0645 48.1709 60.6794 50.4457 60.3397 52.453C59.7147 56.1452 59.3429 58.3374 55.6634 58.7394V58.3731C55.6634 57.6287 55.06 57.0254 54.3157 57.0254H43.5684C42.8241 57.0254 42.2207 57.6287 42.2207 58.3731V98.0004C42.2207 98.7447 42.8241 99.3481 43.5684 99.3481H54.316C55.0603 99.3481 55.6637 98.7447 55.6637 98.0004V97.6223C58.1385 97.818 60.6375 98.508 63.2597 99.234C66.3959 100.102 69.6386 101 72.9229 101H88.0365C92.1711 101 95.5164 98.8208 96.9853 95.1702C97.8218 93.0911 97.8585 90.9466 97.1631 89.3485C98.188 88.6121 99.0412 87.5897 99.6622 86.3201C100.784 84.0276 100.896 81.4318 100.039 79.4329C101.507 78.2817 102.414 76.6268 102.827 75.0329C103.311 73.166 103.174 71.348 102.528 69.9594C105.015 68.9604 106.779 66.5772 106.779 63.8413ZM100.03 67.7629L93.2912 67.9094C92.5472 67.9256 91.957 68.5419 91.9732 69.2861C91.9893 70.0302 92.6063 70.6177 93.3498 70.6042L99.6517 70.4671C100.382 71.135 100.634 72.7513 100.218 74.3561C99.9818 75.2683 98.9395 78.2447 95.4591 78.2447C94.7148 78.2447 94.1114 78.8481 94.1114 79.5924C94.1114 80.3368 94.7148 80.9401 95.4591 80.9401C96.2461 80.9401 96.967 80.8381 97.6238 80.6539C98.0928 81.9159 97.969 83.648 97.2412 85.1353C96.8678 85.8988 96.1175 87.0312 94.7812 87.6178C94.7422 87.632 94.7035 87.6484 94.6658 87.6665C94.1544 87.8736 93.5604 88.0009 92.8732 88.0009C92.1288 88.0009 91.5255 88.6043 91.5255 89.3486C91.5255 90.093 92.1288 90.6963 92.8732 90.6963C93.5109 90.6963 94.1263 90.6221 94.7129 90.4775C95.0556 91.3211 95.0819 92.6799 94.4849 94.1638C93.9839 95.4088 92.353 98.3045 88.0368 98.3045H72.9229C70.0049 98.3045 67.0779 97.494 63.9792 96.6361C61.2728 95.8867 58.487 95.1168 55.6637 94.9195V78.2447C55.6637 77.5004 55.0603 76.897 54.316 76.897C53.5716 76.897 52.9683 77.5004 52.9683 78.2447V96.6525H44.9161V59.7206H52.9683V72.1214C52.9683 72.8658 53.5716 73.4691 54.316 73.4691C55.0603 73.4691 55.6637 72.8658 55.6637 72.1214V61.4442C61.6434 60.902 62.3603 56.6671 62.9975 52.9029C63.3189 51.0041 63.6513 49.0407 64.569 47.2821C66.7508 43.1022 66.9304 39.6394 67.0491 37.3479C67.0843 36.67 67.1146 36.0846 67.1917 35.7061C67.3593 34.8835 67.7452 34.7614 68.0936 34.7117C69.5767 34.4999 72.4343 36.0873 73.5333 38.1732C75.1491 41.2402 75.2124 43.7979 73.7591 47.2956C72.4724 50.3925 72.8843 54.1057 74.6865 57.0906H73.025C72.2808 57.0906 71.6772 57.6941 71.6772 58.4383C71.6772 59.1825 72.2808 59.786 73.025 59.786L99.9245 59.7852C101.05 59.7852 102.096 60.1907 102.869 60.9272C103.652 61.6725 104.083 62.7074 104.083 63.8414C104.084 65.9551 102.265 67.7143 100.03 67.7629Z" fill="#343434"/>
</g>
<defs>
<clipPath id="clip0">
<rect width="69" height="69" fill="white" transform="translate(40 32)"/>
</clipPath>
</defs>
</svg>
