<svg display="none" xmlns="http://www.w3.org/2000/svg">
    <symbol id="clock" viewBox="0 0 20 20" xmlns="http://www.w3.org/2000/svg">
        <path d="M10 3.2609C10.2392 3.2609 10.4348 3.06525 10.4348 2.82612V2.60873C10.4348 2.3696 10.2392 2.17395 10 2.17395C9.7609 2.17395 9.56525 2.3696 9.56525 2.60873V2.82612C9.56525 3.06525 9.7609 3.2609 10 3.2609Z"
        />
        <path d="M10 16.7391C9.7609 16.7391 9.56525 16.9348 9.56525 17.1739V17.3913C9.56525 17.6304 9.7609 17.8261 10 17.8261C10.2392 17.8261 10.4348 17.6304 10.4348 17.3913V17.1739C10.4348 16.9348 10.2392 16.7391 10 16.7391Z"
        />
        <path d="M2.82606 9.56519H2.60867C2.36954 9.56519 2.17389 9.76084 2.17389 9.99997C2.17389 10.2391 2.36954 10.4348 2.60867 10.4348H2.82606C3.06519 10.4348 3.26084 10.2391 3.26084 9.99997C3.26084 9.76084 3.06519 9.56519 2.82606 9.56519Z"
        />
        <path d="M17.3913 9.56519H17.1739C16.9348 9.56519 16.7391 9.76084 16.7391 9.99997C16.7391 10.2391 16.9348 10.4348 17.1739 10.4348H17.3913C17.6304 10.4348 17.8261 10.2391 17.8261 9.99997C17.8261 9.76084 17.6304 9.56519 17.3913 9.56519Z"
        />
        <path d="M5.08697 4.47821C4.91306 4.3043 4.65219 4.3043 4.47827 4.47821C4.30436 4.65213 4.30436 4.913 4.47827 5.08691L4.63045 5.23908C4.7174 5.32604 4.8261 5.36952 4.9348 5.36952C5.04349 5.36952 5.15219 5.32604 5.23914 5.23908C5.41306 5.06517 5.41306 4.8043 5.23914 4.63039L5.08697 4.47821Z"
        />
        <path d="M4.63045 14.7608L4.47827 14.913C4.30436 15.0869 4.30436 15.3478 4.47827 15.5217C4.56523 15.6086 4.67393 15.6521 4.78262 15.6521C4.89132 15.6521 5.00001 15.6086 5.08697 15.5217L5.23914 15.3695C5.41306 15.1956 5.41306 14.9347 5.23914 14.7608C5.06523 14.5869 4.80436 14.5869 4.63045 14.7608Z"
        />
        <path d="M14.913 4.47821L14.7609 4.63039C14.587 4.8043 14.587 5.06517 14.7609 5.23908C14.8478 5.32604 14.9565 5.36952 15.0652 5.36952C15.1739 5.36952 15.2826 5.32604 15.3696 5.23908L15.5217 5.08691C15.6956 4.913 15.6956 4.65213 15.5217 4.47821C15.3478 4.3043 15.0869 4.3043 14.913 4.47821Z"
        />
        <path d="M10.4348 9.82612V5.8696C10.4348 5.63047 10.2392 5.43481 10 5.43481C9.7609 5.43481 9.56525 5.63047 9.56525 5.8696V10C9.56525 10.1087 9.60872 10.2174 9.69568 10.3044L14.4565 15.0652C14.5435 15.1522 14.6522 15.1957 14.7609 15.1957C14.8696 15.1957 14.9783 15.1522 15.0652 15.0652C15.2391 14.8913 15.2391 14.6305 15.0652 14.4566L10.4348 9.82612Z"
        />
        <path d="M10 0C4.47826 0 0 4.47826 0 10C0 15.5217 4.47826 20 10 20C15.5217 20 20 15.5217 20 10C20 4.47826 15.5217 0 10 0ZM10 19.1304C4.95652 19.1304 0.869565 15.0435 0.869565 10C0.869565 4.95652 4.95652 0.869565 10 0.869565C15.0435 0.869565 19.1304 4.95652 19.1304 10C19.1304 15.0435 15.0435 19.1304 10 19.1304Z"
        />
    </symbol>

    <symbol id="mark" viewBox="0 0 20 20" xmlns="http://www.w3.org/2000/svg">
        <path d="M12.2617 14.7148C13.875 12.0391 15.9141 8.27734 15.9141 6.34375C15.9141 3.08203 13.2617 0.429688 10 0.429688C6.73828 0.429688 4.08594 3.08203 4.08594 6.34375C4.08594 8.27734 6.125 12.0391 7.73828 14.7148C5.82422 14.8594 1.46875 15.3789 1.46875 17.1016C1.46875 18.7969 5.89063 19.5703 10.0039 19.5703C14.1133 19.5703 18.5391 18.7969 18.5391 17.1016C18.5352 15.3789 14.1758 14.8594 12.2617 14.7148ZM4.90234 6.34375C4.90234 3.53125 7.19141 1.24219 10 1.24219C12.8125 1.24219 15.1016 3.53125 15.1016 6.34375C15.1016 8.80078 11.1875 14.9648 10 16.7773C8.8125 14.9648 4.90234 8.80078 4.90234 6.34375ZM10 18.7539C5.00391 18.7539 2.28125 17.6602 2.28125 17.0977C2.28125 16.6641 4.07812 15.7305 8.21875 15.4922C8.99609 16.7461 9.58594 17.6328 9.66406 17.7383C9.76953 17.8789 10.0781 18.0469 10.3398 17.7383C10.4219 17.6406 11.0078 16.7461 11.7852 15.4922C15.9258 15.7305 17.7227 16.6602 17.7227 17.0977C17.7188 17.6641 14.9961 18.7539 10 18.7539Z"
        />
        <path d="M12.5742 6.34375C12.5742 4.92187 11.4219 3.76953 10 3.76953C8.57812 3.76953 7.42578 4.92187 7.42578 6.34375C7.42578 7.76562 8.57812 8.91797 10 8.91797C11.4219 8.91797 12.5742 7.76562 12.5742 6.34375ZM8.23828 6.34375C8.23828 5.37109 9.02734 4.58203 10 4.58203C10.9727 4.58203 11.7617 5.37109 11.7617 6.34375C11.7617 7.31641 10.9727 8.10547 10 8.10547C9.02734 8.10547 8.23828 7.31641 8.23828 6.34375Z"
        />
    </symbol>

    <symbol id="inst-1" viewBox="0 0 26 26" xmlns="http://www.w3.org/2000/svg">
        <path d="M15.4883 13C15.4883 14.3743 14.3743 15.4883 13 15.4883C11.6257 15.4883 10.5117 14.3743 10.5117 13C10.5117 11.6257 11.6257 10.5117 13 10.5117C14.3743 10.5117 15.4883 11.6257 15.4883 13Z"
        />
        <path d="M18.8192 8.59749C18.6996 8.27336 18.5088 7.97998 18.2608 7.73917C18.02 7.49121 17.7268 7.30038 17.4025 7.18077C17.1395 7.07861 16.7443 6.95702 16.0165 6.92389C15.2292 6.88799 14.9932 6.88025 13 6.88025C11.0066 6.88025 10.7706 6.88779 9.98347 6.92369C9.25568 6.95702 8.86034 7.07861 8.5975 7.18077C8.27318 7.30038 7.9798 7.49121 7.73918 7.73917C7.49123 7.97998 7.3004 8.27316 7.18059 8.59749C7.07843 8.86052 6.95683 9.25586 6.92371 9.98366C6.8878 10.7708 6.88007 11.0068 6.88007 13.0002C6.88007 14.9933 6.8878 15.2294 6.92371 16.0167C6.95683 16.7445 7.07843 17.1396 7.18059 17.4027C7.3004 17.727 7.49103 18.0202 7.73898 18.261C7.9798 18.509 8.27298 18.6998 8.59731 18.8194C8.86034 18.9218 9.25568 19.0434 9.98347 19.0765C10.7706 19.1124 11.0064 19.1199 12.9998 19.1199C14.9934 19.1199 15.2294 19.1124 16.0163 19.0765C16.7441 19.0434 17.1395 18.9218 17.4025 18.8194C18.0535 18.5683 18.5681 18.0537 18.8192 17.4027C18.9214 17.1396 19.043 16.7445 19.0763 16.0167C19.1122 15.2294 19.1197 14.9933 19.1197 13.0002C19.1197 11.0068 19.1122 10.7708 19.0763 9.98366C19.0432 9.25586 18.9216 8.86052 18.8192 8.59749ZM13 16.8332C10.8829 16.8332 9.16661 15.1171 9.16661 13C9.16661 10.8828 10.8829 9.16679 13 9.16679C15.1169 9.16679 16.8332 10.8828 16.8332 13C16.8332 15.1171 15.1169 16.8332 13 16.8332ZM16.9847 9.91106C16.49 9.91106 16.0889 9.50996 16.0889 9.01524C16.0889 8.52052 16.49 8.11943 16.9847 8.11943C17.4795 8.11943 17.8806 8.52052 17.8806 9.01524C17.8804 9.50996 17.4795 9.91106 16.9847 9.91106Z"
        />
        <path d="M13 0C5.8214 0 0 5.8214 0 13C0 20.1786 5.8214 26 13 26C20.1786 26 26 20.1786 26 13C26 5.8214 20.1786 0 13 0ZM20.4198 16.0776C20.3837 16.8723 20.2574 17.4148 20.0729 17.8897C19.6851 18.8924 18.8924 19.6851 17.8897 20.0729C17.415 20.2574 16.8723 20.3835 16.0778 20.4198C15.2818 20.4561 15.0275 20.4648 13.0002 20.4648C10.9727 20.4648 10.7186 20.4561 9.92238 20.4198C9.12793 20.3835 8.58521 20.2574 8.11052 20.0729C7.61223 19.8854 7.16115 19.5916 6.78822 19.2118C6.40855 18.8391 6.11478 18.3878 5.92732 17.8897C5.74284 17.415 5.61649 16.8723 5.58038 16.0778C5.54369 15.2816 5.53516 15.0273 5.53516 13C5.53516 10.9727 5.54369 10.7184 5.58018 9.92238C5.61629 9.12773 5.74245 8.58521 5.92693 8.11032C6.11438 7.61223 6.40836 7.16095 6.78822 6.78822C7.16095 6.40836 7.61223 6.11458 8.11032 5.92712C8.58521 5.74265 9.12773 5.61649 9.92238 5.58018C10.7184 5.54388 10.9727 5.53516 13 5.53516C15.0273 5.53516 15.2816 5.54388 16.0776 5.58038C16.8723 5.61649 17.4148 5.74265 17.8897 5.92693C18.3878 6.11438 18.8391 6.40836 19.212 6.78822C19.5916 7.16115 19.8856 7.61223 20.0729 8.11032C20.2576 8.58521 20.3837 9.12773 20.42 9.92238C20.4563 10.7184 20.4648 10.9727 20.4648 13C20.4648 15.0273 20.4563 15.2816 20.4198 16.0776Z"
        />
    </symbol>

    <symbol id="operators" viewBox="0 0 30 30" xmlns="http://www.w3.org/2000/svg">
        <g clip-path="url(#clip0)">
            <path d="M27.8634 12.6852C27.1132 12.2018 26.2429 11.9463 25.3465 11.9463H24.099C23.6136 11.9463 23.2201 12.3398 23.2201 12.8252V22.1621C23.2201 22.6475 23.6136 23.041 24.099 23.041H25.3465C27.9125 23.041 30 20.9534 30 18.3874V16.5997C30 15.0099 29.2011 13.5465 27.8634 12.6852Z"/>
            <path d="M25.15 24.7829H24.9285C23.9726 26.6791 22.0072 27.983 19.7426 27.983C19.2573 27.983 18.8637 28.3765 18.8637 28.8619C18.8637 29.3473 19.2573 29.7408 19.7426 29.7408C23.0939 29.7408 25.9424 27.5491 26.9316 24.524C26.3666 24.6922 25.7687 24.7829 25.15 24.7829Z"/>
            <path d="M15 0.259155C8.9093 0.259155 3.83895 4.70789 2.86542 10.5264C3.45991 10.3277 4.08417 10.2199 4.71932 10.2067C5.7927 5.52216 9.99457 2.01697 15 2.01697C20.0054 2.01697 24.2073 5.52216 25.2806 10.2068C25.9158 10.2199 26.54 10.3277 27.1345 10.5264C26.161 4.70789 21.0907 0.259155 15 0.259155Z"/>
            <path d="M5.90098 11.9463H4.65352C3.75709 11.9463 2.8868 12.2018 2.13697 12.685C0.798867 13.5465 0 15.01 0 16.5998V18.3875C0 20.9534 2.08758 23.041 4.65352 23.041H5.90098C6.38637 23.041 6.77988 22.6475 6.77988 22.1621V12.8252C6.77988 12.3398 6.38637 11.9463 5.90098 11.9463Z"/>
        </g>
        <defs>
            <clipPath id="clip0">
                <rect width="30" height="30" fill="white"/>
            </clipPath>
        </defs>
    </symbol>

    <symbol id="prf-1" viewBox="0 0 80 80" fill="none" xmlns="http://www.w3.org/2000/svg">
        <g clip-path="url(#clip0)">
            <path d="M30.31 29.4567C26.8033 29.4567 23.2067 28.1367 20.48 25.5133C17.6233 22.77 16.93 19.3067 16.1967 15.64C15.3833 11.56 14.54 7.33999 10.51 3.46666C10.0433 3.01666 9.88 2.33333 10.09 1.72333C10.3033 1.10666 10.8533 0.669993 11.5 0.609993L11.9567 0.563326C20.2367 -0.280007 30.54 -1.30001 38.6333 6.47666C41.1967 8.93666 42.7467 12.7133 42.7833 16.57C42.82 20.2433 41.53 23.5767 39.15 25.95C36.8067 28.2933 33.6 29.4567 30.31 29.4567ZM15.0833 3.60999C17.9633 7.44999 18.7533 11.4167 19.4667 14.99C20.12 18.26 20.6833 21.09 22.7867 23.1133C26.3567 26.54 32.8367 27.5567 36.79 23.6C38.53 21.8633 39.4733 19.3767 39.4467 16.6067C39.4167 13.6233 38.25 10.7367 36.32 8.88333C30.1433 2.94666 22.3367 2.96999 15.0833 3.60999Z"
                  fill="#C0CD49"/>
            <path d="M60.0567 23.3334C59.8234 23.3334 59.5867 23.3267 59.3534 23.31C56.6467 23.15 54.2967 22.0767 52.7334 20.2867C48.28 15.19 49.7534 8.22668 53.6734 4.69668C60.2833 -1.25332 68.3734 -0.193316 74.8667 0.66335L75.2167 0.710017C75.86 0.79335 76.3967 1.24668 76.5934 1.87002C76.7867 2.49335 76.6 3.17002 76.1167 3.60668C72.9767 6.43335 72.23 9.63002 71.51 12.72C70.8667 15.4767 70.2034 18.3267 67.8267 20.4667C65.8 22.2867 62.9367 23.3334 60.0567 23.3334ZM67.0967 3.33002C63.1634 3.33002 59.2534 4.15335 55.9 7.17668C53.1534 9.64668 52.1234 14.5234 55.24 18.09C56.2134 19.2034 57.7434 19.8734 59.55 19.98C61.7767 20.0967 64.05 19.3634 65.5934 17.98C67.1933 16.54 67.6667 14.5167 68.2634 11.9534C68.8467 9.44335 69.5434 6.46668 71.6234 3.61335C70.1334 3.45335 68.61 3.33002 67.0967 3.33002ZM54.7867 5.93668H54.82H54.7867Z"
                  fill="#C0CD49"/>
            <path d="M45.43 40.2C44.6433 40.2 43.94 39.64 43.7933 38.8367C41.6 26.9867 30.3333 17.23 30.2166 17.1333C29.5166 16.5367 29.4367 15.4833 30.0333 14.7867C30.63 14.0833 31.68 13.9967 32.3833 14.6C32.8833 15.0267 44.66 25.2 47.0733 38.23C47.24 39.1334 46.6433 40.0034 45.7367 40.17C45.6333 40.19 45.5333 40.2 45.43 40.2Z"
                  fill="#C0CD49"/>
            <path d="M11.6667 73.3333H1.66667C0.746666 73.3333 0 72.5867 0 71.6667V41.6667C0 40.7467 0.746666 40 1.66667 40C13.0033 40 18.9933 43.82 19.2433 43.9833C19.84 44.3733 20.1233 45.1 19.95 45.79L13.2833 72.0767C13.0933 72.8167 12.43 73.3333 11.6667 73.3333ZM3.33333 70H10.37L16.4 46.2333C14.5233 45.3367 10.1033 43.6133 3.33333 43.3633V70Z"
                  fill="#C0CD49"/>
            <path d="M43.3333 80C35.4667 80 20.2567 73.3866 11.8867 69.44C11.0533 69.05 10.7 68.0533 11.09 67.2233C11.48 66.3866 12.4767 66.0366 13.31 66.4266C19.8433 69.5066 35.8433 76.6666 43.3333 76.6666C51.44 76.6666 70.55 67.1433 76.0467 64.3133C75.18 63.18 73.39 61.6666 70 61.6666C66.9233 61.6666 63.0233 62.8966 59.25 64.09C55.24 65.3533 51.09 66.6666 47.5 66.6666C40.62 66.6666 31.4833 63.3733 31.0967 63.2333C30.2333 62.92 29.7867 61.9633 30.1 61.0966C30.4133 60.2333 31.3667 59.79 32.2367 60.1C32.3233 60.1333 41.21 63.3333 47.5 63.3333C50.5767 63.3333 54.4767 62.1033 58.25 60.91C62.26 59.6466 66.41 58.3333 70 58.3333C77.7767 58.3333 79.83 64.2233 79.9133 64.4733C80.17 65.2433 79.8367 66.0866 79.1167 66.4733C78.08 67.02 53.63 80 43.3333 80Z"
                  fill="#C0CD49"/>
            <path d="M55 65.3C54.08 65.3 53.3333 64.5533 53.3333 63.6333V61.9666C53.3333 59.64 51.7667 57.6466 49.52 57.1266L17.34 49.3566C16.4433 49.14 15.8933 48.24 16.11 47.3433C16.3233 46.4433 17.24 45.9133 18.12 46.1133L50.2867 53.88C54.04 54.7566 56.6667 58.0833 56.6667 61.9666V63.6333C56.6667 64.5533 55.92 65.3 55 65.3Z"
                  fill="#C0CD49"/>
            <path d="M45.4333 40.1933C45.43 40.1933 45.4267 40.1933 45.4233 40.1933C44.5067 40.1867 43.7633 39.4433 43.7667 38.5267C43.7667 37.95 43.9767 24.37 59.14 15.24C59.9267 14.7667 60.95 15.0167 61.4267 15.81C61.9033 16.5967 61.6467 17.6233 60.86 18.1C47.37 26.2233 47.1067 38.0433 47.1033 38.5433C47.0933 39.4533 46.35 40.1933 45.4333 40.1933Z"
                  fill="#C0CD49"/>
        </g>
        <defs>
            <clipPath id="clip0">
                <rect width="80" height="80" fill="white"/>
            </clipPath>
        </defs>
    </symbol>

    <symbol id="prf-2" viewBox="0 0 80 80" fill="none" xmlns="http://www.w3.org/2000/svg">
        <g clip-path="url(#clip0)">
            <path d="M79.7822 47.9024L64.2744 7.35345C62.9677 3.93688 58.5764 1.73484 55.0858 1.57984C55.0748 1.57937 55.064 1.58094 55.0533 1.58062C55.0409 1.58031 55.0289 1.57828 55.0166 1.57828H45.8173C45.1273 1.57828 44.5189 2.03109 44.3207 2.69188L40.0001 17.0982L35.6795 2.69172C35.4812 2.03094 34.8729 1.57812 34.1829 1.57812H24.9837C24.9713 1.57812 24.9595 1.58016 24.9471 1.58047C24.9362 1.58078 24.9254 1.57922 24.9143 1.57969C21.4237 1.73469 17.0324 3.93672 15.7258 7.35329L0.217998 47.9024C-0.100441 48.7348 -0.0690343 49.6384 0.306435 50.4465C0.681905 51.2549 1.35237 51.8618 2.19378 52.1551L9.10489 54.5656C9.46599 54.6915 9.83333 54.7515 10.1944 54.7515C11.446 54.7515 12.6182 54.0285 13.1615 52.8196C13.1688 52.8032 13.176 52.7867 13.1827 52.7701L15.2201 47.7826C15.1488 49.4435 15.0983 51.1029 15.0713 52.7589C15.0105 56.3562 15.0555 60.0204 15.2058 63.6642L15.4074 67.6297C15.4074 67.6303 15.4076 67.6309 15.4076 67.6314L15.8808 76.9386C15.9232 77.7695 16.6093 78.4217 17.4413 78.4217H62.5583C63.3903 78.4217 64.0766 77.7695 64.1188 76.9386L64.5919 67.6336C64.5919 67.6322 64.5922 67.6309 64.5924 67.6297L64.7939 63.6642C64.7941 63.6592 64.7944 63.6542 64.7945 63.6492C64.9442 60.0203 64.9892 56.3562 64.9284 52.7589C64.9016 51.1029 64.8511 49.4435 64.7797 47.7826L66.817 52.7699C66.8238 52.7867 66.8309 52.8031 66.8383 52.8195C67.3817 54.0285 68.5538 54.7514 69.8053 54.7514C70.1663 54.7514 70.5339 54.6912 70.8949 54.5654L77.806 52.1549C78.6477 51.8615 79.3182 51.2546 79.6936 50.4463C80.0693 49.6384 80.1007 48.7348 79.7822 47.9024ZM41.5623 22.766L46.9798 4.70313H54.1734L56.8917 8.84251C56.9536 8.93658 57.0109 9.03283 57.065 9.13033C57.0778 9.15345 57.0891 9.1772 57.1014 9.20048C57.1423 9.27767 57.1822 9.35533 57.2183 9.43423C57.2283 9.4558 57.237 9.47767 57.2466 9.49923C57.2836 9.58377 57.3189 9.66877 57.3506 9.75486C57.3559 9.76939 57.3609 9.78392 57.3661 9.79845C57.4009 9.89627 57.433 9.99502 57.4609 10.0945C57.4619 10.0977 57.4626 10.1008 57.4636 10.1039C57.6737 10.8608 57.682 11.6611 57.4928 12.4202C57.4855 12.4494 57.4773 12.4786 57.4694 12.5077C57.4512 12.575 57.4311 12.6417 57.4097 12.7083C57.3933 12.7586 57.3764 12.8089 57.3581 12.8588C57.3433 12.9 57.3272 12.941 57.3111 12.9819C57.2841 13.0497 57.2564 13.1175 57.2261 13.1844C57.2181 13.2022 57.2094 13.2197 57.2011 13.2374C57.1623 13.3197 57.122 13.4016 57.078 13.4822C57.0778 13.4825 57.0776 13.483 57.0773 13.4833C57.0669 13.5025 57.0562 13.5203 57.0458 13.5391C57.0272 13.5721 57.0089 13.605 56.9895 13.6375C56.9666 13.6764 56.9434 13.7146 56.9201 13.7516C56.8666 13.8355 56.8112 13.9185 56.7517 13.9994C56.7509 14.0005 56.7501 14.0017 56.7492 14.0028L41.5623 34.5607V22.766ZM42.9342 41.4159C43.5804 41.4159 44.1061 41.9415 44.1061 42.5877V42.6559C44.1061 43.3021 43.5804 43.8277 42.9342 43.8277H37.0662C36.4199 43.8277 35.8943 43.3021 35.8943 42.6559V42.5877C35.8943 41.9415 36.4199 41.4159 37.0662 41.4159H42.9342ZM22.5366 10.1055C22.5377 10.1014 22.539 10.0974 22.5401 10.0933C22.5676 9.99486 22.5993 9.89752 22.6337 9.8008C22.6393 9.78502 22.6446 9.76923 22.6505 9.75361C22.6816 9.66923 22.7162 9.5858 22.7526 9.50299C22.7629 9.4797 22.7724 9.45611 22.783 9.43298C22.818 9.35673 22.8565 9.28173 22.896 9.2072C22.9098 9.18126 22.9221 9.15501 22.9365 9.12923C22.9862 9.0397 23.0394 8.95158 23.0957 8.86486C23.1004 8.85767 23.1043 8.85017 23.109 8.84283L25.4429 5.28876L25.8273 4.70344H33.0209L38.4376 22.7661V34.5608L23.2509 14.003C23.2505 14.0025 23.2501 14.0019 23.2498 14.0014C23.1893 13.9196 23.1334 13.8355 23.0793 13.7506C23.0566 13.7146 23.0341 13.6774 23.0116 13.6394C22.9898 13.6027 22.969 13.5655 22.9482 13.5285C22.9398 13.5133 22.9313 13.4991 22.9229 13.4836C22.9227 13.4831 22.9226 13.4828 22.9223 13.4825C22.8785 13.4024 22.8385 13.321 22.7999 13.2391C22.7913 13.2206 22.7823 13.2024 22.7738 13.1838C22.7437 13.1174 22.7163 13.0502 22.6895 12.983C22.6732 12.9416 22.6569 12.9002 22.642 12.8585C22.6238 12.8089 22.6071 12.7589 22.5909 12.7089C22.5694 12.6421 22.5491 12.575 22.5309 12.5074C22.5229 12.4785 22.5149 12.4496 22.5076 12.4206C22.3185 11.6619 22.3268 10.8621 22.5366 10.1055ZM16.9441 29.1682C16.9382 29.1976 16.9332 29.2272 16.9288 29.2569C16.8391 29.8872 16.7538 30.5187 16.6704 31.1507C16.6477 31.3224 16.6254 31.4941 16.6032 31.6662C16.5335 32.2054 16.466 32.7452 16.401 33.2855C16.3879 33.394 16.3741 33.5023 16.3612 33.6107C16.2915 34.1987 16.2252 34.7874 16.161 35.3765C16.133 35.6326 16.1062 35.8882 16.0793 36.144C16.0418 36.5018 16.0055 36.8598 15.9699 37.2179C15.9499 37.4249 15.9271 37.6323 15.9072 37.8388L10.3058 51.5499C10.2726 51.6096 10.1999 51.6384 10.134 51.6154L3.22269 49.2049C3.18503 49.1917 3.15722 49.1667 3.14035 49.1303C3.12363 49.094 3.12222 49.0567 3.1366 49.0192L18.6446 8.47001C19.0591 7.38611 20.1254 6.44142 21.3893 5.76798L20.4965 7.12751C20.4174 7.24798 20.3434 7.37064 20.2718 7.49439C20.2544 7.52439 20.2368 7.55439 20.2198 7.5847C20.1565 7.69767 20.096 7.81173 20.0388 7.9272C20.0155 7.97392 19.9938 8.02111 19.9716 8.06829C19.9379 8.14017 19.9055 8.21251 19.8741 8.28517C19.8248 8.39892 19.7788 8.51376 19.7352 8.62939C19.7238 8.66001 19.7118 8.69048 19.7007 8.72126C19.1755 10.1695 19.1024 11.7403 19.4893 13.2305C19.4924 13.2428 19.4962 13.2552 19.4993 13.2675C19.5346 13.4008 19.573 13.5333 19.6157 13.6652C19.6434 13.7516 19.6726 13.8375 19.7035 13.9232C19.716 13.9577 19.7277 13.9924 19.7409 14.0267C19.7932 14.1657 19.8502 14.3028 19.9109 14.4391C19.9119 14.4414 19.9127 14.4438 19.9137 14.4461L16.9441 29.1682ZM18.3277 63.5208C18.2993 62.8301 18.2758 62.1381 18.2551 61.4457C18.2516 61.3284 18.2477 61.2112 18.2444 61.0939C18.226 60.4345 18.2112 59.7746 18.1996 59.1153C18.1973 58.9789 18.1952 58.8425 18.193 58.7062C18.1829 58.0404 18.1755 57.3748 18.1724 56.7106C18.1721 56.6225 18.1723 56.5346 18.1721 56.4467C18.1701 55.8139 18.1715 55.1821 18.1762 54.5521C18.1766 54.4843 18.1768 54.4164 18.1774 54.3485H25.8335V57.1234C25.8335 61.5081 22.6341 65.1597 18.4469 65.8654L18.3277 63.5208ZM61.0731 75.297H18.9266L18.6063 68.9981C24.4451 68.1965 28.9584 63.1782 28.9584 57.1226V52.7853C28.9584 51.9224 28.2587 51.2228 27.3959 51.2228H18.2293C18.3408 46.7496 18.6176 42.2554 19.0548 37.7821C19.0937 37.3849 19.1332 36.9874 19.1749 36.5894C19.2005 36.3435 19.2268 36.0976 19.2534 35.8518C19.3132 35.3008 19.3744 34.7498 19.4391 34.1988C19.4499 34.1069 19.4607 34.0151 19.4716 33.923C19.5426 33.3269 19.6169 32.7315 19.6935 32.1371C19.7146 31.9727 19.736 31.8083 19.7576 31.644C19.8412 31.008 19.9266 30.373 20.0165 29.7413L22.3705 18.0702L37.3082 38.2904H37.066C34.697 38.2904 32.7693 40.2179 32.7693 42.5871V42.6552C32.7693 45.0243 34.6968 46.952 37.066 46.952H38.4376V50.951H37.066C34.697 50.951 32.7693 52.8785 32.7693 55.2478V55.3157C32.7693 57.6848 34.6968 59.6125 37.066 59.6125H38.4376V65.7903C38.4376 66.6531 39.1373 67.3528 40.0001 67.3528C40.8629 67.3528 41.5626 66.6531 41.5626 65.7903V59.6125H42.9342C45.3032 59.6125 47.2309 57.685 47.2309 55.3157V55.2478C47.2309 52.8787 45.3034 50.951 42.9342 50.951H41.5626V46.952H42.9342C45.3032 46.952 47.2309 45.0245 47.2309 42.6552V42.5871C47.2309 40.218 45.3034 38.2904 42.9342 38.2904H42.692L57.6297 18.0702L59.9837 29.7413C60.0736 30.3732 60.1591 31.0082 60.2427 31.644C60.2642 31.8082 60.2856 31.9726 60.3067 32.1371C60.3833 32.7316 60.4577 33.3269 60.5286 33.923C60.5395 34.0149 60.5503 34.1068 60.5611 34.1988C60.6258 34.7498 60.6872 35.3008 60.7469 35.8518C60.7734 36.0976 60.7997 36.3435 60.8253 36.5894C60.8669 36.9874 60.9066 37.3849 60.9453 37.7821C61.3825 42.2555 61.6594 46.7498 61.7708 51.2228H52.604C51.7412 51.2228 51.0415 51.9224 51.0415 52.7853V57.1226C51.0415 63.1781 55.5548 68.1964 61.3936 68.9981L61.0731 75.297ZM42.9342 54.0762C43.5804 54.0762 44.1061 54.6018 44.1061 55.2481V55.316C44.1061 55.9623 43.5804 56.4879 42.9342 56.4879H37.0662C36.4199 56.4879 35.8943 55.9623 35.8943 55.316V55.2481C35.8943 54.6018 36.4199 54.0762 37.0662 54.0762H42.9342ZM61.8278 56.6978C61.8248 57.3737 61.8173 58.0509 61.8069 58.7282C61.805 58.8487 61.8033 58.9693 61.8011 59.0898C61.7895 59.7618 61.7744 60.434 61.7555 61.1057C61.7527 61.2081 61.7492 61.3104 61.7463 61.4128C61.7255 62.1121 61.7017 62.8112 61.673 63.5086L61.5531 65.8648C57.3661 65.1589 54.1667 61.5075 54.1667 57.1228V54.3479H61.8228V54.3478C61.8234 54.4151 61.8234 54.4828 61.8241 54.5503C61.8288 55.1884 61.8302 55.8279 61.8281 56.4685C61.8278 56.5453 61.8281 56.6214 61.8278 56.6978ZM76.8599 49.1301C76.843 49.1663 76.8152 49.1915 76.7774 49.2048L69.866 51.6151C69.801 51.6382 69.7275 51.6093 69.6942 51.5496L64.0928 37.8385C64.0733 37.6355 64.0509 37.4318 64.0308 37.2287C63.9947 36.8643 63.9578 36.5001 63.9195 36.136C63.8931 35.8846 63.8667 35.6335 63.8392 35.3819C63.7747 34.7899 63.7081 34.1983 63.6381 33.6074C63.6258 33.5033 63.6125 33.3997 63.6 33.2957C63.5345 32.7508 63.4664 32.2065 63.3961 31.6627C63.3741 31.4926 63.352 31.3227 63.3297 31.1529C63.2463 30.5201 63.1608 29.8879 63.0709 29.2569C63.0667 29.2272 63.0616 29.1976 63.0556 29.1682L60.0861 14.4455C60.087 14.4435 60.0877 14.4414 60.0886 14.4396C60.1494 14.303 60.2067 14.1652 60.2592 14.0258C60.272 13.9921 60.2836 13.9578 60.2959 13.9239C60.327 13.8377 60.3566 13.751 60.3844 13.6638C60.4267 13.5331 60.4647 13.4016 60.4998 13.2694C60.5033 13.2561 60.5072 13.243 60.5106 13.2297C60.8978 11.7389 60.8244 10.1674 60.2984 8.71876C60.2886 8.69142 60.2778 8.66423 60.2677 8.63705C60.2227 8.5172 60.175 8.39829 60.1237 8.28048C60.0936 8.21048 60.0623 8.14095 60.03 8.07189C60.0069 8.02283 59.9842 7.97361 59.96 7.92486C59.9036 7.81095 59.8439 7.69845 59.7816 7.58704C59.7634 7.5547 59.7447 7.52267 59.7261 7.49064C59.6569 7.3711 59.5853 7.25267 59.5092 7.13626C59.5073 7.13329 59.5056 7.13017 59.5037 7.1272L58.6108 5.76766C59.875 6.4411 60.9409 7.38595 61.3555 8.4697L76.8635 49.0188V49.019C76.878 49.0565 76.8766 49.0937 76.8599 49.1301Z"
                  fill="#C0CD49"/>
            <path d="M41.5325 71.0315C41.5124 70.9317 41.481 70.8332 41.4419 70.7395C41.4029 70.6456 41.3544 70.5549 41.2982 70.4706C41.2421 70.3846 41.1764 70.3049 41.1044 70.2331C41.0325 70.1596 40.9529 70.0956 40.8669 70.0378C40.7825 69.9815 40.6919 69.9331 40.5982 69.894C40.5029 69.8549 40.4044 69.8253 40.3044 69.8049C40.1029 69.7643 39.8966 69.7643 39.695 69.8049C39.595 69.8253 39.4966 69.8549 39.4028 69.894C39.3075 69.9331 39.2171 69.9815 39.1327 70.0378C39.0466 70.0956 38.9669 70.1596 38.895 70.2331C38.8232 70.3049 38.7575 70.3846 38.7013 70.4706C38.6435 70.5549 38.5966 70.6456 38.5575 70.7395C38.5185 70.8332 38.4872 70.9315 38.4686 71.0315C38.4482 71.1331 38.4374 71.2348 38.4374 71.3378C38.4374 71.4393 38.4482 71.541 38.4686 71.6424C38.4872 71.7426 38.5185 71.841 38.5575 71.9346C38.5966 72.0285 38.6452 72.119 38.7013 72.2049C38.7575 72.2893 38.8232 72.3706 38.895 72.4424C38.9669 72.5143 39.0466 72.5799 39.1327 72.6362C39.2171 72.6924 39.3075 72.7409 39.4028 72.7799C39.4968 72.819 39.595 72.8487 39.695 72.869C39.795 72.8893 39.8982 72.9001 39.9997 72.9001C40.1011 72.9001 40.2044 72.8893 40.3044 72.869C40.4044 72.8487 40.5029 72.819 40.5982 72.7799C40.6919 72.7409 40.7825 72.6924 40.8669 72.6362C40.9529 72.5799 41.0325 72.5143 41.1044 72.4424C41.1764 72.3706 41.2421 72.2895 41.2982 72.2049C41.3544 72.1188 41.4029 72.0284 41.4419 71.9346C41.481 71.8409 41.5122 71.7426 41.531 71.6424C41.5529 71.541 41.5622 71.4393 41.5622 71.3378C41.5622 71.2348 41.5529 71.1331 41.5325 71.0315Z"
                  fill="#C0CD49"/>
        </g>
        <defs>
            <clipPath id="clip0">
                <rect width="80" height="80" fill="white"/>
            </clipPath>
        </defs>
    </symbol>

    <symbol id="prf-3" viewBox="0 0 80 80" fill="none" xmlns="http://www.w3.org/2000/svg">
        <path d="M42.5297 0.310791C41.9304 0.310791 41.3699 0.605836 41.0307 1.09992C40.0394 2.54363 16.7519 36.6576 16.7519 53.9116C16.7519 68.1254 28.3156 79.6892 42.5295 79.6892C56.7433 79.6892 68.3068 68.1254 68.3068 53.9116C68.3068 36.6576 45.0195 2.54363 44.0282 1.09992C43.6895 0.606079 43.1288 0.310791 42.5297 0.310791ZM42.5297 76.0526C30.3211 76.0526 20.3887 66.1202 20.3887 53.9116C20.3887 40.1882 37.3282 13.3294 42.5297 5.40657C47.7312 13.3294 64.6705 40.188 64.6705 53.9116C64.6705 66.1202 54.7381 76.0526 42.5297 76.0526Z"
              fill="#C0CD49"/>
        <path d="M40.7117 69.3851C40.7117 70.3893 41.5255 71.2034 42.5299 71.2034C52.065 71.2034 59.8225 63.4464 59.8225 53.9121C59.8225 52.9079 59.0086 52.0938 58.0042 52.0938C56.9998 52.0938 56.1859 52.9079 56.1859 53.9121C56.1859 61.4414 50.0598 67.5669 42.5299 67.5669C41.5255 67.5669 40.7117 68.381 40.7117 69.3851Z"
              fill="#C0CD49"/>
        <path d="M78.1817 7.67503H74.6485V4.14152C74.6485 3.13734 73.8346 2.32324 72.8302 2.32324C71.8258 2.32324 71.0119 3.13734 71.0119 4.14152V7.67503H67.4784C66.474 7.67503 65.6601 8.48914 65.6601 9.49331C65.6601 10.4975 66.474 11.3116 67.4784 11.3116H71.0119V14.8451C71.0119 15.8493 71.8258 16.6634 72.8302 16.6634C73.8346 16.6634 74.6485 15.8493 74.6485 14.8451V11.3116H78.1817C79.1861 11.3116 80 10.4975 80 9.49331C80 8.48914 79.1861 7.67503 78.1817 7.67503Z"
              fill="#C0CD49"/>
        <path d="M12.5219 62.4255H8.98834V58.892C8.98834 57.8878 8.17448 57.0737 7.17007 57.0737C6.16565 57.0737 5.35179 57.8878 5.35179 58.892V62.4255H1.81828C0.81386 62.4255 0 63.2396 0 64.2438C0 65.248 0.81386 66.0621 1.81828 66.0621H5.35179V69.5956C5.35179 70.5998 6.16565 71.4139 7.17007 71.4139C8.17448 71.4139 8.98834 70.5998 8.98834 69.5956V66.0621H12.5219C13.5263 66.0621 14.3401 65.248 14.3401 64.2438C14.3401 63.2396 13.5263 62.4255 12.5219 62.4255Z"
              fill="#C0CD49"/>
    </symbol>


    <symbol id="arrow-down" viewBox="0 0 50 50" xmlns="http://www.w3.org/2000/svg">
        <g clip-path="url(#clip0)">
            <path d="M25 0C11.1929 0 0 11.1929 0 25C0 38.8071 11.1929 50 25 50C38.8006 49.9844 49.9844 38.8006 50 25C50 11.1929 38.8071 0 25 0ZM25 48.3333C12.1133 48.3333 1.66667 37.8867 1.66667 25C1.66667 12.1133 12.1133 1.66667 25 1.66667C37.8805 1.68135 48.3186 12.1195 48.3333 25C48.3333 37.8867 37.8867 48.3333 25 48.3333Z"
            />
            <path d="M38.5534 17.7683L25 31.3216L11.4467 17.7683C11.1238 17.4564 10.6118 17.4564 10.2889 17.7683C9.95785 18.088 9.94869 18.6156 10.2684 18.9466L24.4109 33.0891C24.5671 33.2454 24.779 33.3333 25 33.3333C25.2211 33.3333 25.433 33.2454 25.5892 33.0891L39.7317 18.9466C39.7387 18.94 39.7455 18.9331 39.7521 18.9262C40.0718 18.5952 40.0627 18.0677 39.7317 17.7479C39.4007 17.4281 38.8732 17.4373 38.5534 17.7683Z"
            />
        </g>
    </symbol>

    <symbol id="adv-1" viewBox="0 0 100 100" fill="none" xmlns="http://www.w3.org/2000/svg">
        <path d="M59.3734 17.9702C52.4812 17.9702 46.8734 12.3624 46.8734 5.47021C46.8734 4.60771 47.5734 3.90771 48.4359 3.90771C49.3 3.90771 49.9984 4.60771 49.9984 5.47021C49.9984 10.6405 54.2031 14.8452 59.3734 14.8452C61.914 14.8452 64.2937 13.8452 66.0734 12.0296C66.6781 11.414 67.6656 11.4046 68.2828 12.0062C68.9 12.6108 68.9078 13.5999 68.3047 14.2155C65.9328 16.6358 62.7609 17.9702 59.3734 17.9702Z"
              fill="#C0CD49"/>
        <path d="M73.4406 71.703C73.2125 71.703 72.9781 71.653 72.7578 71.5451C63.539 67.0561 57.8109 57.903 57.8109 47.6561C57.8109 37.4108 63.5359 28.2545 72.7515 23.7623C73.5343 23.3826 74.464 23.7076 74.8406 24.4826C75.2187 25.2576 74.8968 26.1936 74.1218 26.5717C65.989 30.5358 60.9375 38.6155 60.9375 47.6561C60.9375 56.6967 65.9906 64.7733 74.1265 68.7342C74.9031 69.1123 75.225 70.0483 74.8484 70.8233C74.5765 71.3795 74.0203 71.703 73.4406 71.703Z"
              fill="#C0CD49"/>
        <path d="M37.5031 92.9639C37.2203 92.9639 36.9359 92.8873 36.6781 92.7279C35.9453 92.2717 35.7219 91.3076 36.1781 90.5748C41.4219 82.1639 49.8781 77.3389 59.375 77.3389C62.8172 77.3389 66.1719 77.9889 69.3406 79.2717C70.1406 79.5951 70.5265 80.5061 70.2031 81.3061C69.8797 82.1076 68.9719 82.492 68.1687 82.1686C65.3734 81.0373 62.414 80.4639 59.375 80.4639C50.8562 80.4639 43.5594 84.642 38.8312 92.2279C38.5344 92.7029 38.025 92.9639 37.5031 92.9639Z"
              fill="#C0CD49"/>
        <path d="M73.4375 26.7327C72.8734 26.7327 72.3265 26.4265 72.0484 25.889L65.7984 13.839C65.4015 13.0734 65.7 12.1296 66.4672 11.7327C67.2281 11.3359 68.1765 11.6343 68.5734 12.3999L74.8234 24.4499C75.2203 25.2156 74.9218 26.1593 74.1547 26.5562C73.9265 26.6765 73.6797 26.7327 73.4375 26.7327Z"
              fill="#C0CD49"/>
        <path d="M68.7468 82.2859C68.5359 82.2859 68.3218 82.2437 68.1156 82.1515C67.3265 81.8015 66.9718 80.8796 67.3203 80.0906L72.0078 69.5078C72.3578 68.7203 73.2781 68.3625 74.0687 68.7125C74.8578 69.0625 75.2125 69.9843 74.864 70.7734L70.1765 81.3562C69.9187 81.939 69.3468 82.2859 68.7468 82.2859Z"
              fill="#C0CD49"/>
        <path d="M15.6359 17.9702C12.2484 17.9702 9.07655 16.6358 6.70468 14.2155C6.10155 13.5983 6.11093 12.6108 6.72812 12.0062C7.34374 11.403 8.3328 11.4108 8.93749 12.0296C10.7172 13.8452 13.0953 14.8452 15.6375 14.8452C20.8078 14.8452 25.0125 10.6405 25.0125 5.47021C25.0125 4.60771 25.7125 3.90771 26.575 3.90771C27.4375 3.90771 28.1375 4.60771 28.1375 5.47021C28.1359 12.3624 22.5281 17.9702 15.6359 17.9702Z"
              fill="#C0CD49"/>
        <path d="M1.56719 71.703C0.987498 71.703 0.431248 71.3796 0.162497 70.8233C-0.215628 70.0483 0.10781 69.1124 0.88281 68.7343C9.01875 64.7733 14.0734 56.6968 14.0734 47.6562C14.0734 38.6155 9.02031 30.5358 0.88906 26.5718C0.112497 26.1937 -0.209378 25.2577 0.168747 24.4827C0.546872 23.7062 1.48594 23.3843 2.25781 23.7624C11.4734 28.2546 17.1984 37.4093 17.1984 47.6562C17.1984 57.903 11.4703 67.0562 2.25156 71.5452C2.03125 71.6515 1.79687 71.703 1.56719 71.703Z"
              fill="#C0CD49"/>
        <path d="M37.5062 92.9639C36.9844 92.9639 36.475 92.7029 36.1781 92.2279C31.4484 84.642 24.1531 80.4639 15.6344 80.4639C12.5953 80.4639 9.63594 81.0373 6.84063 82.1686C6.04375 82.492 5.12969 82.1076 4.80625 81.3061C4.48125 80.5061 4.86875 79.5951 5.66875 79.2717C8.8375 77.9889 12.1906 77.3389 15.6344 77.3389C25.1328 77.3389 33.5875 82.1639 38.8312 90.5748C39.2875 91.3076 39.0641 92.2717 38.3312 92.7279C38.0734 92.8873 37.7891 92.9639 37.5062 92.9639Z"
              fill="#C0CD49"/>
        <path d="M1.57188 26.7328C1.32969 26.7328 1.08281 26.6766 0.854689 26.5578C0.0890641 26.161 -0.210936 25.2172 0.187502 24.4516L6.4375 12.4016C6.83438 11.636 7.77656 11.336 8.54375 11.7344C9.30938 12.1313 9.60938 13.075 9.21094 13.8407L2.96094 25.8907C2.68281 26.4266 2.1375 26.7328 1.57188 26.7328Z"
              fill="#C0CD49"/>
        <path d="M6.26093 82.2858C5.66093 82.2858 5.08905 81.939 4.83124 81.3561L0.143738 70.7733C-0.206262 69.9843 0.149988 69.0608 0.940613 68.7124C1.72499 68.3608 2.65155 68.7186 3.00155 69.5077L7.68905 80.0905C8.03905 80.8796 7.6828 81.803 6.89218 82.1515C6.68749 82.2436 6.47343 82.2858 6.26093 82.2858Z"
              fill="#C0CD49"/>
        <path d="M48.436 7.03271H26.5672C25.7047 7.03271 25.0047 6.33271 25.0047 5.47021C25.0047 4.60771 25.7047 3.90771 26.5672 3.90771H48.436C49.3 3.90771 49.9985 4.60771 49.9985 5.47021C49.9985 6.33271 49.3 7.03271 48.436 7.03271Z"
              fill="#C0CD49"/>
        <path d="M84.364 21.0967C77.4719 21.0967 71.864 15.4889 71.864 8.59668C71.864 7.73418 72.5625 7.03418 73.4265 7.03418C74.2906 7.03418 74.989 7.73418 74.989 8.59668C74.989 13.767 79.1937 17.9717 84.364 17.9717C86.9047 17.9717 89.2843 16.9717 91.064 15.1561C91.6672 14.5389 92.6562 14.5311 93.2734 15.1326C93.8906 15.7373 93.8984 16.7264 93.2953 17.342C90.9234 19.7623 87.7515 21.0967 84.364 21.0967Z"
              fill="#C0CD49"/>
        <path d="M98.4312 74.831C98.2031 74.831 97.9687 74.781 97.7484 74.6732C88.5297 70.1841 82.8015 61.0294 82.8015 50.7825C82.8015 40.5357 88.5265 31.381 97.7422 26.8888C98.5265 26.5091 99.4562 26.8341 99.8312 27.6091C100.209 28.3841 99.8875 29.32 99.1125 29.6982C90.9797 33.6622 85.9281 41.7419 85.9281 50.7825C85.9281 59.8232 90.9812 67.9013 99.1172 71.8622C99.8937 72.2404 100.216 73.1763 99.839 73.9513C99.5672 74.5075 99.0109 74.831 98.4312 74.831Z"
              fill="#C0CD49"/>
        <path d="M62.4937 96.0923C62.2109 96.0923 61.9265 96.0157 61.6687 95.8563C60.9359 95.4001 60.714 94.436 61.1703 93.7032C66.414 85.2923 74.8703 80.4673 84.3672 80.4673C87.8094 80.4673 91.164 81.1173 94.3328 82.4001C95.1328 82.7235 95.5187 83.6345 95.1953 84.4345C94.8719 85.236 93.9625 85.622 93.1609 85.297C90.3656 84.1657 87.4062 83.5923 84.3672 83.5923C75.8484 83.5923 68.5515 87.7704 63.8234 95.3563C63.525 95.8313 63.0156 96.0923 62.4937 96.0923Z"
              fill="#C0CD49"/>
        <path d="M98.4281 29.8592C97.864 29.8592 97.3172 29.553 97.039 29.0155L90.789 16.9655C90.3922 16.1998 90.6906 15.2561 91.4578 14.8592C92.2172 14.4623 93.1672 14.7608 93.564 15.5264L99.814 27.5764C100.211 28.342 99.9125 29.2858 99.1453 29.6826C98.9172 29.803 98.6703 29.8592 98.4281 29.8592Z"
              fill="#C0CD49"/>
        <path d="M93.7375 85.4141C93.5265 85.4141 93.3125 85.3719 93.1062 85.2798C92.3172 84.9298 91.9625 84.0079 92.3109 83.2188L96.9984 72.636C97.3469 71.8485 98.2687 71.4923 99.0594 71.8407C99.8484 72.1907 100.203 73.1126 99.8547 73.9016L95.1672 84.4844C94.9094 85.0673 94.3375 85.4141 93.7375 85.4141Z"
              fill="#C0CD49"/>
        <path d="M50.8937 13.9358C50.714 13.9358 50.5328 13.9046 50.3531 13.839C49.5437 13.5405 49.1297 12.6421 49.4265 11.8327C49.8078 10.7983 50 9.70928 50 8.59521C50 7.73271 50.6984 7.03271 51.5625 7.03271C52.4265 7.03271 53.125 7.73271 53.125 8.59521C53.125 10.078 52.8672 11.5312 52.3594 12.9108C52.1281 13.5452 51.5297 13.9358 50.8937 13.9358Z"
              fill="#C0CD49"/>
        <path d="M62.4969 96.0919C61.975 96.0919 61.4656 95.8309 61.1687 95.3559C57.4656 89.4153 52.1515 85.5403 45.8031 84.1466C44.9594 83.9622 44.4265 83.1294 44.6125 82.2872C44.7969 81.445 45.625 80.9122 46.4734 81.095C53.6625 82.6716 59.6625 87.0309 63.8219 93.7013C64.2781 94.4341 64.0547 95.3981 63.3234 95.8544C63.064 96.0153 62.7797 96.0919 62.4969 96.0919Z"
              fill="#C0CD49"/>
        <path d="M73.4266 10.1592H51.5578C50.6937 10.1592 49.9953 9.45918 49.9953 8.59668C49.9953 7.73418 50.6937 7.03418 51.5578 7.03418H73.4266C74.2906 7.03418 74.9891 7.73418 74.9891 8.59668C74.9891 9.45918 74.2906 10.1592 73.4266 10.1592Z"
              fill="#C0CD49"/>
        <path d="M37.4969 17.9702C36.6344 17.9702 35.9344 17.2702 35.9344 16.4077V13.2827C35.9344 12.4202 36.6344 11.7202 37.4969 11.7202C38.3594 11.7202 39.0594 12.4202 39.0594 13.2827V16.4077C39.0594 17.2702 38.3594 17.9702 37.4969 17.9702Z"
              fill="#C0CD49"/>
        <path d="M37.4969 25.7812C36.6344 25.7812 35.9344 25.0812 35.9344 24.2187V21.0952C35.9344 20.2327 36.6344 19.5327 37.4969 19.5327C38.3594 19.5327 39.0594 20.2327 39.0594 21.0952V24.2187C39.0594 25.0812 38.3594 25.7812 37.4969 25.7812Z"
              fill="#C0CD49"/>
        <path d="M37.4969 33.5938C36.6344 33.5938 35.9344 32.8938 35.9344 32.0312V28.9062C35.9344 28.0438 36.6344 27.3438 37.4969 27.3438C38.3594 27.3438 39.0594 28.0438 39.0594 28.9062V32.0312C39.0594 32.8938 38.3594 33.5938 37.4969 33.5938Z"
              fill="#C0CD49"/>
        <path d="M37.4969 41.4062C36.6344 41.4062 35.9344 40.7078 35.9344 39.8438V36.7188C35.9344 35.8563 36.6344 35.1562 37.4969 35.1562C38.3594 35.1562 39.0594 35.8563 39.0594 36.7188V39.8438C39.0594 40.7078 38.3594 41.4062 37.4969 41.4062Z"
              fill="#C0CD49"/>
        <path d="M37.4969 49.2188C36.6344 49.2188 35.9344 48.5203 35.9344 47.6562V44.5312C35.9344 43.6672 36.6344 42.9688 37.4969 42.9688C38.3594 42.9688 39.0594 43.6672 39.0594 44.5312V47.6562C39.0594 48.5203 38.3594 49.2188 37.4969 49.2188Z"
              fill="#C0CD49"/>
        <path d="M37.4969 57.0328C36.6344 57.0328 35.9344 56.3344 35.9344 55.4703V52.3437C35.9344 51.4797 36.6344 50.7812 37.4969 50.7812C38.3594 50.7812 39.0594 51.4797 39.0594 52.3437V55.4703C39.0594 56.3344 38.3594 57.0328 37.4969 57.0328Z"
              fill="#C0CD49"/>
        <path d="M37.4969 64.8452C36.6344 64.8452 35.9344 64.1468 35.9344 63.2827V60.1577C35.9344 59.2937 36.6344 58.5952 37.4969 58.5952C38.3594 58.5952 39.0594 59.2937 39.0594 60.1577V63.2827C39.0594 64.1468 38.3594 64.8452 37.4969 64.8452Z"
              fill="#C0CD49"/>
        <path d="M37.4969 72.6577C36.6344 72.6577 35.9344 71.9593 35.9344 71.0952V67.9702C35.9344 67.1062 36.6344 66.4077 37.4969 66.4077C38.3594 66.4077 39.0594 67.1062 39.0594 67.9702V71.0952C39.0594 71.9593 38.3594 72.6577 37.4969 72.6577Z"
              fill="#C0CD49"/>
        <path d="M37.4969 80.4702C36.6344 80.4702 35.9344 79.7718 35.9344 78.9077V75.7827C35.9344 74.9187 36.6344 74.2202 37.4969 74.2202C38.3594 74.2202 39.0594 74.9187 39.0594 75.7827V78.9077C39.0594 79.7718 38.3594 80.4702 37.4969 80.4702Z"
              fill="#C0CD49"/>
    </symbol>

    <symbol id="adv-2" viewBox="0 0 100 100" fill="none" xmlns="http://www.w3.org/2000/svg">
        <path d="M87.4313 39.0343C87.4157 33.2401 85.1051 27.6881 81.0053 23.5936C76.9056 19.4991 71.3506 17.1956 65.5563 17.1875H51.5625V15.4273C52.6662 15.1424 53.671 14.561 54.4681 13.7461C55.2652 12.9313 55.8243 11.914 56.0848 10.8042C56.3454 9.69454 56.2976 8.53469 55.9465 7.45022C55.5954 6.36574 54.9544 5.39792 54.0929 4.65149C53.2314 3.90505 52.1821 3.40842 51.0587 3.21533C49.9353 3.02224 48.7805 3.14004 47.7192 3.55599C46.6579 3.97194 45.7305 4.6702 45.0375 5.57521C44.3444 6.48023 43.9121 7.55753 43.7872 8.69057L42.6451 9.83269L44.8549 12.0423L46.4174 10.4798C46.7104 10.1868 46.875 9.7894 46.875 9.37502C46.875 8.75695 47.0583 8.15276 47.4017 7.63886C47.745 7.12496 48.2331 6.72442 48.8041 6.48789C49.3751 6.25137 50.0035 6.18948 50.6097 6.31006C51.2159 6.43064 51.7727 6.72827 52.2097 7.16531C52.6468 7.60235 52.9444 8.15917 53.065 8.76536C53.1855 9.37155 53.1236 9.99988 52.8871 10.5709C52.6506 11.1419 52.2501 11.63 51.7362 11.9734C51.2223 12.3167 50.6181 12.5 50 12.5C49.5856 12.5 49.1882 12.6646 48.8951 12.9577C48.6021 13.2507 48.4375 13.6481 48.4375 14.0625V17.1875H34.375C28.5754 17.1941 23.0152 19.5009 18.9143 23.6018C14.8134 27.7027 12.5066 33.2629 12.5 39.0625V95.3125C12.5 95.7269 12.6646 96.1243 12.9577 96.4174C13.2507 96.7104 13.6481 96.875 14.0625 96.875H85.9375C86.1428 96.875 86.3462 96.8345 86.5359 96.7559C86.7256 96.6772 86.8979 96.562 87.043 96.4167C87.1881 96.2714 87.3032 96.0989 87.3816 95.9091C87.46 95.7193 87.5002 95.516 87.5 95.3106L87.4313 39.0343ZM15.625 93.75V39.0625C15.6306 34.0914 17.6079 29.3256 21.123 25.8105C24.638 22.2954 29.4039 20.3181 34.375 20.3125H48.4375V23.4375H42.1875C41.7731 23.4375 41.3756 23.6021 41.0826 23.8952L36.8528 28.125H31.25C30.9244 28.125 30.6069 28.2268 30.3419 28.4161L19.4044 36.2286C19.202 36.3731 19.037 36.5639 18.9232 36.785C18.8094 37.0062 18.75 37.2513 18.75 37.5V81.25C18.75 81.6644 18.9146 82.0618 19.2077 82.3549C19.5007 82.6479 19.8981 82.8125 20.3125 82.8125H26.5625V89.0625C26.5625 89.4769 26.7271 89.8743 27.0202 90.1674C27.3132 90.4604 27.7106 90.625 28.125 90.625H71.875C72.2894 90.625 72.6868 90.4604 72.9799 90.1674C73.2729 89.8743 73.4375 89.4769 73.4375 89.0625V82.8125H79.6875C80.1019 82.8125 80.4993 82.6479 80.7924 82.3549C81.0854 82.0618 81.25 81.6644 81.25 81.25V37.5C81.25 37.2513 81.1906 37.0062 81.0768 36.785C80.963 36.5639 80.798 36.3731 80.5956 36.2286L69.6581 28.4161C69.3931 28.2268 69.0756 28.125 68.75 28.125H63.1472L58.9174 23.8952C58.6244 23.6021 58.2269 23.4375 57.8125 23.4375H51.5625V20.3125H65.5563C70.5228 20.3195 75.2842 22.2938 78.7983 25.8033C82.3124 29.3129 84.293 34.0717 84.3063 39.0382L84.3731 93.75H15.625ZM78.125 73.4375H73.4375V76.5625H78.125V79.6875H70.3125V45.3125C70.3125 44.8981 70.1479 44.5007 69.8549 44.2077C69.5618 43.9146 69.1644 43.75 68.75 43.75C68.3356 43.75 67.9382 43.9146 67.6451 44.2077C67.3521 44.5007 67.1875 44.8981 67.1875 45.3125V50H59.375C58.9606 50 58.5632 50.1646 58.2701 50.4577C57.9771 50.7507 57.8125 51.1481 57.8125 51.5625V57.8125C57.8125 58.0697 57.876 58.323 57.9974 58.5498C58.1188 58.7766 58.2943 58.9699 58.5083 59.1126L63.1958 62.2376C63.4525 62.4087 63.754 62.5 64.0625 62.5C64.371 62.5 64.6725 62.4087 64.9292 62.2376L67.1875 60.732V81.25C67.1875 81.6644 67.3521 82.0618 67.6451 82.3549C67.9382 82.6479 68.3356 82.8125 68.75 82.8125H70.3125V87.5H54.6875V39.0625C54.8927 39.0628 55.096 39.0225 55.2856 38.9439C55.4753 38.8654 55.6475 38.7502 55.7924 38.6049L63.1473 31.25H68.2493L78.125 38.3041V73.4375ZM67.1875 56.9763L64.0625 59.0596L60.9375 56.9763V53.125H67.1875V56.9763ZM32.8125 81.25V45.3125C32.8125 44.8981 32.6479 44.5007 32.3549 44.2077C32.0618 43.9146 31.6644 43.75 31.25 43.75C30.8356 43.75 30.4382 43.9146 30.1451 44.2077C29.8521 44.5007 29.6875 44.8981 29.6875 45.3125V73.4375H25V76.5625H29.6875V79.6875H21.875V38.3041L31.7507 31.25H36.8527L44.2076 38.6049C44.3525 38.7502 44.5247 38.8654 44.7144 38.9439C44.904 39.0225 45.1073 39.0628 45.3125 39.0625V87.5H29.6875V82.8125H31.25C31.6644 82.8125 32.0618 82.6479 32.3548 82.3549C32.6479 82.0618 32.8125 81.6644 32.8125 81.25ZM42.1875 27.2097L47.7903 32.8125L45.3125 35.2903L39.7098 29.6875L42.1875 27.2097ZM48.4375 36.5848L50 35.0223L51.5625 36.5848V87.5H48.4375V36.5848ZM54.6875 35.2903L52.2097 32.8125L57.8125 27.2097L60.2902 29.6875L54.6875 35.2903ZM50 30.6028L45.9598 26.5625H54.0402L50 30.6028Z"
              fill="#C0CD49"/>
    </symbol>

    <symbol id="adv-3" viewBox="0 0 100 100" fill="none" xmlns="http://www.w3.org/2000/svg">
        <g clip-path="url(#clip0)">
            <path d="M92.1714 36.8225L83.4016 28.0535L83.6905 26.8402L93.2801 24.0032C94.0086 23.788 94.5093 23.1183 94.5093 22.3586C94.5093 21.5989 94.0086 20.9292 93.2801 20.7139L83.6905 17.877L81.6004 9.09939C81.4161 8.32637 80.7262 7.78144 79.9322 7.78144C79.1382 7.78144 78.4483 8.32637 78.264 9.09939L76.1756 17.877L73.899 18.5505L60.2016 4.85487C57.6695 2.32188 54.3013 0.926758 50.7209 0.926758C47.1388 0.926758 43.7723 2.32188 41.2402 4.85487L9.27083 36.8225C4.04235 42.0502 4.04235 50.5581 9.27083 55.7857L10.8717 57.3866L8.98914 64.0681C8.0009 69.2708 1.95696 78.2165 1.89651 78.3061C1.43433 78.9869 1.51965 79.9006 2.1023 80.4824L21.1177 99.4978C21.4492 99.8292 21.8882 100 22.3302 100C22.6518 100 22.9768 99.9098 23.2614 99.7246L33.4792 93.1109C36.103 91.4122 38.615 89.5365 41.0203 87.5343L41.2398 87.7533C43.7719 90.2863 47.1384 91.6806 50.7205 91.6806C54.3013 91.6806 57.6691 90.2863 60.2012 87.7533L92.1706 55.7857C97.3982 50.5572 97.3982 42.051 92.1714 36.8225ZM78.0998 20.8846C78.6893 20.7105 79.1399 20.2346 79.2822 19.6369L79.9322 16.9046L80.5839 19.6369C80.7262 20.235 81.1768 20.7105 81.7664 20.8846L86.7487 22.3586L81.7664 23.8326C81.1768 24.0067 80.7262 24.4826 80.5839 25.0802L79.9322 27.8126L79.2822 25.0802C79.1399 24.4821 78.6893 24.0067 78.0998 23.8326L73.1174 22.3586L78.0998 20.8846ZM31.615 90.2323L22.563 96.0923L5.5155 79.0448C7.28062 76.3026 11.4544 69.4625 12.3252 64.8535L19.6373 38.8998C19.9237 37.3958 21.2584 36.3625 22.8126 36.5151C23.6049 36.5906 24.3183 36.9722 24.8208 37.5904C25.3048 38.1851 25.5342 38.9268 25.4707 39.6874L22.061 54.4639C21.8903 55.2099 22.2316 55.9786 22.9017 56.3495C23.5667 56.7203 24.4023 56.6041 24.9451 56.0622L49.5659 31.4423C50.5254 30.4836 52.1885 30.4866 53.145 31.4423C53.6222 31.9203 53.8867 32.5561 53.8867 33.2318C53.8867 33.9084 53.6222 34.5442 53.145 35.0223C53.145 35.0223 53.145 35.0227 53.1446 35.0227L35.0308 53.1374C34.3611 53.807 34.3611 54.8926 35.0308 55.5623C35.7005 56.232 36.786 56.232 37.4557 55.5623L60.5742 32.443C61.5624 31.4564 63.1668 31.4564 64.155 32.443C64.6322 32.921 64.8955 33.5568 64.8955 34.2334C64.8955 34.9091 64.6326 35.5449 64.155 36.0229L58.1124 42.0652C58.1115 42.066 58.1102 42.0669 58.1089 42.0677L41.0348 59.1419C40.3651 59.8115 40.3651 60.8971 41.0348 61.5668C41.3697 61.9016 41.8087 62.0693 42.2473 62.0693C42.6859 62.0693 43.1249 61.9016 43.4598 61.5668L60.536 44.4914C61.5444 43.4847 63.1844 43.4851 64.1953 44.4927C65.2037 45.5019 65.2037 47.1449 64.1953 48.1537L59.2717 53.0773L46.2003 66.1479C45.5306 66.8176 45.5306 67.9031 46.2003 68.5728C46.87 69.2425 47.9555 69.2425 48.6252 68.5728L49.544 67.654C49.5449 67.6532 49.5457 67.6532 49.5462 67.6523L61.6966 55.5019C62.6296 54.5681 64.2592 54.5655 65.1952 55.5027C65.6625 55.9692 65.9202 56.5904 65.9202 57.2511C65.9202 57.9118 65.662 58.533 65.1952 59.0004L43.8919 80.304C40.1666 84.0289 36.0366 87.3692 31.615 90.2323ZM89.746 53.3607L57.7767 85.3284C55.8911 87.2131 53.3855 88.2507 50.7209 88.2507C48.0546 88.2507 45.5495 87.2131 43.6651 85.3275L43.6227 85.2851C44.5389 84.4521 45.4418 83.6049 46.3165 82.7298L67.6197 61.4262C68.7353 60.3106 69.3496 58.8284 69.3496 57.252C69.3496 55.6742 68.7348 54.1921 67.6197 53.0786C67.001 52.4587 66.249 52.0291 65.4455 51.7534L66.6199 50.5791C68.9663 48.2326 68.9663 44.4142 66.6199 42.0669C65.9617 41.41 65.1831 40.9569 64.3591 40.6683L66.5796 38.4479C67.705 37.3224 68.3245 35.8253 68.3245 34.2334C68.3245 32.6406 67.705 31.1435 66.5796 30.0172C64.2498 27.6917 60.4717 27.696 58.1488 30.018L56.9462 31.2206C56.659 30.4172 56.2122 29.6592 55.57 29.0173C53.3208 26.7656 49.3935 26.7622 47.1409 29.0173L26.7492 49.409L28.8393 40.3511C28.8544 40.2859 28.8646 40.2203 28.8728 40.1551C29.0619 38.4427 28.5697 36.7638 27.4828 35.4266C26.396 34.0902 24.8534 33.2636 23.1384 33.1002C19.829 32.7885 16.8865 35.0042 16.3022 38.1143L11.9389 53.6025L11.6966 53.3603C7.80625 49.4691 7.80625 43.1383 11.6966 39.2471L43.666 7.27939C45.5503 5.39465 48.0554 4.35624 50.7218 4.35624C53.3864 4.35624 55.8919 5.39465 57.7775 7.27939L70.1565 19.6571L66.5851 20.7135C65.8567 20.9287 65.3559 21.5984 65.3559 22.3582C65.3559 23.1179 65.8567 23.7876 66.5851 24.0028L76.1765 26.8398L78.2648 35.6174C78.4492 36.3904 79.139 36.9353 79.9331 36.9353C80.7271 36.9353 81.4169 36.3904 81.6013 35.6174L82.4695 31.9705L89.7473 39.2475C93.6351 43.1387 93.6351 49.4695 89.746 53.3607Z"
                  fill="#C0CD49"/>
            <path d="M11.2769 6.85983C12.2248 6.85983 12.9919 6.09196 12.9919 5.14488V1.71496C12.9919 0.767873 12.2248 0 11.2769 0C10.329 0 9.56195 0.767873 9.56195 1.71496V5.14488C9.56195 6.09196 10.329 6.85983 11.2769 6.85983Z"
                  fill="#C0CD49"/>
            <path d="M11.2769 10.29C10.329 10.29 9.56195 11.0579 9.56195 12.005V15.4349C9.56195 16.382 10.329 17.1499 11.2769 17.1499C12.2248 17.1499 12.9919 16.382 12.9919 15.4349V12.005C12.9919 11.0579 12.2248 10.29 11.2769 10.29Z"
                  fill="#C0CD49"/>
            <path d="M4.41705 10.2903H7.84696C8.79491 10.2903 9.56192 9.52239 9.56192 8.57531C9.56192 7.62822 8.79491 6.86035 7.84696 6.86035H4.41705C3.4691 6.86035 2.70209 7.62822 2.70209 8.57531C2.70209 9.52239 3.4691 10.2903 4.41705 10.2903Z"
                  fill="#C0CD49"/>
            <path d="M14.7068 10.2903H18.1367C19.0847 10.2903 19.8517 9.52239 19.8517 8.57531C19.8517 7.62822 19.0847 6.86035 18.1367 6.86035H14.7068C13.7589 6.86035 12.9919 7.62822 12.9919 8.57531C12.9919 9.52239 13.7589 10.2903 14.7068 10.2903Z"
                  fill="#C0CD49"/>
            <path d="M84.1626 84.0332C80.8532 84.0332 78.1602 86.7261 78.1602 90.0355C78.1602 93.345 80.8532 96.0379 84.1626 96.0379C87.472 96.0379 90.1649 93.345 90.1649 90.0355C90.1649 86.7261 87.472 84.0332 84.1626 84.0332ZM84.1626 92.608C82.7439 92.608 81.5902 91.4542 81.5902 90.0355C81.5902 88.6169 82.7439 87.4631 84.1626 87.4631C85.5813 87.4631 86.735 88.6169 86.735 90.0355C86.735 91.4542 85.5809 92.608 84.1626 92.608Z"
                  fill="#C0CD49"/>
            <path d="M97.1654 72.9351C96.1527 72.9351 95.3321 73.7561 95.3321 74.7683C95.3321 75.781 96.1527 76.6021 97.1654 76.6021C98.1781 76.6021 98.9987 75.781 98.9987 74.7683C98.9991 73.7557 98.1781 72.9351 97.1654 72.9351Z"
                  fill="#C0CD49"/>
        </g>
        <defs>
            <clipPath id="clip0">
                <rect width="100" height="100" fill="white"/>
            </clipPath>
        </defs>
    </symbol>

    <symbol id="create-photo" viewBox="0 0 80 80" fill="none" xmlns="http://www.w3.org/2000/svg">
        <path d="M40 58.9062C46.9899 58.9062 52.6562 53.2399 52.6562 46.25C52.6562 39.2601 46.9899 33.5938 40 33.5938C33.0101 33.5938 27.3438 39.2601 27.3438 46.25C27.3438 53.2399 33.0101 58.9062 40 58.9062Z"
              fill="#C0CD49"/>
        <path d="M58.4839 14.2188L57.675 10.1745C57.2385 7.99109 55.3053 6.40625 53.0786 6.40625H26.9214C24.6949 6.40625 22.7616 7.99109 22.325 10.1745L21.5161 14.2188H58.4839Z"
              fill="#C0CD49"/>
        <path d="M72.9688 18.9062C67.4652 18.9062 9.60687 18.9062 7.03125 18.9062C3.15422 18.9062 0 22.0605 0 25.9375V66.5625C0 70.4395 3.15422 73.5938 7.03125 73.5938H72.9688C76.8458 73.5938 80 70.4395 80 66.5625V25.9375C80 22.0605 76.8458 18.9062 72.9688 18.9062ZM20 33.5938H12.5C11.2056 33.5938 10.1562 32.5444 10.1562 31.25C10.1562 29.9556 11.2056 28.9062 12.5 28.9062H20C21.2944 28.9062 22.3438 29.9556 22.3438 31.25C22.3438 32.5444 21.2944 33.5938 20 33.5938ZM40 63.5938C30.4366 63.5938 22.6562 55.8134 22.6562 46.25C22.6562 36.6866 30.4366 28.9062 40 28.9062C49.5634 28.9062 57.3438 36.6866 57.3438 46.25C57.3438 55.8134 49.5634 63.5938 40 63.5938Z"
              fill="#C0CD49"/>
    </symbol>

    <symbol id="upload-whatsapp" viewBox="0 0 80 80" fill="none" xmlns="http://www.w3.org/2000/svg">
        <path d="M40.01 0H39.99C17.935 0 0 17.94 0 40C0 48.75 2.82 56.86 7.615 63.445L2.63 78.305L18.005 73.39C24.33 77.58 31.875 80 40.01 80C62.065 80 80 62.055 80 40C80 17.945 62.065 0 40.01 0Z"
              fill="#C0CD49"/>
        <path d="M63.285 56.4852C62.32 59.2102 58.49 61.4702 55.435 62.1302C53.345 62.5752 50.615 62.9302 41.425 59.1202C29.67 54.2502 22.1 42.3052 21.51 41.5302C20.945 40.7552 16.76 35.2052 16.76 29.4652C16.76 23.7252 19.675 20.9302 20.85 19.7302C21.815 18.7452 23.41 18.2952 24.94 18.2952C25.435 18.2952 25.88 18.3202 26.28 18.3402C27.455 18.3902 28.045 18.4602 28.82 20.3152C29.785 22.6402 32.135 28.3802 32.415 28.9702C32.7 29.5602 32.985 30.3602 32.585 31.1352C32.21 31.9352 31.88 32.2902 31.29 32.9702C30.7 33.6502 30.14 34.1702 29.55 34.9002C29.01 35.5352 28.4 36.2152 29.08 37.3902C29.76 38.5402 32.11 42.3752 35.57 45.4552C40.035 49.4302 43.655 50.7002 44.95 51.2402C45.915 51.6402 47.065 51.5452 47.77 50.7952C48.665 49.8302 49.77 48.2302 50.895 46.6552C51.695 45.5252 52.705 45.3852 53.765 45.7852C54.845 46.1602 60.56 48.9852 61.735 49.5702C62.91 50.1602 63.685 50.4402 63.97 50.9352C64.25 51.4302 64.25 53.7552 63.285 56.4852Z"
              fill="#4B3A5E"/>
    </symbol>

    <symbol id="out-price" viewBox="0 0 80 80" fill="none" xmlns="http://www.w3.org/2000/svg">
        <path d="M40 14.0625C25.6984 14.0625 14.0625 25.6984 14.0625 40C14.0625 54.3016 25.6984 65.9375 40 65.9375C54.3016 65.9375 65.9375 54.3016 65.9375 40C65.9375 25.6984 54.3016 14.0625 40 14.0625ZM47.0312 42.3438H37.6562V47.0297L42.3438 47.0312V51.7188H37.6562V56.4062H32.9688V51.7188H28.2812V47.0297H32.9688V42.3438H28.2812V37.6547H32.9688V23.5922H47.0312C52.2 23.5922 56.4062 27.8 56.4062 32.9688C56.4062 38.1375 52.2 42.3438 47.0312 42.3438ZM47.0312 28.2812H37.6562V37.6562H47.0312C49.6156 37.6562 51.7188 35.5531 51.7188 32.9688C51.7188 30.3844 49.6156 28.2812 47.0312 28.2812ZM40 14.0625C25.6984 14.0625 14.0625 25.6984 14.0625 40C14.0625 54.3016 25.6984 65.9375 40 65.9375C54.3016 65.9375 65.9375 54.3016 65.9375 40C65.9375 25.6984 54.3016 14.0625 40 14.0625ZM47.0312 42.3438H37.6562V47.0297L42.3438 47.0312V51.7188H37.6562V56.4062H32.9688V51.7188H28.2812V47.0297H32.9688V42.3438H28.2812V37.6547H32.9688V23.5922H47.0312C52.2 23.5922 56.4062 27.8 56.4062 32.9688C56.4062 38.1375 52.2 42.3438 47.0312 42.3438ZM47.0312 28.2812H37.6562V37.6562H47.0312C49.6156 37.6562 51.7188 35.5531 51.7188 32.9688C51.7188 30.3844 49.6156 28.2812 47.0312 28.2812ZM40 0C17.8906 0 0 17.8938 0 40C0 62.1094 17.8938 80 40 80C62.1094 80 80 62.1063 80 40C80 17.8906 62.1063 0 40 0ZM40 70.625C23.1141 70.625 9.375 56.8859 9.375 40C9.375 23.1141 23.1141 9.375 40 9.375C56.8859 9.375 70.625 23.1141 70.625 40C70.625 56.8859 56.8859 70.625 40 70.625ZM40 14.0625C25.6984 14.0625 14.0625 25.6984 14.0625 40C14.0625 54.3016 25.6984 65.9375 40 65.9375C54.3016 65.9375 65.9375 54.3016 65.9375 40C65.9375 25.6984 54.3016 14.0625 40 14.0625ZM47.0312 42.3438H37.6562V47.0297H42.3438V51.7188H37.6562V56.4062H32.9688V51.7188H28.2812V47.0297H32.9688V42.3438H28.2812V37.6547H32.9688V23.5922H47.0312C52.2 23.5922 56.4062 27.8 56.4062 32.9688C56.4062 38.1375 52.2 42.3438 47.0312 42.3438ZM47.0312 28.2812H37.6562V37.6562H47.0312C49.6156 37.6562 51.7188 35.5531 51.7188 32.9688C51.7188 30.3844 49.6156 28.2812 47.0312 28.2812Z"
              fill="#C0CD49"/>
    </symbol>

    <symbol id="close" viewBox="0 0 22 21" fill="none" xmlns="http://www.w3.org/2000/svg">
        <line x1="21.3536" y1="0.353553" x2="1.35355" y2="20.3536" />
        <line y1="-0.5" x2="28.2843" y2="-0.5" transform="matrix(0.707107 0.707107 0.707107 -0.707107 1 0)"
              />
    </symbol>
</svg>

