<?xml version="1.0" standalone="no"?>
<!DOCTYPE svg PUBLIC "-//W3C//DTD SVG 1.1//EN" "http://www.w3.org/Graphics/SVG/1.1/DTD/svg11.dtd" >
<svg xmlns="http://www.w3.org/2000/svg" xmlns:xlink="http://www.w3.org/1999/xlink" version="1.1">
<metadata>
Created by FontForge 20170731 at Wed Mar 17 12:42:07 2021
 By Aleksey,,,
Copyright (c) 2015 by Fontfabric LLC. All rights reserved.
</metadata>
<defs>
<font id="MullerBlackItalic" horiz-adv-x="1216" >
  <font-face 
    font-family="Muller Black Italic"
    font-weight="900"
    font-style="italic"
    font-stretch="normal"
    units-per-em="2048"
    panose-1="0 0 0 0 0 0 0 0 0 0"
    ascent="1597"
    descent="-451"
    x-height="983"
    cap-height="1434"
    bbox="-440 -588 2836 2032"
    underline-thickness="102"
    underline-position="-358"
    slope="-9"
    unicode-range="U+0020-25CA"
  />
<missing-glyph horiz-adv-x="376" 
 />
    <glyph glyph-name="f_f" unicode="ff" horiz-adv-x="1574" 
d="M1661 1139q-52 20 -109 20q-125 0 -143 -100l-14 -76h215l-54 -344h-215l-102 -639h-430l100 639h-282l-103 -639h-430l101 639h-140l56 344h139l10 61q13 82 47.5 149.5t85 114.5t115.5 79.5t137.5 47.5t151.5 15q177 0 315 -66q123 123 354 123q141 0 246 -41zM680 983
h285l12 82q1 3 3 17t3 20q-50 22 -129 22q-73 0 -118 -34.5t-54 -90.5z" />
    <glyph glyph-name="f_f_i" unicode="ffi" horiz-adv-x="2111" 
d="M524 0h-430l101 639h-140l56 344h139l10 61q13 82 47.5 149.5t85 114.5t115.5 79.5t137.5 47.5t151.5 15q194 0 340 -80q161 137 430 137q216 0 399 -71l-53 -328q-143 51 -277 51q-103 0 -163.5 -38.5t-71.5 -108.5l-6 -29h694l-156 -983h-432l103 639h-263l-102 -639
h-430l100 639h-282zM682 999l-2 -16h285l8 57q1 15 12 62q-53 22 -131 22q-73 0 -118 -34.5t-54 -90.5z" />
    <glyph glyph-name="f_f_l" unicode="ffl" horiz-adv-x="2140" 
d="M1513 1497q169 0 320 -53l362 39l-235 -1483h-432l178 1130q-65 20 -113 17q-76 0 -130 -36.5t-64 -102.5l-4 -25h184l-55 -344h-183l-102 -639h-430l100 639h-282l-103 -639h-430l101 639h-140l56 344h139l10 61q16 102 65 181t121 127.5t158.5 73t183.5 24.5
q195 0 351 -80q144 127 374 127zM965 983l8 57q3 25 12 62q-50 22 -131 22q-73 0 -118 -34.5t-54 -90.5l-2 -16h285z" />
    <glyph glyph-name=".notdef" horiz-adv-x="376" 
 />
    <glyph glyph-name=".null" horiz-adv-x="0" 
 />
    <glyph glyph-name="nonmarkingreturn" horiz-adv-x="682" 
 />
    <glyph glyph-name="space" unicode=" " horiz-adv-x="376" 
 />
    <glyph glyph-name="exclam" unicode="!" horiz-adv-x="634" 
d="M492 563h-363l90 871h461zM489 170q-16 -102 -85.5 -152.5t-165.5 -50.5q-110 0 -174.5 68t-43.5 192q16 101 85.5 152t164.5 51q110 0 174 -68.5t45 -191.5z" />
    <glyph glyph-name="quotedbl" unicode="&#x22;" horiz-adv-x="995" 
d="M920 887h-306l88 547h375zM432 887h-305l88 547h375z" />
    <glyph glyph-name="numbersign" unicode="#" horiz-adv-x="1497" 
d="M410 0h-383l102 258h-123l47 291h193l114 297h-157l47 291h227l101 258h383l-101 -258h162l100 258h383l-102 -258h121l-47 -291h-191l-115 -297h158l-47 -291h-227l-101 -258h-383l101 258h-160zM743 846l-114 -297h162l114 297h-162z" />
    <glyph glyph-name="dollar" unicode="$" horiz-adv-x="1302" 
d="M674 -244h-324l35 224q-212 29 -383 129l66 409q205 -162 475 -162q187 0 196 68q4 24 -16.5 44.5t-58 36.5t-86.5 32.5t-103 37.5t-107.5 46t-99.5 63t-79 84.5t-46.5 114t-1.5 147.5q17 108 86 191t166.5 130t216.5 64l37 221h324l-35 -227q193 -27 338 -109l-62 -395
q-94 68 -208 101.5t-226 33.5q-154 0 -162 -59q-4 -28 31 -51t93 -43t128 -44t138 -62t121 -88t79 -130t11 -180q-56 -361 -508 -410z" />
    <glyph glyph-name="percent" unicode="%" horiz-adv-x="1978" 
d="M590 -123h-266l1103 1679h267zM948 1049q-14 -90 -56.5 -160.5t-103.5 -113.5t-134.5 -65t-155.5 -22q-86 0 -159 26.5t-126.5 77t-76.5 132t-7 182.5q28 177 154 268.5t299 91.5q84 0 156.5 -26.5t125.5 -77t76.5 -131.5t7.5 -182zM436 1067q-4 -40 14 -68t68 -28
q58 0 88 34t33 82q4 40 -14 68.5t-68 28.5q-56 0 -86 -34.5t-35 -82.5zM1888 328q-20 -120 -88 -203t-160.5 -120.5t-203.5 -37.5q-69 0 -130 16.5t-111 50t-82.5 83.5t-45 117t1.5 151q28 177 153.5 270t297.5 93q87 0 160 -27t125.5 -78t75.5 -132.5t7 -182.5zM1374 348
q-4 -40 14 -69t68 -29q57 0 86.5 34.5t34.5 82.5q9 98 -82 98q-56 0 -87 -35.5t-34 -81.5z" />
    <glyph glyph-name="ampersand" unicode="&#x26;" horiz-adv-x="1521" 
d="M1120 727h373q-13 -123 -81.5 -246t-178.5 -227l213 -254h-412l-63 74q-225 -107 -463 -107q-249 0 -381.5 113t-101.5 303q11 68 43.5 127.5t83 106t102 81.5t117.5 68q-140 177 -113 326q26 169 181 271.5t366 102.5q150 0 261.5 -54t161.5 -146t29 -203
q-12 -64 -48.5 -122.5t-92 -106.5t-111 -85t-124.5 -73l145 -176q83 107 94 227zM784 1178q-65 0 -106 -34.5t-47 -86.5q-8 -60 59 -152q89 38 140 76t61 90q7 40 -22 73.5t-85 33.5zM438 389q-5 -48 32 -79t118 -31q82 0 176 32l-193 224q-123 -65 -133 -146z" />
    <glyph glyph-name="quotesingle" unicode="'" horiz-adv-x="507" 
d="M432 887h-305l88 547h375z" />
    <glyph glyph-name="parenleft" unicode="(" horiz-adv-x="710" 
d="M539 1663h319q-142 -244 -236.5 -470t-134.5 -474q-27 -165 -24 -339t25.5 -327t60.5 -284h-299q-118 211 -166 466.5t-8 509.5q38 237 162.5 483.5t300.5 434.5z" />
    <glyph glyph-name="parenright" unicode=")" horiz-adv-x="714" 
d="M201 1665h301q117 -209 165 -469.5t9 -515.5q-38 -236 -162 -477.5t-301 -431.5h-322q302 514 371 954q36 263 18 501t-79 439z" />
    <glyph glyph-name="asterisk" unicode="*" horiz-adv-x="1093" 
d="M590 793l-156 -246l-287 211l193 153l-231 45l190 357l193 -125l2 246h383l-82 -246l221 125l82 -357l-244 -45l147 -153l-333 -211z" />
    <glyph glyph-name="plus" unicode="+" horiz-adv-x="1132" 
d="M786 891h336l-55 -344h-336l-53 -336h-344l53 336h-336l55 344h336l54 334h344z" />
    <glyph glyph-name="comma" unicode="," horiz-adv-x="595" 
d="M168 -293h-328l244 629h420z" />
    <glyph glyph-name="hyphen" unicode="-" horiz-adv-x="978" 
d="M100 659h799l-53 -333h-799z" />
    <glyph glyph-name="period" unicode="." horiz-adv-x="577" 
d="M463 170q-16 -102 -86 -152.5t-166 -50.5q-110 0 -174 68t-43 192q16 101 85.5 152t164.5 51q110 0 174 -68.5t45 -191.5z" />
    <glyph glyph-name="slash" unicode="/" horiz-adv-x="1036" 
d="M238 -125h-312l914 1684h311z" />
    <glyph glyph-name="zero" unicode="0" horiz-adv-x="1441" 
d="M84 725q18 115 56 217t101 191.5t146.5 153.5t197.5 101t249 37q112 0 204.5 -28t157 -78t112 -120t69 -154t27 -179.5t-12.5 -197.5q-23 -146 -78.5 -269t-145 -221.5t-224.5 -154.5t-302 -56q-134 0 -240.5 40t-173 110t-108 166t-47 207.5t11.5 234.5zM926 696
q28 166 -4 244t-125 78q-99 0 -160.5 -76t-91.5 -246q-28 -166 4.5 -243.5t126.5 -77.5q99 0 160 75.5t90 245.5z" />
    <glyph glyph-name="one" unicode="1" horiz-adv-x="1028" 
d="M561 1393h344l-160 -1006h216l-62 -387h-909l61 387h240l88 559l-238 -88l64 402z" />
    <glyph glyph-name="two" unicode="2" horiz-adv-x="1273" 
d="M225 1282q254 143 525 143q109 0 203 -28t167.5 -83.5t107.5 -150t15 -217.5q-11 -68 -35.5 -121.5t-66 -97.5t-85 -76t-110.5 -73q-27 -16 -78.5 -45.5t-77.5 -45.5t-59 -37t-50 -36t-22 -27h498l-61 -385h-1119l33 205q14 86 49 160.5t75 125t105 102t112 81t124 72.5
q31 17 74 39.5t67.5 35.5t54 30.5t45.5 31.5t28.5 31.5t15.5 35.5q4 34 -23 53t-80 19q-105 0 -238 -48.5t-261 -135.5z" />
    <glyph glyph-name="three" unicode="3" horiz-adv-x="1236" 
d="M1182 997q-14 -95 -80 -168t-184 -110q113 -29 178.5 -122t42.5 -241q-14 -86 -55.5 -153.5t-101 -111t-138.5 -72t-162.5 -40.5t-177.5 -12q-281 0 -508 99l61 391q196 -103 428 -103q94 2 156 27.5t70 77.5q5 35 -18.5 54t-78.5 19h-266l58 351h190q124 0 137 67
q6 40 -29 62t-106 22q-105 0 -221.5 -34t-220.5 -95l63 406q208 114 475 114q84 0 160.5 -15.5t143 -49.5t112 -83t66 -121t6.5 -159z" />
    <glyph glyph-name="four" unicode="4" horiz-adv-x="1388" 
d="M817 1393h467l-133 -840h172l-57 -367h-174l-29 -186h-428l31 186h-693l60 379zM723 553l49 305l-291 -305h242z" />
    <glyph glyph-name="five" unicode="5" horiz-adv-x="1232" 
d="M293 1393h944l-61 -385l-547 2l-29 -140q64 9 115 9q74 0 140.5 -15.5t127 -50.5t101 -87.5t57.5 -132t2 -177.5q-16 -101 -63.5 -179.5t-113 -128.5t-152 -82.5t-175.5 -45.5t-188 -13q-125 0 -248.5 27t-214.5 72l57 366q70 -41 163 -63.5t187 -22.5q268 0 287 129
q9 58 -49 90.5t-172 32.5q-185 0 -342 -45z" />
    <glyph glyph-name="six" unicode="6" horiz-adv-x="1370" 
d="M573 844q142 65 301 65q89 0 170.5 -30.5t145 -87.5t93 -150t11.5 -207q-19 -120 -76.5 -211.5t-143.5 -146.5t-188 -82t-218 -27q-227 0 -371 93t-196 263t-15 406q23 146 80.5 264.5t136 197.5t177.5 133t202.5 77.5t212.5 23.5q232 0 420 -98l-55 -348
q-139 84 -299 84q-286 0 -388 -219zM666 313q72 0 124.5 34.5t63.5 105.5q9 60 -28.5 93.5t-102.5 33.5q-97 0 -209 -64q1 -116 42 -159.5t110 -43.5z" />
    <glyph glyph-name="seven" unicode="7" horiz-adv-x="1212" 
d="M170 1393h1137l-47 -303l-691 -1090h-518l639 1008h-581z" />
    <glyph glyph-name="eight" unicode="8" horiz-adv-x="1363" 
d="M1268 365q-10 -64 -40 -121t-85 -108.5t-130 -88.5t-181.5 -58.5t-233.5 -21.5q-128 0 -230.5 24.5t-169.5 66.5t-109.5 98.5t-56.5 120t-3 131.5q16 101 86.5 185.5t165.5 135.5q-132 122 -101 309q12 72 54.5 138.5t115 123.5t188.5 91t259 34q135 0 243 -38t171 -100
t91 -137.5t15 -152.5q-16 -92 -67.5 -152.5t-147.5 -119.5q36 -23 63.5 -46t53 -55t37 -68t18 -85t-5.5 -106zM483 440q-5 -52 36 -91.5t120 -39.5q71 0 116.5 27.5t53.5 64.5q6 25 0 44.5t-26 34t-40 24t-55 22.5q-39 16 -121 52q-75 -63 -84 -138zM707 879
q16 -7 51.5 -19.5t48.5 -17.5q75 62 84 133q3 43 -32 75.5t-103 32.5q-62 0 -103.5 -24.5t-48.5 -65.5q-6 -39 21 -65.5t82 -48.5z" />
    <glyph glyph-name="nine" unicode="9" horiz-adv-x="1368" 
d="M106 958q19 120 78 211.5t145 146.5t188.5 82t217.5 27q335 0 486.5 -203t93.5 -558q-23 -147 -77.5 -265t-129.5 -197.5t-171 -133t-200 -77.5t-219 -24q-249 0 -436 96l57 351q136 -84 307 -84q147 0 240.5 48.5t144.5 172.5q-138 -66 -294 -66q-96 0 -180 30
t-148 86.5t-92.5 149t-10.5 207.5zM727 1077q-70 0 -118.5 -34.5t-57.5 -98.5q-10 -62 29.5 -97.5t107.5 -35.5q105 0 203 59q-5 207 -164 207z" />
    <glyph glyph-name="colon" unicode=":" horiz-adv-x="602" 
d="M553 733q-14 -99 -81.5 -147.5t-160.5 -48.5q-105 0 -166.5 65.5t-42.5 185.5q14 97 81 146t159 49q51 0 93.5 -16t73 -46.5t43 -79t1.5 -108.5zM463 162q-16 -97 -83.5 -146t-160.5 -49q-105 0 -166.5 66t-42.5 186q16 97 83.5 146t158.5 49q106 0 168 -66t43 -186z" />
    <glyph glyph-name="semicolon" unicode=";" horiz-adv-x="628" 
d="M178 -293h-328l244 629h420zM590 745q-16 -103 -86 -153.5t-166 -50.5q-109 0 -173.5 68.5t-45.5 191.5q16 102 86 152.5t166 50.5q109 0 173.5 -68t45.5 -191z" />
    <glyph glyph-name="less" unicode="&#x3c;" horiz-adv-x="1048" 
d="M936 598l-59 -373l-828 277l68 430l915 274l-59 -381l-537 -118z" />
    <glyph glyph-name="equal" unicode="=" horiz-adv-x="1282" 
d="M1186 782h-1030l53 332h1028zM1112 319h-1030l53 332h1028z" />
    <glyph glyph-name="greater" unicode="&#x3e;" horiz-adv-x="1046" 
d="M969 502l-916 -279l62 383l538 121l-501 113l59 368l825 -276z" />
    <glyph glyph-name="question" unicode="?" horiz-adv-x="1040" 
d="M643 526h-397q11 73 48 138.5t82.5 111t90 84t77.5 73t38 62.5q7 37 -19.5 53.5t-81.5 16.5q-78 0 -175.5 -30t-176.5 -70l66 415q193 86 403 86q78 0 148 -11.5t136 -41t111 -73.5t65.5 -115t6.5 -160q-10 -61 -44 -121t-78 -105t-95 -91t-94 -81t-74 -72.5t-37 -68.5z
M631 170q-16 -102 -86 -152.5t-166 -50.5q-110 0 -174 68t-43 192q16 101 85.5 152t164.5 51q110 0 174 -68.5t45 -191.5z" />
    <glyph glyph-name="at" unicode="@" horiz-adv-x="2136" 
d="M43 520q23 147 85.5 285t165.5 258t235.5 210t305 141.5t363.5 51.5q190 0 346.5 -56t259 -149t168 -212.5t86.5 -247.5t2 -254q-42 -263 -191 -398t-370 -135q-134 0 -220 52.5t-118 132.5q-100 -131 -274 -131q-78 0 -141 27.5t-100.5 72.5t-63 103.5t-28 121
t4.5 123.5q11 69 41 135t78.5 125t123 95t163.5 36q164 0 252 -135l18 111h311l-76 -484q-17 -104 66 -104q41 0 71.5 21t50 62t31.5 85.5t23 107.5q9 45 5.5 93.5t-11.5 96.5t-30 95t-51 89t-73 77.5t-96.5 61.5t-121.5 40.5t-148 14.5q-158 0 -297 -51t-238.5 -139
t-165 -204.5t-86.5 -248.5q-21 -133 2.5 -242.5t82 -183.5t147 -125t193 -74t223.5 -23q233 0 460 68l-45 -330q-187 -67 -440 -67q-172 0 -329 39t-290 121.5t-224 199t-129 282t-7 359.5zM1174 578q-9 29 -34.5 46t-60.5 17q-72 0 -114.5 -48.5t-51.5 -111.5
q-9 -55 15 -100t84 -45q41 0 76.5 19.5t56.5 50.5z" />
    <glyph glyph-name="A" unicode="A" horiz-adv-x="1566" 
d="M1479 0h-461l-33 190h-506l-92 -190h-487l762 1434h509zM795 846l-154 -314h289l-51 312q-15 103 -15 184q-35 -113 -69 -182z" />
    <glyph glyph-name="B" unicode="B" horiz-adv-x="1429" 
d="M240 1434h698q154 0 264 -42t165.5 -132t35.5 -218q-16 -103 -75 -174t-175 -114q113 -37 169 -132.5t34 -238.5q-14 -91 -55.5 -159t-99.5 -110t-138 -68.5t-161.5 -36t-180.5 -9.5h-709zM901 467q11 54 -19.5 84.5t-97.5 30.5h-206l-37 -234h190q69 0 114.5 30t55.5 89
zM942 981q8 45 -17 74.5t-85 29.5h-183l-34 -211l168 -2q60 0 101 30.5t50 78.5z" />
    <glyph glyph-name="C" unicode="C" horiz-adv-x="1320" 
d="M70 739q24 150 89.5 274.5t154.5 207t198.5 139t219.5 81.5t220 25q239 0 418 -98l-63 -399q-48 39 -128.5 63.5t-168.5 24.5q-78 0 -150 -18.5t-137.5 -57t-112 -108t-61.5 -162.5q-13 -79 8 -143t66.5 -103.5t106 -60.5t128.5 -21q214 0 383 102l-70 -438
q-175 -80 -405 -80q-121 0 -232 28t-207.5 89.5t-162 150t-92 218.5t-2.5 286z" />
    <glyph glyph-name="D" unicode="D" horiz-adv-x="1521" 
d="M240 1434h606q182 0 318 -55.5t213.5 -155t105.5 -235.5t2 -300q-25 -155 -87.5 -279t-163.5 -216.5t-249.5 -142.5t-335.5 -50h-637zM1008 733q51 303 -213 303h-146l-100 -639h123q286 0 336 336z" />
    <glyph glyph-name="E" unicode="E" horiz-adv-x="1271" 
d="M240 1434h1085l-59 -373h-615l-24 -166h540l-55 -348h-541l-26 -170h624l-59 -377h-1098z" />
    <glyph glyph-name="F" unicode="F" horiz-adv-x="1230" 
d="M240 1434h1063l-66 -414h-590l-29 -176h533l-66 -402h-530l-70 -442h-473z" />
    <glyph glyph-name="G" unicode="G" horiz-adv-x="1417" 
d="M72 745q24 151 89.5 274.5t153.5 205t198 137t221 80t224 24.5q267 0 459 -92l-63 -403q-122 84 -334 84q-82 0 -156.5 -20t-140.5 -60.5t-111.5 -111t-60.5 -163.5q-8 -63 -5 -110.5t22 -82t42 -57.5t55 -36.5t62 -19t61 -5.5q43 0 76 10l66 402h442l-119 -744
q-206 -90 -469 -90q-127 0 -242.5 30t-212.5 93t-162.5 153t-92 219.5t-2.5 282.5z" />
    <glyph glyph-name="H" unicode="H" horiz-adv-x="1548" 
d="M1102 1434h471l-227 -1434h-472l80 510h-389l-80 -510h-473l228 1434h473l-82 -510h391z" />
    <glyph glyph-name="I" unicode="I" horiz-adv-x="688" 
d="M240 1434h473l-228 -1434h-473z" />
    <glyph glyph-name="J" unicode="J" horiz-adv-x="1058" 
d="M293 1434h803l-150 -949q-19 -118 -62.5 -208.5t-101 -147t-134.5 -92t-155.5 -49t-170.5 -13.5q-112 0 -213.5 18.5t-165.5 49.5l63 401q103 -41 227 -41q227 0 252 166l72 451h-328z" />
    <glyph glyph-name="K" unicode="K" horiz-adv-x="1490" 
d="M1118 1434h529l-555 -725l323 -709h-497l-226 512h-127l-80 -512h-473l228 1434h473l-82 -508h125z" />
    <glyph glyph-name="L" unicode="L" horiz-adv-x="1214" 
d="M240 1434h473l-162 -1020h614l-67 -414h-1086z" />
    <glyph glyph-name="M" unicode="M" horiz-adv-x="1855" 
d="M1430 1434h450l-227 -1434h-461l106 666l-278 -363h-268l-170 365l-109 -668h-461l228 1434h405l297 -639z" />
    <glyph glyph-name="N" unicode="N" horiz-adv-x="1560" 
d="M485 0h-473l228 1434h356l424 -691q3 125 22 242l70 449h473l-227 -1434h-357l-421 688q0 -82 -21 -233z" />
    <glyph glyph-name="O" unicode="O" horiz-adv-x="1648" 
d="M1616 688q-23 -151 -92 -280.5t-177 -228.5t-263.5 -155.5t-338.5 -56.5q-185 0 -327.5 61.5t-225 168t-114.5 247.5t-6 301q24 151 93 280.5t176.5 228.5t262.5 155.5t338 56.5q122 0 227.5 -28t184 -78.5t138.5 -122t91 -158t42 -185.5t-9 -206zM551 692
q-17 -138 43.5 -217.5t189.5 -79.5q146 0 241 93t114 253q19 138 -42 217.5t-192 79.5q-144 0 -238 -92.5t-116 -253.5z" />
    <glyph glyph-name="P" unicode="P" horiz-adv-x="1409" 
d="M240 1434h616q89 0 166 -12.5t148 -39.5t122 -70.5t87.5 -105.5t45 -143.5t-5.5 -185.5q-22 -143 -80.5 -242t-152 -155t-207.5 -80.5t-264 -24.5h-170l-60 -375h-473zM958 909q11 68 -29 101.5t-116 33.5h-162l-45 -280h146q184 0 206 145z" />
    <glyph glyph-name="Q" unicode="Q" horiz-adv-x="1648" 
d="M1528 133l-303 -239l-119 137q-165 -64 -361 -64q-185 0 -327.5 61.5t-225 168t-114.5 247.5t-6 301q24 151 93 280.5t176.5 228.5t262.5 155.5t338 56.5q122 0 227.5 -28t184 -78.5t138.5 -122t91 -158t42 -185.5t-9 -206q-39 -250 -195 -432zM541 692
q-17 -144 48.5 -225.5t196.5 -81.5q29 0 43 2l-100 115l264 233l117 -139q32 70 41 145q17 144 -49.5 226t-198.5 82q-146 0 -244.5 -95.5t-117.5 -261.5z" />
    <glyph glyph-name="R" unicode="R" horiz-adv-x="1492" 
d="M485 0h-473l228 1434h655q90 0 172 -16.5t158 -56t127.5 -98.5t74.5 -152.5t5 -209.5q-45 -290 -306 -407l281 -494h-500l-221 424h-135zM653 1049l-43 -271h172q70 0 120.5 39t60.5 103q8 57 -24.5 93t-96.5 36h-189z" />
    <glyph glyph-name="S" unicode="S" horiz-adv-x="1294" 
d="M141 1061q16 99 73 178t141 127.5t185 74t210 25.5q149 0 285.5 -33.5t238.5 -91.5l-62 -395q-94 64 -208.5 97.5t-223.5 31.5q-156 0 -162 -65q-2 -24 25.5 -46.5t74 -39.5t105.5 -41t120 -50t116.5 -67t96 -90t58 -123t3.5 -162q-17 -99 -60 -174t-102.5 -121.5
t-140.5 -76t-165 -41t-184 -11.5q-330 0 -561 142l66 409q211 -156 473 -156q184 0 194 66q4 26 -16.5 48t-58 39.5t-86.5 35.5t-103 40t-107.5 49t-99.5 66t-78.5 87t-45.5 117t-1 151z" />
    <glyph glyph-name="T" unicode="T" horiz-adv-x="1290" 
d="M158 1434h1241l-66 -414h-385l-162 -1020h-471l162 1020h-385z" />
    <glyph glyph-name="U" unicode="U" horiz-adv-x="1517" 
d="M1085 1434h471l-139 -891q-21 -129 -71.5 -229.5t-120 -165t-160.5 -106t-187 -58.5t-206 -17q-102 0 -193.5 20t-173.5 66t-136.5 114t-77.5 172t-3 232l137 863h473l-139 -867q-14 -96 26.5 -136t131.5 -40q200 0 235 203z" />
    <glyph glyph-name="V" unicode="V" horiz-adv-x="1523" 
d="M909 0h-483l-299 1434h481l123 -879l408 879h522z" />
    <glyph glyph-name="W" unicode="W" horiz-adv-x="2275" 
d="M1878 1434h524l-659 -1434h-516l-72 723l-309 -723h-504l-205 1434h492l65 -865l363 865h391l82 -865z" />
    <glyph glyph-name="X" unicode="X" horiz-adv-x="1495" 
d="M426 0h-563l622 733l-362 701h532l152 -363l278 363h564l-590 -697l379 -737h-533l-170 389z" />
    <glyph glyph-name="Y" unicode="Y" horiz-adv-x="1540" 
d="M907 0h-469l80 489l-395 945h504l168 -547l335 547h553l-696 -945z" />
    <glyph glyph-name="Z" unicode="Z" horiz-adv-x="1320" 
d="M1167 0h-1206l47 299l639 721h-489l63 414h1149l-47 -301l-639 -719h549z" />
    <glyph glyph-name="bracketleft" unicode="[" horiz-adv-x="790" 
d="M606 -225h-631l297 1884h631l-57 -371h-203l-182 -1141h203z" />
    <glyph glyph-name="backslash" unicode="\" horiz-adv-x="1011" 
d="M862 -125h-297l-379 1684h297z" />
    <glyph glyph-name="bracketright" unicode="]" horiz-adv-x="788" 
d="M555 -225h-631l58 372h202l183 1141h-203l57 371h631z" />
    <glyph glyph-name="asciicircum" unicode="^" horiz-adv-x="1361" 
d="M520 659h-457l562 775h381l319 -775h-426l-129 367z" />
    <glyph glyph-name="underscore" unicode="_" horiz-adv-x="1067" 
d="M907 -416h-1067l56 346h1067z" />
    <glyph glyph-name="grave" unicode="`" horiz-adv-x="729" 
d="M864 1540h-375l-196 336h424z" />
    <glyph glyph-name="a" unicode="a" horiz-adv-x="1277" 
d="M737 106q-112 -139 -323 -139q-90 0 -162 30t-118 82.5t-76 123t-34 150.5t7 167q16 99 55 186t101 157.5t154 111.5t202 41q109 0 190 -50.5t121 -127.5l23 145h378l-155 -983h-379zM467 483q-9 -72 21 -121t94 -49q87 0 149 76l35 213q-9 30 -38.5 49t-68.5 19
q-77 0 -128 -53.5t-64 -133.5z" />
    <glyph glyph-name="b" unicode="b" horiz-adv-x="1277" 
d="M215 1434h432l-84 -519q123 101 271 101q86 0 157 -30t117 -82.5t76 -123t35 -150.5t-7 -167q-15 -99 -53.5 -186t-99.5 -157.5t-151.5 -111.5t-198.5 -41q-112 0 -193.5 48.5t-122.5 121.5l-26 -137h-379zM776 494q10 71 -17 123.5t-95 52.5q-83 0 -152 -76l-33 -215
q27 -66 105 -66q75 0 127 52t65 129z" />
    <glyph glyph-name="c" unicode="c" horiz-adv-x="1003" 
d="M27 498q14 108 60 197t110 148t145 99t164 58t168 18q175 0 315 -70l-53 -334q-91 48 -201 48q-101 0 -177.5 -43t-90.5 -134q-11 -80 42.5 -119.5t147.5 -39.5q138 0 250 53l-55 -361q-149 -51 -309 -51q-121 0 -221.5 34t-173.5 98.5t-106 167t-15 231.5z" />
    <glyph glyph-name="d" unicode="d" horiz-adv-x="1275" 
d="M897 1434h430l-227 -1434h-379l18 117q-118 -150 -323 -150q-87 0 -158.5 30t-118 82.5t-77 123t-35.5 150.5t6 167q15 98 55 185.5t102.5 158t153.5 111.5t199 41q91 0 159.5 -32t108.5 -87zM766 604q-11 28 -40.5 47t-66.5 19q-77 0 -128.5 -53t-63.5 -134
q-9 -73 21 -121.5t94 -48.5q85 -3 149 76z" />
    <glyph glyph-name="e" unicode="e" horiz-adv-x="1118" 
d="M31 528q15 102 59 186t103.5 139t132.5 92.5t144.5 54t141.5 16.5q125 0 219 -38.5t145.5 -101.5t75 -144.5t17 -168t-38.5 -170.5h-610q16 -64 86.5 -94.5t171.5 -30.5q175 0 305 49l-47 -301q-146 -49 -354 -49q-92 0 -177 20t-161.5 64t-129 108t-76.5 159.5t-7 209.5
zM711 592q15 54 -11.5 96.5t-91.5 42.5q-68 0 -113 -42t-53 -97h269z" />
    <glyph glyph-name="f" unicode="f" horiz-adv-x="860" 
d="M264 1079q63 387 479 387q144 0 246 -41l-49 -315q-51 23 -109 23t-96 -27t-47 -78l-8 -45h215l-53 -344h-215l-103 -639h-430l101 639h-140l56 344h139z" />
    <glyph glyph-name="g" unicode="g" horiz-adv-x="1277" 
d="M1110 49q-18 -115 -63.5 -206.5t-107.5 -151.5t-141.5 -100t-162.5 -57t-174 -17q-272 0 -469 90l55 346q160 -86 338 -86q119 0 198 45t95 139l6 41q-91 -102 -264 -102q-90 0 -162.5 29t-119 79t-77 118.5t-35 148t6.5 165.5q16 98 57 184.5t104.5 154.5t154 107.5
t196.5 39.5q103 0 183.5 -45t125.5 -119l23 131h378zM469 489q-9 -73 21 -122t94 -50q86 0 149 78l35 215q-11 29 -40 47.5t-66 18.5q-77 0 -128.5 -53.5t-64.5 -133.5z" />
    <glyph glyph-name="h" unicode="h" 
d="M215 1434h432l-80 -500q134 82 256 82q94 0 164 -34t107.5 -90.5t51 -125.5t1.5 -143l-98 -623h-433l91 569q7 41 -12 62.5t-56 21.5q-66 0 -125 -55l-94 -598h-432z" />
    <glyph glyph-name="i" unicode="i" horiz-adv-x="600" 
d="M422 0h-432l155 983h433zM633 1274q-14 -96 -80.5 -144.5t-157.5 -48.5q-102 0 -162.5 64t-42.5 180q16 96 82.5 144.5t157.5 48.5q102 0 162 -64t41 -180z" />
    <glyph glyph-name="j" unicode="j" horiz-adv-x="602" 
d="M401 -131q-15 -96 -55.5 -166t-101 -109.5t-130 -58t-151.5 -18.5q-144 0 -237 41l53 340q39 -13 84 -13q59 0 89 27.5t40 91.5l155 979h431zM635 1274q-14 -96 -80.5 -144.5t-157.5 -48.5q-102 0 -162 64t-42 180q16 96 82 144.5t157 48.5q102 0 162 -64t41 -180z" />
    <glyph glyph-name="k" unicode="k" horiz-adv-x="1218" 
d="M813 983h479l-393 -512l227 -471h-444l-139 332h-72l-51 -332h-432l227 1434h432l-123 -766h64z" />
    <glyph glyph-name="l" unicode="l" horiz-adv-x="602" 
d="M227 1495h432l-237 -1495h-432z" />
    <glyph glyph-name="m" unicode="m" horiz-adv-x="1769" 
d="M1069 887q62 59 149.5 94t180.5 35q72 0 129.5 -23t92.5 -62t57.5 -91.5t25 -112.5t-5.5 -123l-96 -604h-426l94 594q4 30 -13.5 45.5t-46.5 15.5q-53 0 -102 -45q0 -12 -4 -32l-92 -578h-426l94 594q4 30 -13 45.5t-44 15.5q-65 0 -115 -57l-94 -598h-426l155 983h381
l-16 -98q49 55 133.5 93t175.5 38q179 0 252 -129z" />
    <glyph glyph-name="n" unicode="n" 
d="M508 891q148 125 323 125q92 0 160.5 -34t105 -90.5t49.5 -125t1 -141.5l-98 -625h-433l91 569q7 42 -12 63t-56 21q-58 0 -125 -53l-94 -600h-432l155 983h379z" />
    <glyph glyph-name="o" unicode="o" 
d="M1153 459q-20 -124 -78.5 -220t-143.5 -154.5t-187.5 -88t-217.5 -29.5q-116 0 -214.5 36t-169.5 103.5t-101.5 175.5t-9.5 242q19 124 75.5 219.5t140 154.5t186.5 88.5t222 29.5q113 0 211 -36t170.5 -103.5t105 -175.5t11.5 -242zM444 481q-8 -68 20.5 -110.5
t96.5 -42.5q74 0 120.5 47.5t55.5 126.5q8 68 -20 110.5t-96 42.5q-74 0 -121 -47.5t-56 -126.5z" />
    <glyph glyph-name="p" unicode="p" horiz-adv-x="1280" 
d="M506 868q58 66 143.5 107t181.5 41q144 0 240.5 -79.5t131 -204t11.5 -269.5q-16 -100 -54 -186.5t-98.5 -157t-151.5 -111.5t-201 -41q-89 0 -161 33t-116 82l-84 -533h-432l229 1434h379zM778 498q10 68 -17.5 120t-96.5 52q-87 0 -150 -78l-35 -215q28 -64 109 -64
q74 0 125 53.5t65 131.5z" />
    <glyph glyph-name="q" unicode="q" horiz-adv-x="1277" 
d="M31 520q16 99 55 186t101 157.5t154 111.5t202 41t191 -51t120 -125l23 143h378l-227 -1434h-430l80 506q-94 -88 -264 -88q-90 0 -162 30t-118 82.5t-76 123t-34 150.5t7 167zM766 604q-9 27 -39.5 46.5t-67.5 19.5q-76 0 -127.5 -54t-64.5 -133q-9 -73 21 -121.5
t94 -48.5q86 -3 149 76z" />
    <glyph glyph-name="r" unicode="r" horiz-adv-x="860" 
d="M508 877q59 71 158.5 105.5t230.5 18.5l-63 -397q-90 30 -185 10t-145 -79l-84 -535h-432l155 983h381z" />
    <glyph glyph-name="s" unicode="s" horiz-adv-x="1009" 
d="M72 727q40 289 485 289q217 0 389 -86l-49 -312q-62 44 -142 72.5t-153 28.5q-85 0 -90 -39q-2 -21 22 -37.5t63.5 -30.5t87.5 -30t94.5 -42t82.5 -60t53 -90t5 -126q-11 -71 -46 -125t-83.5 -86t-116 -52t-134 -27t-147.5 -7q-234 0 -403 90l53 334q62 -53 154 -81.5
t168 -30.5q110 -5 116 32q2 20 -21.5 36.5t-62.5 30.5t-86 31t-93 43.5t-82.5 60.5t-54.5 89.5t-9 124.5z" />
    <glyph glyph-name="t" unicode="t" horiz-adv-x="886" 
d="M270 1247l449 101l-57 -365h219l-56 -344h-219l-37 -231q-7 -50 16 -70.5t74 -20.5q63 0 134 23l-54 -336q-122 -39 -264 -39q-59 0 -111.5 11t-103 39t-83.5 71t-47.5 112.5t-0.5 157.5l45 283h-137l55 344h137z" />
    <glyph glyph-name="u" unicode="u" 
d="M762 983h432l-156 -983h-381l17 92q-122 -125 -301 -125q-120 0 -204 56t-117.5 145.5t-16.5 196.5l98 618h432l-90 -563q-15 -92 70 -92q72 0 123 55z" />
    <glyph glyph-name="v" unicode="v" horiz-adv-x="1230" 
d="M819 983h473l-544 -983h-457l-225 983h438l65 -571z" />
    <glyph glyph-name="w" unicode="w" horiz-adv-x="1732" 
d="M1327 983h457l-469 -983h-420l-51 485l-213 -485h-410l-147 983h422l32 -539l222 539h329l47 -539z" />
    <glyph glyph-name="x" unicode="x" horiz-adv-x="1167" 
d="M356 0h-471l426 502l-248 481h433l106 -225l166 225h469l-412 -494l262 -489h-452l-100 227z" />
    <glyph glyph-name="y" unicode="y" horiz-adv-x="1234" 
d="M610 451l211 532h469l-538 -1053q-61 -119 -131.5 -202t-145 -127t-146 -63t-151.5 -19q-126 0 -235 41l55 344q62 -23 127 -23q139 0 221 144l-293 958h436z" />
    <glyph glyph-name="z" unicode="z" horiz-adv-x="1034" 
d="M147 983h865l-41 -252l-393 -387h360l-53 -344h-924l39 252l393 387h-299z" />
    <glyph glyph-name="braceleft" unicode="{" horiz-adv-x="841" 
d="M707 115l-54 -342q-144 -28 -251 -11t-175 70t-96.5 133t-13.5 178l47 291q5 30 -1 50t-16.5 30.5t-33 15.5t-39 6t-47.5 1l59 366q74 -7 115.5 16t54.5 97l47 303q36 231 212 320.5t435 15.5l-53 -340q-160 46 -195 -172l-32 -215q-33 -202 -219 -213q70 -3 117 -66.5
t30 -171.5l-35 -213q-14 -92 17 -127t127 -22z" />
    <glyph glyph-name="bar" unicode="|" horiz-adv-x="632" 
d="M403 -205h-428l295 1864h428z" />
    <glyph glyph-name="braceright" unicode="}" horiz-adv-x="841" 
d="M575 115q-36 -231 -206.5 -317t-442.5 -21l54 336q91 -18 134.5 24t61.5 154l33 213q18 103 78 156.5t143 58.5q-68 3 -116.5 69t-32.5 168l34 213q14 92 -16 126.5t-127 21.5l55 348q278 55 424 -55.5t111 -319.5l-47 -295q-6 -36 4 -58t30 -29t46.5 -9.5t54.5 0.5
l-57 -364q-69 7 -113 -18t-55 -99z" />
    <glyph glyph-name="asciitilde" unicode="~" horiz-adv-x="1241" 
d="M1198 891q3 -109 -22 -192.5t-71.5 -133.5t-106.5 -75t-132 -25q-69 0 -152 25t-148 49.5t-91 23.5q-62 0 -65 -88h-334q-2 110 23.5 194t72.5 133.5t106 74t128 24.5q72 0 153.5 -24.5t146 -49t93.5 -24.5q33 0 48.5 20.5t16.5 67.5h334z" />
    <glyph glyph-name="exclamdown" unicode="&#xa1;" horiz-adv-x="612" 
d="M369 -451h-461l188 871h363zM571 756q-16 -102 -86 -152.5t-166 -50.5q-109 0 -173.5 68.5t-43.5 191.5q16 101 85.5 152t164.5 51q111 0 174.5 -67.5t44.5 -192.5z" />
    <glyph glyph-name="cent" unicode="&#xa2;" horiz-adv-x="1050" 
d="M999 948l-53 -334q-62 30 -121 41l-51 -321q66 10 144 45l-56 -361q-69 -23 -143 -36l-37 -228h-182l32 213q-117 3 -214 38.5t-167 100t-101 165.5t-13 227q14 108 60 197t110 148t145 99t164 58t168 18h16l33 211h182l-36 -236q65 -18 120 -45zM641 649
q-145 -42 -164 -164q-9 -62 22.5 -100t92.5 -51z" />
    <glyph glyph-name="sterling" unicode="&#xa3;" horiz-adv-x="1247" 
d="M1090 0h-1115l60 369h43q63 0 101 37t46 94l8 49h-139l49 307h140l12 80q20 128 74.5 224t134.5 153t176.5 84.5t208.5 27.5q191 0 362 -77l-51 -338q-105 63 -244 63q-193 0 -219 -166l-8 -51h338l-49 -307h-336l-10 -53q-12 -95 -84 -127h561z" />
    <glyph glyph-name="currency" unicode="&#xa4;" horiz-adv-x="1142" 
d="M340 344l-147 -129l-158 178l133 123q-41 106 -21 229q16 113 86 201l-92 101l189 172l104 -121q90 37 201 37q117 0 205 -45l151 133l156 -179l-139 -126q42 -105 22 -230q-17 -116 -86 -199l94 -100l-192 -172l-103 117q-86 -35 -200 -35q-115 0 -203 45zM485 707
q-5 -36 16 -63.5t70 -27.5q55 0 86.5 33t34.5 78q5 37 -16 64.5t-70 27.5q-55 0 -86.5 -33t-34.5 -79z" />
    <glyph glyph-name="yen" unicode="&#xa5;" horiz-adv-x="1566" 
d="M1116 1393h529l-486 -656h189l-35 -225h-312l-14 -80h311l-34 -225h-314l-32 -207h-469l32 207h-311l35 225h313l14 80h-313l35 225h190l-274 656h481l160 -527z" />
    <glyph glyph-name="brokenbar" unicode="&#xa6;" horiz-adv-x="651" 
d="M582 860h-428l127 799h428zM412 -205h-428l127 799h428z" />
    <glyph glyph-name="section" unicode="&#xa7;" horiz-adv-x="1081" 
d="M944 221q-14 -86 -65 -146.5t-128 -91.5t-157 -44t-174 -13q-199 0 -395 97l47 303q69 -44 157.5 -68.5t157.5 -24.5q62 0 89.5 7.5t31.5 29.5q2 18 -18 33.5t-52.5 28t-88.5 31.5q-9 3 -13 4q-45 17 -79.5 33.5t-71.5 44.5t-59 60t-33 79.5t-3 103.5q19 145 184 236
q-122 95 -98 256q13 81 59 139.5t117 89t146.5 44t163.5 13.5q209 0 385 -90l-43 -282q-133 75 -293 75q-90 0 -95 -41q-1 -12 8 -22.5t29.5 -20t42.5 -17t58 -21t65 -25.5q52 -22 90 -46.5t71.5 -61t46.5 -87.5t3 -114q-21 -140 -172 -246q112 -88 86 -246zM520 635
q17 -6 50.5 -17t47.5 -16q49 27 54 68q5 32 -14.5 52t-59.5 36q-12 5 -44.5 15.5t-47.5 17.5q-52 -27 -60 -70q-10 -56 74 -86z" />
    <glyph glyph-name="dieresis" unicode="&#xa8;" horiz-adv-x="894" 
d="M1108 1698q-9 -84 -68.5 -135.5t-140.5 -51.5q-88 0 -140.5 57.5t-43.5 149.5q9 83 68.5 135t140.5 52q88 0 140.5 -57.5t43.5 -149.5zM637 1698q-9 -84 -68.5 -135.5t-140.5 -51.5q-88 0 -140.5 57.5t-43.5 149.5q9 83 68.5 135t140.5 52q88 0 140.5 -57.5t43.5 -149.5z
" />
    <glyph glyph-name="copyright" unicode="&#xa9;" horiz-adv-x="1695" 
d="M1651 688q-23 -142 -84 -261t-147 -203t-193 -142.5t-223.5 -86.5t-237.5 -28q-102 0 -197 22.5t-178.5 67t-148.5 110.5t-107.5 152.5t-56.5 193t6 232.5q23 141 83.5 260.5t146.5 203.5t193 142.5t222.5 86.5t235.5 28q102 0 198 -22.5t179 -67t149 -110.5
t108.5 -152.5t57 -193t-5.5 -232.5zM1143 360q-124 -65 -299 -65q-62 0 -122 15.5t-115.5 50.5t-94.5 84t-56 123t-3 161q14 86 52 156.5t89.5 116.5t115 77.5t127 45.5t126.5 14q169 0 290 -70l-36 -242q-82 45 -187 45q-55 0 -101 -13t-83 -50.5t-45 -95.5
q-10 -73 36.5 -112.5t118.5 -39.5q132 0 226 51zM227 707q-21 -142 14.5 -258.5t113 -191t185 -115t232.5 -40.5q132 0 253.5 40t221 116.5t168.5 197t90 271.5q21 142 -14.5 258.5t-112.5 191t-184.5 114.5t-232.5 40q-132 0 -253.5 -40t-221.5 -116t-169 -196.5
t-90 -271.5z" />
    <glyph glyph-name="guillemotleft" unicode="&#xab;" horiz-adv-x="1376" 
d="M1239 66h-424l-215 389l12 84l332 379h438l-370 -426zM670 66h-424l-215 389l12 84l332 379h438l-371 -426z" />
    <glyph glyph-name="logicalnot" unicode="&#xac;" horiz-adv-x="1183" 
d="M1053 403h-357l37 234h-657l55 346h1014z" />
    <glyph glyph-name="registered" unicode="&#xae;" horiz-adv-x="1695" 
d="M1651 688q-23 -142 -84 -261t-147 -203t-193 -142.5t-223.5 -86.5t-237.5 -28q-102 0 -197 22.5t-178.5 67t-148.5 110.5t-107.5 152.5t-56.5 193t6 232.5q23 141 83.5 260.5t146.5 203.5t193 142.5t222.5 86.5t235.5 28q102 0 198 -22.5t179 -67t149 -110.5
t108.5 -152.5t57 -193t-5.5 -232.5zM227 707q-21 -142 14.5 -258.5t113 -191t185 -115t232.5 -40.5q132 0 253.5 40t221 116.5t168.5 197t90 271.5q21 142 -14.5 258.5t-112.5 191t-184.5 114.5t-232.5 40q-132 0 -253.5 -40t-221.5 -116t-169 -196.5t-90 -271.5zM741 324
h-274l125 798h383q53 0 102 -11t92 -35.5t72 -60.5t41.5 -90t1.5 -120q-26 -158 -174 -221l152 -260h-291l-123 227h-14h-58zM831 895l-22 -137h94q95 0 107 71q3 25 -14 45.5t-50 20.5h-115z" />
    <glyph glyph-name="macron" unicode="&#xaf;" horiz-adv-x="737" 
d="M246 1847h743l-47 -297h-743z" />
    <glyph glyph-name="degree" unicode="&#xb0;" horiz-adv-x="905" 
d="M938 1055q-28 -178 -152 -272.5t-303 -94.5q-86 0 -159 28t-125 80t-75 134t-7 182q27 167 151.5 260.5t298.5 93.5q88 0 162 -28t126 -79.5t75 -130t8 -173.5zM418 1069q-4 -44 20 -70t68 -26q54 0 86 31.5t37 85.5q5 43 -18 68.5t-68 25.5q-53 0 -86.5 -31.5
t-38.5 -83.5z" />
    <glyph glyph-name="plusminus" unicode="&#xb1;" horiz-adv-x="1191" 
d="M899 1407l-51 -311h336l-54 -344h-335l-50 -314h-344l50 314h-336l55 344h334l51 311h344zM1012 0h-1016l55 344h1014z" />
    <glyph glyph-name="acute" unicode="&#xb4;" horiz-adv-x="710" 
d="M641 1540h-397l254 336h444z" />
    <glyph glyph-name="paragraph" unicode="&#xb6;" horiz-adv-x="1701" 
d="M813 -451h-442l153 965q-221 0 -335 130.5t-78 354.5q32 206 175.5 320.5t372.5 114.5h1045l-299 -1885h-442l233 1471h-147z" />
    <glyph glyph-name="periodcentered" unicode="&#xb7;" horiz-adv-x="593" 
d="M512 461q-16 -103 -85.5 -154t-166.5 -51q-108 0 -172 68.5t-45 191.5q16 102 86 152.5t166 50.5q110 0 174 -67.5t43 -190.5z" />
    <glyph glyph-name="cedilla" unicode="&#xb8;" horiz-adv-x="471" 
d="M41 0h252l-45 -90q89 -6 136 -61t34 -140q-8 -54 -41 -93.5t-82.5 -60.5t-101.5 -30.5t-109 -9.5q-154 0 -262 43l37 227q67 -39 164 -39q112 0 120 49q5 23 -22 36t-67 13t-83 -6z" />
    <glyph glyph-name="guillemotright" unicode="&#xbb;" horiz-adv-x="1378" 
d="M973 66h-441l373 426l-229 426h424l217 -390l-14 -84zM401 66h-440l373 426l-230 426h424l215 -390l-12 -84z" />
    <glyph glyph-name="onequarter" unicode="&#xbc;" horiz-adv-x="1912" 
d="M1518 836h280l-80 -504h103l-35 -219h-103l-18 -113h-256l16 113h-413l35 225zM1460 332l31 184l-174 -184h143zM455 -33h-129l1183 1499h129zM424 1393h207l-96 -605h141l-37 -231h-573l36 231h158l53 336l-157 -51l39 242z" />
    <glyph glyph-name="onehalf" unicode="&#xbd;" horiz-adv-x="1849" 
d="M449 -33h-130l1184 1499h129zM1178 772q155 84 309 84q64 0 121 -18t102.5 -53t67 -94.5t8.5 -135.5q-12 -75 -54 -120t-126 -97q-19 -12 -50.5 -31t-47.5 -29t-35 -23.5t-31 -25.5h291l-35 -229h-670l19 121q10 65 36.5 117.5t67.5 92t80.5 66.5t93.5 56q19 10 55 28
t50.5 26.5t34.5 21t28 23t10 21.5q4 20 -12 30.5t-45 10.5q-138 0 -311 -112zM418 1393h207l-97 -605h142l-37 -231h-574l37 231h158l53 336l-157 -51l38 242z" />
    <glyph glyph-name="threequarters" unicode="&#xbe;" horiz-adv-x="2015" 
d="M557 -33h-129l1184 1499h129zM1620 836h281l-80 -504h102l-35 -219h-102l-19 -113h-256l17 113h-414l35 225zM1563 332l30 184l-174 -184h144zM778 1159q-20 -116 -157 -158q65 -20 105 -78t26 -149q-38 -223 -371 -223q-186 0 -311 61l36 234q121 -62 250 -62
q58 0 96 15t42 43q3 23 -11 36t-47 13h-157l34 211h111q81 0 86 43q4 22 -16 34.5t-58 12.5q-141 0 -274 -68l39 238q136 65 276 65q63 0 120 -16.5t102 -48t67 -84.5t12 -119z" />
    <glyph glyph-name="questiondown" unicode="&#xbf;" horiz-adv-x="1028" 
d="M807 -401q-184 -82 -401 -82q-78 0 -148 11.5t-136 41t-111 73.5t-65.5 115t-6.5 160q11 72 56.5 139.5t103 118.5t114 97.5t98.5 94t49 89.5h396q-9 -60 -37 -116t-63 -96.5t-75 -79t-73.5 -66.5t-58 -57.5t-29.5 -53.5q-11 -70 102 -70q85 0 180 27t172 67zM844 756
q-16 -102 -86 -152.5t-166 -50.5q-109 0 -173.5 68.5t-43.5 191.5q16 101 85.5 152t164.5 51q110 0 174 -68t45 -192z" />
    <glyph glyph-name="Agrave" unicode="&#xc0;" horiz-adv-x="1566" 
d="M1479 0h-461l-33 190h-506l-92 -190h-487l762 1434h509zM795 846l-154 -314h289l-51 312q-15 103 -15 184q-35 -113 -69 -182zM1159 1540h-375l-196 336h424z" />
    <glyph glyph-name="Aacute" unicode="&#xc1;" horiz-adv-x="1566" 
d="M1479 0h-461l-33 190h-506l-92 -190h-487l762 1434h509zM795 846l-154 -314h289l-51 312q-15 103 -15 184q-35 -113 -69 -182zM1092 1540h-398l254 336h445z" />
    <glyph glyph-name="Acircumflex" unicode="&#xc2;" horiz-adv-x="1566" 
d="M1479 0h-461l-33 190h-506l-92 -190h-487l762 1434h509zM795 846l-154 -314h289l-51 312q-15 103 -15 184q-35 -113 -69 -182zM795 1880h379l206 -350h-344l-71 123l-113 -123h-375z" />
    <glyph glyph-name="Atilde" unicode="&#xc3;" horiz-adv-x="1566" 
d="M1479 0h-461l-33 190h-506l-92 -190h-487l762 1434h509zM795 846l-154 -314h289l-51 312q-15 103 -15 184q-35 -113 -69 -182zM1391 1880q20 -159 -56 -263t-207 -104q-57 0 -114.5 20.5t-103.5 41t-74 20.5t-42.5 -22t-9.5 -47h-274q-20 158 55 262t205 104
q58 0 116 -20.5t104 -41t73 -20.5q28 0 42 22.5t9 47.5h277z" />
    <glyph glyph-name="Adieresis" unicode="&#xc4;" horiz-adv-x="1566" 
d="M1479 0h-461l-33 190h-506l-92 -190h-487l762 1434h509zM795 846l-154 -314h289l-51 312q-15 103 -15 184q-35 -113 -69 -182zM1393 1698q-9 -84 -68.5 -135.5t-140.5 -51.5q-88 0 -141 57.5t-44 149.5q9 83 68.5 135t140.5 52q88 0 141 -57.5t44 -149.5zM922 1698
q-9 -84 -68.5 -135.5t-140.5 -51.5q-88 0 -141 57.5t-44 149.5q9 83 68.5 135t140.5 52q88 0 141 -57.5t44 -149.5z" />
    <glyph glyph-name="Aring" unicode="&#xc5;" horiz-adv-x="1566" 
d="M1479 0h-461l-33 190h-506l-92 -190h-487l762 1434h509zM795 846l-154 -314h289l-51 312q-15 103 -15 184q-35 -113 -69 -182zM1262 1737q-13 -78 -59 -133.5t-110 -81t-141 -25.5q-57 0 -108.5 20t-89.5 56.5t-56 94t-8 126.5q20 111 106.5 174.5t200.5 63.5
q58 0 110.5 -20.5t90.5 -57.5t56.5 -93.5t7.5 -123.5zM905 1767q-5 -33 12 -53t50 -20t52.5 18.5t24.5 48.5q6 31 -10 51.5t-51 20.5q-31 0 -52 -18.5t-26 -47.5z" />
    <glyph glyph-name="AE" unicode="&#xc6;" horiz-adv-x="2134" 
d="M2187 1434l-59 -373h-561l-25 -166h488l-56 -348h-487l-29 -170h574l-60 -377h-1034l31 195h-439l-145 -195h-508l1106 1434h1204zM776 532h246l70 422z" />
    <glyph glyph-name="Ccedilla" unicode="&#xc7;" horiz-adv-x="1320" 
d="M1307 969q-48 39 -128.5 63.5t-168.5 24.5q-78 0 -150 -18.5t-137.5 -57t-112 -108t-61.5 -162.5q-13 -79 8 -143t66.5 -103.5t106 -60.5t128.5 -21q214 0 383 102l-70 -438q-144 -65 -331 -78l-29 -59q89 -6 136 -61t34 -140q-8 -54 -41 -93.5t-82.5 -60.5t-101.5 -30.5
t-109 -9.5q-154 0 -262 43l37 227q67 -39 164 -39q113 0 121 49q5 23 -22 36t-67.5 13t-82.5 -6l61 144q-101 19 -187.5 58.5t-160 103t-119 149.5t-64 198t4.5 248q24 150 89.5 274.5t154.5 207t198.5 139t219.5 81.5t220 25q239 0 418 -98z" />
    <glyph glyph-name="Egrave" unicode="&#xc8;" horiz-adv-x="1271" 
d="M240 1434h1085l-59 -373h-615l-24 -166h540l-55 -348h-541l-26 -170h624l-59 -377h-1098zM1030 1540h-375l-196 336h424z" />
    <glyph glyph-name="Eacute" unicode="&#xc9;" horiz-adv-x="1271" 
d="M240 1434h1085l-59 -373h-615l-24 -166h540l-55 -348h-541l-26 -170h624l-59 -377h-1098zM963 1540h-398l254 336h445z" />
    <glyph glyph-name="Ecircumflex" unicode="&#xca;" horiz-adv-x="1271" 
d="M240 1434h1085l-59 -373h-615l-24 -166h540l-55 -348h-541l-26 -170h624l-59 -377h-1098zM666 1880h378l207 -350h-344l-71 123l-113 -123h-375z" />
    <glyph glyph-name="Edieresis" unicode="&#xcb;" horiz-adv-x="1271" 
d="M240 1434h1085l-59 -373h-615l-24 -166h540l-55 -348h-541l-26 -170h624l-59 -377h-1098zM1264 1698q-9 -84 -68.5 -135.5t-140.5 -51.5q-88 0 -141 57.5t-44 149.5q9 83 68.5 135t140.5 52q88 0 141 -57.5t44 -149.5zM793 1698q-9 -84 -68.5 -135.5t-140.5 -51.5
q-88 0 -141 57.5t-44 149.5q9 83 68.5 135t140.5 52q88 0 141 -57.5t44 -149.5z" />
    <glyph glyph-name="Igrave" unicode="&#xcc;" horiz-adv-x="688" 
d="M240 1434h473l-228 -1434h-473zM717 1540h-375l-197 336h424z" />
    <glyph glyph-name="Iacute" unicode="&#xcd;" horiz-adv-x="688" 
d="M240 1434h473l-228 -1434h-473zM649 1540h-397l254 336h444z" />
    <glyph glyph-name="Icircumflex" unicode="&#xce;" horiz-adv-x="688" 
d="M240 1434h473l-228 -1434h-473zM352 1880h379l207 -350h-344l-72 123l-112 -123h-375z" />
    <glyph glyph-name="Idieresis" unicode="&#xcf;" horiz-adv-x="688" 
d="M240 1434h473l-228 -1434h-473zM950 1698q-9 -84 -68.5 -135.5t-140.5 -51.5q-88 0 -140.5 57.5t-43.5 149.5q9 83 68.5 135t140.5 52q88 0 140.5 -57.5t43.5 -149.5zM479 1698q-9 -84 -68.5 -135.5t-140.5 -51.5q-88 0 -140.5 57.5t-43.5 149.5q9 83 68.5 135t140.5 52
q88 0 140.5 -57.5t43.5 -149.5z" />
    <glyph glyph-name="Eth" unicode="&#xd0;" horiz-adv-x="1550" 
d="M268 1434h606q241 0 398.5 -96.5t216 -263.5t24.5 -386q-25 -155 -87 -279t-163 -216.5t-249.5 -142.5t-335.5 -50h-637l90 575h-119l45 279h119zM698 397q286 0 336 336q51 303 -213 303h-145l-29 -182h209l-45 -279h-207l-29 -178h123z" />
    <glyph glyph-name="Ntilde" unicode="&#xd1;" horiz-adv-x="1560" 
d="M485 0h-473l228 1434h356l424 -691q3 125 22 242l70 449h473l-227 -1434h-357l-421 688q0 -82 -21 -233zM1346 1880q20 -159 -56 -263t-207 -104q-57 0 -114.5 20.5t-103.5 41t-74 20.5t-42.5 -22t-9.5 -47h-274q-20 158 55 262t205 104q58 0 116 -20.5t104 -41t73 -20.5
q28 0 42 22.5t9 47.5h277z" />
    <glyph glyph-name="Ograve" unicode="&#xd2;" horiz-adv-x="1648" 
d="M1616 688q-23 -151 -92 -280.5t-177 -228.5t-263.5 -155.5t-338.5 -56.5q-185 0 -327.5 61.5t-225 168t-114.5 247.5t-6 301q24 151 93 280.5t176.5 228.5t262.5 155.5t338 56.5q122 0 227.5 -28t184 -78.5t138.5 -122t91 -158t42 -185.5t-9 -206zM551 692
q-17 -138 43.5 -217.5t189.5 -79.5q146 0 241 93t114 253q19 138 -42 217.5t-192 79.5q-144 0 -238 -92.5t-116 -253.5zM1196 1540h-375l-196 336h424z" />
    <glyph glyph-name="Oacute" unicode="&#xd3;" horiz-adv-x="1648" 
d="M1616 688q-23 -151 -92 -280.5t-177 -228.5t-263.5 -155.5t-338.5 -56.5q-185 0 -327.5 61.5t-225 168t-114.5 247.5t-6 301q24 151 93 280.5t176.5 228.5t262.5 155.5t338 56.5q122 0 227.5 -28t184 -78.5t138.5 -122t91 -158t42 -185.5t-9 -206zM551 692
q-17 -138 43.5 -217.5t189.5 -79.5q146 0 241 93t114 253q19 138 -42 217.5t-192 79.5q-144 0 -238 -92.5t-116 -253.5zM1128 1540h-397l254 336h445z" />
    <glyph glyph-name="Ocircumflex" unicode="&#xd4;" horiz-adv-x="1648" 
d="M1616 688q-23 -151 -92 -280.5t-177 -228.5t-263.5 -155.5t-338.5 -56.5q-185 0 -327.5 61.5t-225 168t-114.5 247.5t-6 301q24 151 93 280.5t176.5 228.5t262.5 155.5t338 56.5q122 0 227.5 -28t184 -78.5t138.5 -122t91 -158t42 -185.5t-9 -206zM551 692
q-17 -138 43.5 -217.5t189.5 -79.5q146 0 241 93t114 253q19 138 -42 217.5t-192 79.5q-144 0 -238 -92.5t-116 -253.5zM831 1880h379l207 -350h-344l-72 123l-112 -123h-375z" />
    <glyph glyph-name="Otilde" unicode="&#xd5;" horiz-adv-x="1648" 
d="M1616 688q-23 -151 -92 -280.5t-177 -228.5t-263.5 -155.5t-338.5 -56.5q-185 0 -327.5 61.5t-225 168t-114.5 247.5t-6 301q24 151 93 280.5t176.5 228.5t262.5 155.5t338 56.5q122 0 227.5 -28t184 -78.5t138.5 -122t91 -158t42 -185.5t-9 -206zM551 692
q-17 -138 43.5 -217.5t189.5 -79.5q146 0 241 93t114 253q19 138 -42 217.5t-192 79.5q-144 0 -238 -92.5t-116 -253.5zM1427 1880q20 -159 -55.5 -263t-206.5 -104q-57 0 -115 20.5t-104 41t-74 20.5t-42 -22t-9 -47h-274q-20 158 55 262t205 104q58 0 116 -20.5t104 -41
t73 -20.5q28 0 42 22.5t9 47.5h276z" />
    <glyph glyph-name="Odieresis" unicode="&#xd6;" horiz-adv-x="1648" 
d="M1616 688q-23 -151 -92 -280.5t-177 -228.5t-263.5 -155.5t-338.5 -56.5q-185 0 -327.5 61.5t-225 168t-114.5 247.5t-6 301q24 151 93 280.5t176.5 228.5t262.5 155.5t338 56.5q122 0 227.5 -28t184 -78.5t138.5 -122t91 -158t42 -185.5t-9 -206zM551 692
q-17 -138 43.5 -217.5t189.5 -79.5q146 0 241 93t114 253q19 138 -42 217.5t-192 79.5q-144 0 -238 -92.5t-116 -253.5zM1430 1698q-9 -84 -68.5 -135.5t-140.5 -51.5q-88 0 -141 57.5t-44 149.5q9 83 68.5 135t140.5 52q88 0 141 -57.5t44 -149.5zM958 1698
q-9 -85 -68 -136t-140 -51q-88 0 -141 57.5t-44 149.5q9 83 68.5 135t140.5 52q88 0 140.5 -57.5t43.5 -149.5z" />
    <glyph glyph-name="multiply" unicode="&#xd7;" horiz-adv-x="1077" 
d="M530 489l-292 -249l-197 225l291 250l-211 252l254 225l211 -250l291 250l198 -225l-293 -252l213 -250l-256 -225z" />
    <glyph glyph-name="Oslash" unicode="&#xd8;" horiz-adv-x="1648" 
d="M250 -98h-234l217 250q-107 107 -148 260t-13 333q24 151 93 280.5t176.5 228.5t262.5 155.5t338 56.5q214 0 369 -82l129 148h233l-219 -252q107 -107 149 -261t13 -331q-23 -151 -92 -280.5t-177 -228.5t-263.5 -155.5t-338.5 -56.5q-211 0 -368 80zM551 692
q-15 -91 16 -160l430 492q-47 14 -94 14q-144 0 -238 -93t-114 -253zM692 410q51 -15 90 -15q146 0 241 93t114 253q15 88 -17 160z" />
    <glyph glyph-name="Ugrave" unicode="&#xd9;" horiz-adv-x="1517" 
d="M1085 1434h471l-139 -891q-21 -129 -71.5 -229.5t-120 -165t-160.5 -106t-187 -58.5t-206 -17q-102 0 -193.5 20t-173.5 66t-136.5 114t-77.5 172t-3 232l137 863h473l-139 -867q-14 -96 26.5 -136t131.5 -40q200 0 235 203zM1110 1540h-375l-196 336h424z" />
    <glyph glyph-name="Uacute" unicode="&#xda;" horiz-adv-x="1517" 
d="M1085 1434h471l-139 -891q-21 -129 -71.5 -229.5t-120 -165t-160.5 -106t-187 -58.5t-206 -17q-102 0 -193.5 20t-173.5 66t-136.5 114t-77.5 172t-3 232l137 863h473l-139 -867q-14 -96 26.5 -136t131.5 -40q200 0 235 203zM1042 1540h-397l254 336h444z" />
    <glyph glyph-name="Ucircumflex" unicode="&#xdb;" horiz-adv-x="1517" 
d="M1085 1434h471l-139 -891q-21 -129 -71.5 -229.5t-120 -165t-160.5 -106t-187 -58.5t-206 -17q-102 0 -193.5 20t-173.5 66t-136.5 114t-77.5 172t-3 232l137 863h473l-139 -867q-14 -96 26.5 -136t131.5 -40q200 0 235 203zM745 1880h379l207 -350h-344l-72 123
l-112 -123h-375z" />
    <glyph glyph-name="Udieresis" unicode="&#xdc;" horiz-adv-x="1517" 
d="M1085 1434h471l-139 -891q-21 -129 -71.5 -229.5t-120 -165t-160.5 -106t-187 -58.5t-206 -17q-102 0 -193.5 20t-173.5 66t-136.5 114t-77.5 172t-3 232l137 863h473l-139 -867q-14 -96 26.5 -136t131.5 -40q200 0 235 203zM1343 1698q-9 -85 -68 -136t-140 -51
q-88 0 -141 57.5t-44 149.5q9 83 68.5 135t140.5 52q88 0 140.5 -57.5t43.5 -149.5zM872 1698q-9 -85 -68 -136t-140 -51q-88 0 -141 57.5t-44 149.5q9 83 68.5 135t140.5 52q88 0 140.5 -57.5t43.5 -149.5z" />
    <glyph glyph-name="Yacute" unicode="&#xdd;" horiz-adv-x="1540" 
d="M907 0h-469l80 489l-395 945h504l168 -547l335 547h553l-696 -945zM1057 1540h-398l254 336h445z" />
    <glyph glyph-name="Thorn" unicode="&#xde;" horiz-adv-x="1406" 
d="M682 1247h143q105 0 194.5 -17.5t168 -59t129.5 -104.5t72 -159.5t2 -218.5q-22 -142 -81.5 -241t-154 -155.5t-210 -81t-267.5 -24.5h-164l-29 -186h-473l228 1434h473zM578 578h139q92 0 147 34t68 115q9 63 -31.5 96t-114.5 33h-163z" />
    <glyph glyph-name="germandbls" unicode="&#xdf;" horiz-adv-x="1267" 
d="M1196 258q-11 -96 -71.5 -163.5t-144 -97.5t-181.5 -30q-141 0 -277 56l49 319q47 -23 107 -23q48 0 75.5 21.5t32.5 52.5q4 27 -13.5 62.5t-45 72t-54 75t-42 84t-8.5 87.5q8 45 41 91.5t66.5 91t41.5 83.5q9 38 -11 59t-56 21q-51 0 -83.5 -29.5t-41.5 -80.5
l-158 -1010h-432l155 987q37 235 182 356.5t396 122.5q99 1 181.5 -22.5t136 -61.5t88.5 -87.5t48 -100.5t7 -100q-7 -49 -37 -98t-62 -81.5t-61.5 -75t-34.5 -81.5q-5 -30 17.5 -68.5t57 -81t68.5 -91.5t53.5 -117.5t10.5 -141.5z" />
    <glyph glyph-name="agrave" unicode="&#xe0;" horiz-adv-x="1277" 
d="M737 106q-112 -139 -323 -139q-90 0 -162 30t-118 82.5t-76 123t-34 150.5t7 167q16 99 55 186t101 157.5t154 111.5t202 41q109 0 190 -50.5t121 -127.5l23 145h378l-155 -983h-379zM467 483q-9 -72 21 -121t94 -49q87 0 149 76l35 213q-9 30 -38.5 49t-68.5 19
q-77 0 -128 -53.5t-64 -133.5zM918 1110h-375l-197 336h424z" />
    <glyph glyph-name="aacute" unicode="&#xe1;" horiz-adv-x="1277" 
d="M737 106q-112 -139 -323 -139q-90 0 -162 30t-118 82.5t-76 123t-34 150.5t7 167q16 99 55 186t101 157.5t154 111.5t202 41q109 0 190 -50.5t121 -127.5l23 145h378l-155 -983h-379zM467 483q-9 -72 21 -121t94 -49q87 0 149 76l35 213q-9 30 -38.5 49t-68.5 19
q-77 0 -128 -53.5t-64 -133.5zM850 1110h-397l254 336h444z" />
    <glyph glyph-name="acircumflex" unicode="&#xe2;" horiz-adv-x="1277" 
d="M737 106q-112 -139 -323 -139q-90 0 -162 30t-118 82.5t-76 123t-34 150.5t7 167q16 99 55 186t101 157.5t154 111.5t202 41q109 0 190 -50.5t121 -127.5l23 145h378l-155 -983h-379zM467 483q-9 -72 21 -121t94 -49q87 0 149 76l35 213q-9 30 -38.5 49t-68.5 19
q-77 0 -128 -53.5t-64 -133.5zM553 1450h379l207 -350h-344l-72 123l-113 -123h-374z" />
    <glyph glyph-name="atilde" unicode="&#xe3;" horiz-adv-x="1277" 
d="M737 106q-112 -139 -323 -139q-90 0 -162 30t-118 82.5t-76 123t-34 150.5t7 167q16 99 55 186t101 157.5t154 111.5t202 41q109 0 190 -50.5t121 -127.5l23 145h378l-155 -983h-379zM467 483q-9 -72 21 -121t94 -49q87 0 149 76l35 213q-9 30 -38.5 49t-68.5 19
q-77 0 -128 -53.5t-64 -133.5zM1149 1450q20 -159 -55.5 -263t-206.5 -104q-57 0 -115 20.5t-104 41t-74 20.5t-42 -22t-9 -47h-275q-20 158 55 262t205 104q58 0 116 -20.5t104 -41t73 -20.5q28 0 42 22.5t9 47.5h277z" />
    <glyph glyph-name="adieresis" unicode="&#xe4;" horiz-adv-x="1277" 
d="M737 106q-112 -139 -323 -139q-90 0 -162 30t-118 82.5t-76 123t-34 150.5t7 167q16 99 55 186t101 157.5t154 111.5t202 41q109 0 190 -50.5t121 -127.5l23 145h378l-155 -983h-379zM467 483q-9 -72 21 -121t94 -49q87 0 149 76l35 213q-9 30 -38.5 49t-68.5 19
q-77 0 -128 -53.5t-64 -133.5zM1151 1268q-9 -84 -68.5 -135.5t-140.5 -51.5q-88 0 -140.5 57.5t-43.5 149.5q9 83 68.5 135t140.5 52q88 0 140.5 -57.5t43.5 -149.5zM680 1268q-9 -84 -68.5 -135.5t-140.5 -51.5q-88 0 -140.5 57.5t-43.5 149.5q9 83 68.5 135t140.5 52
q88 0 140.5 -57.5t43.5 -149.5z" />
    <glyph glyph-name="aring" unicode="&#xe5;" horiz-adv-x="1277" 
d="M737 106q-112 -139 -323 -139q-90 0 -162 30t-118 82.5t-76 123t-34 150.5t7 167q16 99 55 186t101 157.5t154 111.5t202 41q109 0 190 -50.5t121 -127.5l23 145h378l-155 -983h-379zM467 483q-9 -72 21 -121t94 -49q87 0 149 76l35 213q-9 30 -38.5 49t-68.5 19
q-77 0 -128 -53.5t-64 -133.5zM1020 1307q-19 -117 -105 -178.5t-204 -61.5q-57 0 -108.5 20t-89.5 56.5t-56 94t-8 126.5q20 111 106.5 174.5t200.5 63.5q58 0 110 -20.5t90.5 -57.5t56.5 -93.5t7 -123.5zM664 1337q-5 -33 11.5 -53t49.5 -20t53 18.5t25 48.5
q6 31 -10.5 51.5t-51.5 20.5q-30 0 -51 -18t-26 -48z" />
    <glyph glyph-name="ae" unicode="&#xe6;" horiz-adv-x="1892" 
d="M737 109q-112 -142 -323 -142q-90 0 -162 30t-118 82.5t-76 123t-34 150.5t7 167q16 99 55 186t101 157.5t154 111.5t202 41q109 0 190 -50t121 -126l23 143h346l-21 -131q55 85 138.5 124.5t175.5 39.5q118 1 198 -50t113 -138t26.5 -200t-53.5 -237h-618
q32 -121 254 -121q150 0 278 41l-45 -299q-127 -45 -254 -45q-114 0 -198.5 40t-131.5 112l-18 -119h-346zM463 483q-9 -73 21 -122t94 -50q84 0 149 76l35 213q-9 30 -38.5 49t-68.5 19q-76 0 -127.5 -53t-64.5 -132zM1378 731q-72 0 -115 -41.5t-51 -97.5h269
q15 54 -11.5 96.5t-91.5 42.5z" />
    <glyph glyph-name="ccedilla" unicode="&#xe7;" horiz-adv-x="1003" 
d="M934 614q-88 48 -201 48q-63 0 -117.5 -16t-97 -57.5t-51.5 -103.5q-11 -80 41.5 -119.5t146.5 -39.5q137 0 252 53l-57 -361q-117 -38 -229 -47l-29 -61q88 -6 135.5 -61t34.5 -140q-9 -54 -42.5 -93.5t-83 -60.5t-101.5 -30.5t-109 -9.5q-152 0 -260 43l35 227
q70 -39 166 -39q112 0 120 49q4 23 -23 36t-67.5 13t-83.5 -6l64 148q-89 19 -159 61t-118.5 104.5t-68 151.5t-4.5 195q14 108 60 197t110 148t145 99t164 58t168 18q176 0 313 -70z" />
    <glyph glyph-name="egrave" unicode="&#xe8;" horiz-adv-x="1118" 
d="M31 528q15 102 59 186t103.5 139t132.5 92.5t144.5 54t141.5 16.5q125 0 219 -38.5t145.5 -101.5t75 -144.5t17 -168t-38.5 -170.5h-610q16 -64 86.5 -94.5t171.5 -30.5q175 0 305 49l-47 -301q-146 -49 -354 -49q-92 0 -177 20t-161.5 64t-129 108t-76.5 159.5t-7 209.5
zM711 592q15 54 -11.5 96.5t-91.5 42.5q-68 0 -113 -42t-53 -97h269zM854 1090h-375l-196 335h424z" />
    <glyph glyph-name="eacute" unicode="&#xe9;" horiz-adv-x="1118" 
d="M31 528q15 102 59 186t103.5 139t132.5 92.5t144.5 54t141.5 16.5q125 0 219 -38.5t145.5 -101.5t75 -144.5t17 -168t-38.5 -170.5h-610q16 -64 86.5 -94.5t171.5 -30.5q175 0 305 49l-47 -301q-146 -49 -354 -49q-92 0 -177 20t-161.5 64t-129 108t-76.5 159.5t-7 209.5
zM711 592q15 54 -11.5 96.5t-91.5 42.5q-68 0 -113 -42t-53 -97h269zM786 1090h-397l254 335h444z" />
    <glyph glyph-name="ecircumflex" unicode="&#xea;" horiz-adv-x="1118" 
d="M31 528q15 102 59 186t103.5 139t132.5 92.5t144.5 54t141.5 16.5q125 0 219 -38.5t145.5 -101.5t75 -144.5t17 -168t-38.5 -170.5h-610q16 -64 86.5 -94.5t171.5 -30.5q175 0 305 49l-47 -301q-146 -49 -354 -49q-92 0 -177 20t-161.5 64t-129 108t-76.5 159.5t-7 209.5
zM711 592q15 54 -11.5 96.5t-91.5 42.5q-68 0 -113 -42t-53 -97h269zM489 1430h379l207 -351h-344l-72 123l-112 -123h-375z" />
    <glyph glyph-name="edieresis" unicode="&#xeb;" horiz-adv-x="1118" 
d="M31 528q15 102 59 186t103.5 139t132.5 92.5t144.5 54t141.5 16.5q125 0 219 -38.5t145.5 -101.5t75 -144.5t17 -168t-38.5 -170.5h-610q16 -64 86.5 -94.5t171.5 -30.5q175 0 305 49l-47 -301q-146 -49 -354 -49q-92 0 -177 20t-161.5 64t-129 108t-76.5 159.5t-7 209.5
zM711 592q15 54 -11.5 96.5t-91.5 42.5q-68 0 -113 -42t-53 -97h269zM1087 1247q-9 -84 -68 -135t-140 -51q-88 0 -141 57.5t-44 149.5q9 83 68.5 134.5t140.5 51.5q88 0 140.5 -57.5t43.5 -149.5zM616 1247q-9 -84 -68 -135t-140 -51q-88 0 -141 57.5t-44 149.5
q9 83 68.5 134.5t140.5 51.5q88 0 140.5 -57.5t43.5 -149.5z" />
    <glyph glyph-name="igrave" unicode="&#xec;" horiz-adv-x="600" 
d="M584 1090h-387l-123 335h434zM422 0h-432l155 983h433z" />
    <glyph glyph-name="iacute" unicode="&#xed;" horiz-adv-x="600" 
d="M422 0h-432l155 983h433zM535 1090h-398l254 335h445z" />
    <glyph glyph-name="icircumflex" unicode="&#xee;" horiz-adv-x="600" 
d="M422 0h-432l155 983h433zM326 1079h-361l277 351h379l165 -351h-350l-35 123z" />
    <glyph glyph-name="idieresis" unicode="&#xef;" horiz-adv-x="600" 
d="M422 0h-432l155 983h433zM373 1247q-9 -80 -65 -128t-134 -48q-83 0 -133 53.5t-41 141.5q9 80 65 129t134 49q83 0 133 -54.5t41 -142.5zM803 1247q-9 -80 -65 -128t-134 -48q-83 0 -133 53.5t-41 141.5q9 80 65 129t134 49q83 0 133 -54.5t41 -142.5z" />
    <glyph glyph-name="eth" unicode="&#xf0;" horiz-adv-x="1171" 
d="M1116 565q-22 -133 -66 -236.5t-101 -171t-131.5 -111t-152 -61.5t-165.5 -18q-105 0 -198 33t-163 94t-103.5 158.5t-17.5 216.5q13 101 57 180.5t107 127.5t136.5 72.5t152.5 24.5q88 0 163 -32t120 -92q8 46 2 98q-9 138 -119 215l-164 -145l-123 141l103 82
q-70 19 -181 16l31 332q243 0 432 -92l162 139l123 -139l-121 -105q139 -128 196.5 -311.5t20.5 -415.5zM416 432q-7 -68 23 -104.5t89 -36.5q61 0 101 36.5t49 104.5q6 68 -24 104.5t-91 36.5t-100.5 -36.5t-46.5 -104.5z" />
    <glyph glyph-name="ntilde" unicode="&#xf1;" 
d="M508 891q148 125 323 125q92 0 160.5 -34t105 -90.5t49.5 -125t1 -141.5l-98 -625h-433l91 569q7 42 -12 63t-56 21q-58 0 -125 -53l-94 -600h-432l155 983h379zM1126 1430q20 -159 -55.5 -263t-206.5 -104q-57 0 -115 20.5t-104 41t-74 20.5t-42 -22.5t-9 -47.5h-274
q-20 159 55 263t205 104q58 0 116 -20.5t104 -41t73 -20.5q28 0 42 22.5t9 47.5h276z" />
    <glyph glyph-name="ograve" unicode="&#xf2;" 
d="M1153 459q-20 -124 -78.5 -220t-143.5 -154.5t-187.5 -88t-217.5 -29.5q-116 0 -214.5 36t-169.5 103.5t-101.5 175.5t-9.5 242q19 124 75.5 219.5t140 154.5t186.5 88.5t222 29.5q113 0 211 -36t170.5 -103.5t105 -175.5t11.5 -242zM444 481q-8 -68 20.5 -110.5
t96.5 -42.5q74 0 120.5 47.5t55.5 126.5q8 68 -20 110.5t-96 42.5q-74 0 -121 -47.5t-56 -126.5zM889 1081h-375l-197 336h424z" />
    <glyph glyph-name="oacute" unicode="&#xf3;" 
d="M1153 459q-20 -124 -78.5 -220t-143.5 -154.5t-187.5 -88t-217.5 -29.5q-116 0 -214.5 36t-169.5 103.5t-101.5 175.5t-9.5 242q19 124 75.5 219.5t140 154.5t186.5 88.5t222 29.5q113 0 211 -36t170.5 -103.5t105 -175.5t11.5 -242zM444 481q-8 -68 20.5 -110.5
t96.5 -42.5q74 0 120.5 47.5t55.5 126.5q8 68 -20 110.5t-96 42.5q-74 0 -121 -47.5t-56 -126.5zM821 1081h-397l254 336h444z" />
    <glyph glyph-name="ocircumflex" unicode="&#xf4;" 
d="M1153 459q-20 -124 -78.5 -220t-143.5 -154.5t-187.5 -88t-217.5 -29.5q-116 0 -214.5 36t-169.5 103.5t-101.5 175.5t-9.5 242q19 124 75.5 219.5t140 154.5t186.5 88.5t222 29.5q113 0 211 -36t170.5 -103.5t105 -175.5t11.5 -242zM444 481q-8 -68 20.5 -110.5
t96.5 -42.5q74 0 120.5 47.5t55.5 126.5q8 68 -20 110.5t-96 42.5q-74 0 -121 -47.5t-56 -126.5zM524 1421h379l207 -350h-344l-72 123l-112 -123h-375z" />
    <glyph glyph-name="otilde" unicode="&#xf5;" 
d="M1153 459q-20 -124 -78.5 -220t-143.5 -154.5t-187.5 -88t-217.5 -29.5q-116 0 -214.5 36t-169.5 103.5t-101.5 175.5t-9.5 242q19 124 75.5 219.5t140 154.5t186.5 88.5t222 29.5q113 0 211 -36t170.5 -103.5t105 -175.5t11.5 -242zM444 481q-8 -68 20.5 -110.5
t96.5 -42.5q74 0 120.5 47.5t55.5 126.5q8 68 -20 110.5t-96 42.5q-74 0 -121 -47.5t-56 -126.5zM1120 1421q20 -159 -55.5 -262.5t-206.5 -103.5q-57 0 -115 20.5t-104 41t-74 20.5t-42 -22.5t-9 -47.5h-274q-20 159 55 263t205 104q58 0 116 -20.5t104 -41t73 -20.5
q28 0 42 22t9 47h276z" />
    <glyph glyph-name="odieresis" unicode="&#xf6;" 
d="M1153 459q-20 -124 -78.5 -220t-143.5 -154.5t-187.5 -88t-217.5 -29.5q-116 0 -214.5 36t-169.5 103.5t-101.5 175.5t-9.5 242q19 124 75.5 219.5t140 154.5t186.5 88.5t222 29.5q113 0 211 -36t170.5 -103.5t105 -175.5t11.5 -242zM444 481q-8 -68 20.5 -110.5
t96.5 -42.5q74 0 120.5 47.5t55.5 126.5q8 68 -20 110.5t-96 42.5q-74 0 -121 -47.5t-56 -126.5zM1122 1239q-9 -84 -68 -135t-141 -51q-88 0 -140.5 57.5t-43.5 149.5q9 83 68.5 134.5t140.5 51.5q88 0 140.5 -57.5t43.5 -149.5zM651 1239q-9 -84 -68 -135t-141 -51
q-88 0 -140.5 57.5t-43.5 149.5q9 83 68.5 134.5t140.5 51.5q88 0 140.5 -57.5t43.5 -149.5z" />
    <glyph glyph-name="divide" unicode="&#xf7;" horiz-adv-x="1142" 
d="M1079 551h-1030l53 334h1031zM750 209q-16 -102 -86 -152.5t-166 -50.5q-110 0 -174 68t-43 192q16 100 85.5 150.5t163.5 50.5q111 0 175 -67.5t45 -190.5zM903 1171q-16 -102 -86 -152t-166 -50q-110 0 -174 68t-43 192q16 101 85.5 151t164.5 50q111 0 174.5 -68
t44.5 -191z" />
    <glyph glyph-name="oslash" unicode="&#xf8;" 
d="M1139 1112l-154 -192q100 -73 146.5 -189.5t21.5 -271.5q-20 -124 -78.5 -220t-143.5 -154.5t-187.5 -88t-217.5 -29.5q-145 0 -256 51l-118 -149h-107l154 192q-101 71 -147 188.5t-21 274.5q19 124 75.5 219.5t140 154.5t186.5 88.5t222 29.5q145 0 258 -55l121 151
h105zM618 655q-72 0 -118.5 -47.5t-57.5 -126.5q-7 -59 15 -96l209 264q-42 6 -48 6zM561 328q74 0 119.5 47t54.5 127q10 49 -10 90l-205 -258q18 -6 41 -6z" />
    <glyph glyph-name="ugrave" unicode="&#xf9;" 
d="M762 983h432l-156 -983h-381l17 92q-122 -125 -301 -125q-120 0 -204 56t-117.5 145.5t-16.5 196.5l98 618h432l-90 -563q-15 -92 70 -92q72 0 123 55zM897 1090h-375l-196 335h424z" />
    <glyph glyph-name="uacute" unicode="&#xfa;" 
d="M762 983h432l-156 -983h-381l17 92q-122 -125 -301 -125q-120 0 -204 56t-117.5 145.5t-16.5 196.5l98 618h432l-90 -563q-15 -92 70 -92q72 0 123 55zM829 1090h-397l254 335h444z" />
    <glyph glyph-name="ucircumflex" unicode="&#xfb;" 
d="M762 983h432l-156 -983h-381l17 92q-122 -125 -301 -125q-120 0 -204 56t-117.5 145.5t-16.5 196.5l98 618h432l-90 -563q-15 -92 70 -92q72 0 123 55zM532 1430h379l207 -351h-344l-72 123l-112 -123h-375z" />
    <glyph glyph-name="udieresis" unicode="&#xfc;" 
d="M762 983h432l-156 -983h-381l17 92q-122 -125 -301 -125q-120 0 -204 56t-117.5 145.5t-16.5 196.5l98 618h432l-90 -563q-15 -92 70 -92q72 0 123 55zM1130 1247q-9 -84 -68 -135t-140 -51q-88 0 -141 57.5t-44 149.5q9 83 68.5 134.5t140.5 51.5q88 0 140.5 -57.5
t43.5 -149.5zM659 1247q-9 -84 -68 -135t-140 -51q-88 0 -141 57.5t-44 149.5q9 83 68.5 134.5t140.5 51.5q88 0 140.5 -57.5t43.5 -149.5z" />
    <glyph glyph-name="yacute" unicode="&#xfd;" horiz-adv-x="1234" 
d="M610 451l211 532h469l-538 -1053q-61 -119 -131.5 -202t-145 -127t-146 -63t-151.5 -19q-126 0 -235 41l55 344q62 -23 127 -23q139 0 221 144l-293 958h436zM829 1090h-397l254 335h444z" />
    <glyph glyph-name="thorn" unicode="&#xfe;" horiz-adv-x="1280" 
d="M348 -451h-432l301 1885h430l-82 -512q121 94 266 94q144 0 240.5 -79.5t131 -204t11.5 -269.5q-16 -100 -54 -186.5t-98.5 -157t-151.5 -111.5t-201 -41q-89 0 -161 33t-116 82zM479 377q28 -64 109 -64q74 0 125 53.5t65 131.5q10 68 -17.5 120t-96.5 52
q-87 0 -150 -78z" />
    <glyph glyph-name="ydieresis" unicode="&#xff;" horiz-adv-x="1234" 
d="M610 451l211 532h469l-538 -1053q-61 -119 -131.5 -202t-145 -127t-146 -63t-151.5 -19q-126 0 -235 41l55 344q62 -23 127 -23q139 0 221 144l-293 958h436zM1130 1247q-9 -84 -68 -135t-140 -51q-88 0 -141 57.5t-44 149.5q9 83 68.5 134.5t140.5 51.5
q88 0 140.5 -57.5t43.5 -149.5zM659 1247q-9 -84 -68 -135t-140 -51q-88 0 -141 57.5t-44 149.5q9 83 68.5 134.5t140.5 51.5q88 0 140.5 -57.5t43.5 -149.5z" />
    <glyph glyph-name="Amacron" unicode="&#x100;" horiz-adv-x="1566" 
d="M1479 0h-461l-33 190h-506l-92 -190h-487l762 1434h509zM795 846l-154 -314h289l-51 312q-15 103 -15 184q-35 -113 -69 -182zM614 1847h744l-47 -297h-744z" />
    <glyph glyph-name="amacron" unicode="&#x101;" horiz-adv-x="1277" 
d="M737 106q-112 -139 -323 -139q-90 0 -162 30t-118 82.5t-76 123t-34 150.5t7 167q16 99 55 186t101 157.5t154 111.5t202 41q109 0 190 -50.5t121 -127.5l23 145h378l-155 -983h-379zM467 483q-9 -72 21 -121t94 -49q87 0 149 76l35 213q-9 30 -38.5 49t-68.5 19
q-77 0 -128 -53.5t-64 -133.5zM373 1417h743l-47 -297h-743z" />
    <glyph glyph-name="Abreve" unicode="&#x102;" horiz-adv-x="1566" 
d="M1479 0h-461l-33 190h-506l-92 -190h-487l762 1434h509zM795 846l-154 -314h289l-51 312q-15 103 -15 184q-35 -113 -69 -182zM1321 1618q-168 -105 -371 -105q-228 0 -370 105l47 293q138 -94 344 -94q228 0 395 94z" />
    <glyph glyph-name="abreve" unicode="&#x103;" horiz-adv-x="1277" 
d="M737 106q-112 -139 -323 -139q-90 0 -162 30t-118 82.5t-76 123t-34 150.5t7 167q16 99 55 186t101 157.5t154 111.5t202 41q109 0 190 -50.5t121 -127.5l23 145h378l-155 -983h-379zM467 483q-9 -72 21 -121t94 -49q87 0 149 76l35 213q-9 30 -38.5 49t-68.5 19
q-77 0 -128 -53.5t-64 -133.5zM1079 1188q-168 -105 -370 -105q-229 0 -371 105l47 293q140 -95 344 -95q226 0 395 95z" />
    <glyph glyph-name="Aogonek" unicode="&#x104;" horiz-adv-x="1566" 
d="M1479 0q-53 -38 -91 -86.5t-38 -81.5q0 -37 45 -37q28 0 51 10l-41 -260q-74 -28 -170 -28q-118 0 -188.5 56.5t-63.5 154.5q5 68 55 140.5t142 131.5h-162l-33 190h-506l-92 -190h-487l762 1434h509zM795 846l-154 -314h289l-51 312q-15 103 -15 184q-35 -113 -69 -182z
" />
    <glyph glyph-name="aogonek" unicode="&#x105;" horiz-adv-x="1277" 
d="M1255 983l-155 -983q-53 -38 -91 -86.5t-38 -81.5q0 -37 45 -37q28 0 51 10l-41 -260q-74 -28 -170 -28q-118 0 -188.5 56.5t-63.5 154.5q5 68 55 140.5t142 131.5h-80l16 106q-112 -139 -323 -139q-90 0 -162 30t-118 82.5t-76 123t-34 150.5t7 167q16 99 55 186
t101 157.5t154 111.5t202 41q109 0 190 -50.5t121 -127.5l23 145h378zM582 313q87 0 149 76l35 213q-9 30 -38.5 49t-68.5 19q-77 0 -128 -53.5t-64 -133.5q-9 -72 21 -121t94 -49z" />
    <glyph glyph-name="Cacute" unicode="&#x106;" horiz-adv-x="1320" 
d="M70 739q24 150 89.5 274.5t154.5 207t198.5 139t219.5 81.5t220 25q239 0 418 -98l-63 -399q-48 39 -128.5 63.5t-168.5 24.5q-78 0 -150 -18.5t-137.5 -57t-112 -108t-61.5 -162.5q-13 -79 8 -143t66.5 -103.5t106 -60.5t128.5 -21q214 0 383 102l-70 -438
q-175 -80 -405 -80q-121 0 -232 28t-207.5 89.5t-162 150t-92 218.5t-2.5 286zM1102 1540h-397l253 336h445z" />
    <glyph glyph-name="cacute" unicode="&#x107;" horiz-adv-x="1003" 
d="M27 498q14 108 60 197t110 148t145 99t164 58t168 18q175 0 315 -70l-53 -334q-91 48 -201 48q-101 0 -177.5 -43t-90.5 -134q-11 -80 42.5 -119.5t147.5 -39.5q138 0 250 53l-55 -361q-149 -51 -309 -51q-121 0 -221.5 34t-173.5 98.5t-106 167t-15 231.5zM770 1090
h-397l254 335h444z" />
    <glyph glyph-name="Cdotaccent" unicode="&#x10a;" horiz-adv-x="1320" 
d="M70 739q24 150 89.5 274.5t154.5 207t198.5 139t219.5 81.5t220 25q239 0 418 -98l-63 -399q-48 39 -128.5 63.5t-168.5 24.5q-78 0 -150 -18.5t-137.5 -57t-112 -108t-61.5 -162.5q-13 -79 8 -143t66.5 -103.5t106 -60.5t128.5 -21q214 0 383 102l-70 -438
q-175 -80 -405 -80q-121 0 -232 28t-207.5 89.5t-162 150t-92 218.5t-2.5 286zM1184 1714q-14 -94 -75 -137t-148 -43q-101 0 -159.5 60.5t-39.5 174.5q14 92 76 136.5t149 44.5q100 0 157.5 -61.5t39.5 -174.5z" />
    <glyph glyph-name="cdotaccent" unicode="&#x10b;" horiz-adv-x="1003" 
d="M27 498q14 108 60 197t110 148t145 99t164 58t168 18q175 0 315 -70l-53 -334q-91 48 -201 48q-101 0 -177.5 -43t-90.5 -134q-11 -80 42.5 -119.5t147.5 -39.5q138 0 250 53l-55 -361q-149 -51 -309 -51q-121 0 -221.5 34t-173.5 98.5t-106 167t-15 231.5zM852 1264
q-14 -94 -75 -137.5t-148 -43.5q-101 0 -159.5 61t-39.5 175q14 92 76 136t149 44q100 0 157.5 -61t39.5 -174z" />
    <glyph glyph-name="Ccaron" unicode="&#x10c;" horiz-adv-x="1320" 
d="M70 739q24 150 89.5 274.5t154.5 207t198.5 139t219.5 81.5t220 25q239 0 418 -98l-63 -399q-48 39 -128.5 63.5t-168.5 24.5q-78 0 -150 -18.5t-137.5 -57t-112 -108t-61.5 -162.5q-13 -79 8 -143t66.5 -103.5t106 -60.5t128.5 -21q214 0 383 102l-70 -438
q-175 -80 -405 -80q-121 0 -232 28t-207.5 89.5t-162 150t-92 218.5t-2.5 286zM1466 1890l-325 -350h-379l-215 350h356l78 -133l125 133h360z" />
    <glyph glyph-name="ccaron" unicode="&#x10d;" horiz-adv-x="1003" 
d="M27 498q14 108 60 197t110 148t145 99t164 58t168 18q175 0 315 -70l-53 -334q-91 48 -201 48q-101 0 -177.5 -43t-90.5 -134q-11 -80 42.5 -119.5t147.5 -39.5q138 0 250 53l-55 -361q-149 -51 -309 -51q-121 0 -221.5 34t-173.5 98.5t-106 167t-15 231.5zM1135 1440
l-326 -350h-379l-215 350h356l78 -133l125 133h361z" />
    <glyph glyph-name="Dcaron" unicode="&#x10e;" horiz-adv-x="1521" 
d="M240 1434h606q182 0 318 -55.5t213.5 -155t105.5 -235.5t2 -300q-25 -155 -87.5 -279t-163.5 -216.5t-249.5 -142.5t-335.5 -50h-637zM1008 733q51 303 -213 303h-146l-100 -639h123q286 0 336 336zM1331 1890l-325 -350h-379l-215 350h356l78 -133l125 133h360z" />
    <glyph glyph-name="dcaron" unicode="&#x10f;" horiz-adv-x="1275" 
d="M1430 1434h352l-150 -441h-305zM897 1434h430l-227 -1434h-379l18 117q-118 -150 -323 -150q-87 0 -158.5 30t-118 82.5t-77 123t-35.5 150.5t6 167q15 98 55 185.5t102.5 158t153.5 111.5t199 41q91 0 159.5 -32t108.5 -87zM766 604q-11 28 -40.5 47t-66.5 19
q-77 0 -128.5 -53t-63.5 -134q-9 -73 21 -121.5t94 -48.5q85 -3 149 76z" />
    <glyph glyph-name="Dcroat" unicode="&#x110;" horiz-adv-x="1550" 
d="M268 1434h606q241 0 398.5 -96.5t216 -263.5t24.5 -386q-25 -155 -87 -279t-163 -216.5t-249.5 -142.5t-335.5 -50h-637l90 575h-119l45 279h119zM698 397q286 0 336 336q51 303 -213 303h-145l-29 -182h209l-45 -279h-207l-29 -178h123z" />
    <glyph glyph-name="dcroat" unicode="&#x111;" horiz-adv-x="1275" 
d="M1307 1307h120l-32 -211h-121l-174 -1096h-379l18 117q-118 -150 -323 -150q-87 0 -158.5 30t-118 82.5t-77 123t-35.5 150.5t6 167q15 98 55 185.5t102.5 158t153.5 111.5t199 41q91 0 159.5 -32t108.5 -87l33 199h-250l33 211h250l20 127h430zM582 313q87 0 149 76
l35 215q-11 28 -40.5 47t-66.5 19q-77 0 -128.5 -53t-63.5 -134q-9 -73 21 -121.5t94 -48.5z" />
    <glyph glyph-name="Emacron" unicode="&#x112;" horiz-adv-x="1271" 
d="M240 1434h1085l-59 -373h-615l-24 -166h540l-55 -348h-541l-26 -170h624l-59 -377h-1098zM485 1847h744l-47 -297h-744z" />
    <glyph glyph-name="emacron" unicode="&#x113;" horiz-adv-x="1118" 
d="M31 528q15 102 59 186t103.5 139t132.5 92.5t144.5 54t141.5 16.5q125 0 219 -38.5t145.5 -101.5t75 -144.5t17 -168t-38.5 -170.5h-610q16 -64 86.5 -94.5t171.5 -30.5q175 0 305 49l-47 -301q-146 -49 -354 -49q-92 0 -177 20t-161.5 64t-129 108t-76.5 159.5t-7 209.5
zM711 592q15 54 -11.5 96.5t-91.5 42.5q-68 0 -113 -42t-53 -97h269zM309 1397h744l-47 -297h-744z" />
    <glyph glyph-name="Edotaccent" unicode="&#x116;" horiz-adv-x="1271" 
d="M240 1434h1085l-59 -373h-615l-24 -166h540l-55 -348h-541l-26 -170h624l-59 -377h-1098zM1044 1714q-14 -94 -75 -137t-148 -43q-101 0 -159 60.5t-39 174.5q14 92 76 136.5t149 44.5q100 0 157 -61.5t39 -174.5z" />
    <glyph glyph-name="edotaccent" unicode="&#x117;" horiz-adv-x="1118" 
d="M31 528q15 102 59 186t103.5 139t132.5 92.5t144.5 54t141.5 16.5q125 0 219 -38.5t145.5 -101.5t75 -144.5t17 -168t-38.5 -170.5h-610q16 -64 86.5 -94.5t171.5 -30.5q175 0 305 49l-47 -301q-146 -49 -354 -49q-92 0 -177 20t-161.5 64t-129 108t-76.5 159.5t-7 209.5
zM711 592q15 54 -11.5 96.5t-91.5 42.5q-68 0 -113 -42t-53 -97h269zM868 1264q-14 -94 -75 -137.5t-148 -43.5q-101 0 -159.5 61t-39.5 175q14 92 76.5 136t149.5 44q100 0 157 -61t39 -174z" />
    <glyph glyph-name="Eogonek" unicode="&#x118;" horiz-adv-x="1271" 
d="M1325 1434l-59 -373h-615l-24 -166h540l-55 -348h-541l-26 -170h624l-59 -377q-53 -38 -91 -86.5t-38 -81.5q0 -37 45 -37q28 0 51 10l-41 -260q-74 -28 -170 -28q-118 0 -188.5 56.5t-63.5 154.5q5 68 55 140.5t142 131.5h-799l228 1434h1085z" />
    <glyph glyph-name="eogonek" unicode="&#x119;" horiz-adv-x="1118" 
d="M819 -457q-74 -28 -170 -28q-118 0 -188.5 56.5t-63.5 154.5q5 60 47.5 125t122.5 124q-57 0 -112 9q-101 15 -183.5 55.5t-144 106t-88 164t-8.5 218.5q15 102 58.5 186t103 139t132.5 92.5t145 54t142 16.5q124 0 217.5 -38.5t145 -101.5t75.5 -144.5t17.5 -168
t-37.5 -170.5h-610q14 -64 84.5 -94.5t171.5 -30.5q175 0 305 49l-47 -301q-80 -49 -125 -100t-45 -86q0 -37 45 -37q30 0 51 12zM606 731q-68 0 -113 -42t-53 -97h269q15 54 -11.5 96.5t-91.5 42.5z" />
    <glyph glyph-name="Ecaron" unicode="&#x11a;" horiz-adv-x="1271" 
d="M240 1434h1085l-59 -373h-615l-24 -166h540l-55 -348h-541l-26 -170h624l-59 -377h-1098zM1327 1890l-326 -350h-378l-215 350h356l78 -133l125 133h360z" />
    <glyph glyph-name="ecaron" unicode="&#x11b;" horiz-adv-x="1118" 
d="M31 528q15 102 59 186t103.5 139t132.5 92.5t144.5 54t141.5 16.5q125 0 219 -38.5t145.5 -101.5t75 -144.5t17 -168t-38.5 -170.5h-610q16 -64 86.5 -94.5t171.5 -30.5q175 0 305 49l-47 -301q-146 -49 -354 -49q-92 0 -177 20t-161.5 64t-129 108t-76.5 159.5t-7 209.5
zM711 592q15 54 -11.5 96.5t-91.5 42.5q-68 0 -113 -42t-53 -97h269zM1151 1440l-326 -350h-379l-215 350h357l78 -133l125 133h360z" />
    <glyph glyph-name="Gbreve" unicode="&#x11e;" horiz-adv-x="1417" 
d="M72 745q24 151 89.5 274.5t153.5 205t198 137t221 80t224 24.5q267 0 459 -92l-63 -403q-122 84 -334 84q-82 0 -156.5 -20t-140.5 -60.5t-111.5 -111t-60.5 -163.5q-8 -63 -5 -110.5t22 -82t42 -57.5t55 -36.5t62 -19t61 -5.5q43 0 76 10l66 402h442l-119 -744
q-206 -90 -469 -90q-127 0 -242.5 30t-212.5 93t-162.5 153t-92 219.5t-2.5 282.5zM1333 1618q-168 -105 -370 -105q-229 0 -371 105l47 293q138 -94 344 -94q228 0 395 94z" />
    <glyph glyph-name="gbreve" unicode="&#x11f;" horiz-adv-x="1277" 
d="M1110 49q-18 -115 -63.5 -206.5t-107.5 -151.5t-141.5 -100t-162.5 -57t-174 -17q-272 0 -469 90l55 346q160 -86 338 -86q119 0 198 45t95 139l6 41q-91 -102 -264 -102q-90 0 -162.5 29t-119 79t-77 118.5t-35 148t6.5 165.5q16 98 57 184.5t104.5 154.5t154 107.5
t196.5 39.5q103 0 183.5 -45t125.5 -119l23 131h378zM469 489q-9 -73 21 -122t94 -50q86 0 149 78l35 215q-11 29 -40 47.5t-66 18.5q-77 0 -128.5 -53.5t-64.5 -133.5zM1044 1167q-85 -53 -172.5 -78.5t-197.5 -25.5q-230 0 -371 104l47 293q138 -94 344 -94q229 0 396 94z
" />
    <glyph glyph-name="Gdotaccent" unicode="&#x120;" horiz-adv-x="1417" 
d="M72 745q24 151 89.5 274.5t153.5 205t198 137t221 80t224 24.5q267 0 459 -92l-63 -403q-122 84 -334 84q-82 0 -156.5 -20t-140.5 -60.5t-111.5 -111t-60.5 -163.5q-8 -63 -5 -110.5t22 -82t42 -57.5t55 -36.5t62 -19t61 -5.5q43 0 76 10l66 402h442l-119 -744
q-206 -90 -469 -90q-127 0 -242.5 30t-212.5 93t-162.5 153t-92 219.5t-2.5 282.5zM1186 1714q-14 -94 -75 -137t-148 -43q-101 0 -159.5 60.5t-39.5 174.5q14 92 76 136.5t149 44.5q100 0 157.5 -61.5t39.5 -174.5z" />
    <glyph glyph-name="gdotaccent" unicode="&#x121;" horiz-adv-x="1277" 
d="M1110 49q-18 -115 -63.5 -206.5t-107.5 -151.5t-141.5 -100t-162.5 -57t-174 -17q-272 0 -469 90l55 346q160 -86 338 -86q119 0 198 45t95 139l6 41q-91 -102 -264 -102q-90 0 -162.5 29t-119 79t-77 118.5t-35 148t6.5 165.5q16 98 57 184.5t104.5 154.5t154 107.5
t196.5 39.5q103 0 183.5 -45t125.5 -119l23 131h378zM469 489q-9 -73 21 -122t94 -50q86 0 149 78l35 215q-11 29 -40 47.5t-66 18.5q-77 0 -128.5 -53.5t-64.5 -133.5zM897 1264q-14 -94 -75 -137.5t-148 -43.5q-101 0 -159.5 61t-39.5 175q14 92 76 136t149 44
q100 0 157.5 -61t39.5 -174z" />
    <glyph glyph-name="Gcommaaccent" unicode="&#x122;" horiz-adv-x="1417" 
d="M72 745q24 151 89.5 274.5t153.5 205t198 137t221 80t224 24.5q267 0 459 -92l-63 -403q-122 84 -334 84q-82 0 -156.5 -20t-140.5 -60.5t-111.5 -111t-60.5 -163.5q-8 -63 -5 -110.5t22 -82t42 -57.5t55 -36.5t62 -19t61 -5.5q43 0 76 10l66 402h442l-119 -744
q-206 -90 -469 -90q-127 0 -242.5 30t-212.5 93t-162.5 153t-92 219.5t-2.5 282.5zM813 -588h-326l131 457h386z" />
    <glyph glyph-name="gcommaaccent" unicode="&#x123;" horiz-adv-x="1277" 
d="M836 1090h-359l178 442h312zM1110 49q-18 -115 -63.5 -206.5t-107.5 -151.5t-141.5 -100t-162.5 -57t-174 -17q-272 0 -469 90l55 346q160 -86 338 -86q119 0 198 45t95 139l6 41q-91 -102 -264 -102q-90 0 -162.5 29t-119 79t-77 118.5t-35 148t6.5 165.5
q16 98 57 184.5t104.5 154.5t154 107.5t196.5 39.5q103 0 183.5 -45t125.5 -119l23 131h378zM469 489q-9 -73 21 -122t94 -50q86 0 149 78l35 215q-11 29 -40 47.5t-66 18.5q-77 0 -128.5 -53.5t-64.5 -133.5z" />
    <glyph glyph-name="Hbar" unicode="&#x126;" horiz-adv-x="1615" 
d="M518 0h-473l168 1059h-133l33 215h135l24 160h471l-24 -160h391l25 160h471l-25 -160h135l-35 -215h-133l-170 -1059h-471l82 518h-389zM684 1059l-22 -146h391l22 146h-391z" />
    <glyph glyph-name="hbar" unicode="&#x127;" 
d="M567 934q134 82 256 82q94 0 164 -34t107.5 -90.5t51 -125.5t1.5 -143l-98 -623h-433l91 569q7 41 -12 62.5t-56 21.5q-66 0 -125 -55l-94 -598h-432l174 1096h-125l33 211h125l20 127h432l-20 -127h241l-32 -211h-242z" />
    <glyph glyph-name="Imacron" unicode="&#x12a;" horiz-adv-x="688" 
d="M240 1434h473l-228 -1434h-473zM172 1847h743l-47 -297h-743z" />
    <glyph glyph-name="imacron" unicode="&#x12b;" horiz-adv-x="600" 
d="M692 1128h-602l43 271h602zM422 0h-432l155 983h433z" />
    <glyph glyph-name="Iogonek" unicode="&#x12e;" horiz-adv-x="688" 
d="M713 1434l-228 -1434q-53 -38 -91 -86.5t-38 -81.5q0 -37 45 -37q29 0 52 10l-41 -260q-74 -28 -170 -28q-118 0 -188.5 56.5t-63.5 154.5q5 68 55 140.5t141 131.5h-174l228 1434h473z" />
    <glyph glyph-name="iogonek" unicode="&#x12f;" horiz-adv-x="600" 
d="M182 1325q16 96 82.5 144.5t157.5 48.5q102 0 162 -64t41 -180q-14 -96 -80.5 -144.5t-157.5 -48.5q-102 0 -162.5 64t-42.5 180zM121 0h-131l155 983h433l-156 -983q-48 -41 -82.5 -88.5t-34.5 -79.5q0 -37 45 -37q28 0 51 10l-41 -260q-74 -28 -170 -28
q-118 0 -188 56.5t-63 154.5q5 67 52 140t130 132z" />
    <glyph glyph-name="Idotaccent" unicode="&#x130;" horiz-adv-x="688" 
d="M240 1434h473l-228 -1434h-473zM731 1714q-14 -94 -75 -137t-148 -43q-101 0 -159.5 60.5t-39.5 174.5q14 92 76.5 136.5t149.5 44.5q100 0 157 -61.5t39 -174.5z" />
    <glyph glyph-name="dotlessi" unicode="&#x131;" horiz-adv-x="600" 
d="M422 0h-432l155 983h433z" />
    <glyph glyph-name="IJ" unicode="&#x132;" horiz-adv-x="1746" 
d="M240 1434h473l-228 -1434h-473zM981 1434h803l-150 -949q-19 -118 -62.5 -208.5t-101 -147t-134.5 -92t-155.5 -49t-170.5 -13.5q-112 0 -213.5 18.5t-165.5 49.5l63 401q103 -41 228 -41q227 0 252 166l71 451h-327z" />
    <glyph glyph-name="ij" unicode="&#x133;" horiz-adv-x="1202" 
d="M422 0h-432l155 983h433zM633 1274q-14 -96 -80.5 -144.5t-157.5 -48.5q-102 0 -162.5 64t-42.5 180q16 96 82.5 144.5t157.5 48.5q102 0 162 -64t41 -180zM1001 -131q-15 -96 -55.5 -166t-101 -109.5t-130 -58t-151.5 -18.5q-144 0 -237 41l53 340q39 -13 84 -13
q59 0 89 27.5t40 91.5l156 979h430zM1235 1274q-14 -96 -80.5 -144.5t-157.5 -48.5q-102 0 -162 64t-42 180q16 96 82 144.5t157 48.5q102 0 162 -64t41 -180z" />
    <glyph glyph-name="Kcommaaccent" unicode="&#x136;" horiz-adv-x="1490" 
d="M1118 1434h529l-555 -725l323 -709h-497l-226 512h-127l-80 -512h-473l228 1434h473l-82 -508h125zM713 -567h-326l131 456h385z" />
    <glyph glyph-name="kcommaaccent" unicode="&#x137;" horiz-adv-x="1218" 
d="M813 983h479l-393 -512l227 -471h-444l-139 332h-72l-51 -332h-432l227 1434h432l-123 -766h64zM553 -567h-326l131 456h385z" />
    <glyph glyph-name="Lacute" unicode="&#x139;" horiz-adv-x="1214" 
d="M240 1434h473l-162 -1020h614l-67 -414h-1086zM684 1540h-397l254 336h444z" />
    <glyph glyph-name="lacute" unicode="&#x13a;" horiz-adv-x="602" 
d="M227 1495h432l-237 -1495h-432zM649 1597h-397l254 336h444z" />
    <glyph glyph-name="Lcommaaccent" unicode="&#x13b;" horiz-adv-x="1214" 
d="M240 1434h473l-162 -1020h614l-67 -414h-1086zM573 -567h-325l131 456h385z" />
    <glyph glyph-name="lcommaaccent" unicode="&#x13c;" horiz-adv-x="602" 
d="M227 1495h432l-237 -1495h-432zM197 -567h-326l131 456h385z" />
    <glyph glyph-name="Lcaron" unicode="&#x13d;" horiz-adv-x="1222" 
d="M928 1434h352l-162 -476h-297zM240 1434h473l-162 -1020h614l-67 -414h-1086z" />
    <glyph glyph-name="lcaron" unicode="&#x13e;" horiz-adv-x="602" 
d="M766 1495h352l-155 -475h-306zM227 1495h432l-237 -1495h-432z" />
    <glyph glyph-name="Ldot" unicode="&#x13f;" horiz-adv-x="1239" 
d="M1161 825q-14 -91 -76.5 -135.5t-148.5 -44.5q-97 0 -155 61.5t-40 174.5q13 90 75.5 135t146.5 45q100 0 158 -62t40 -174zM240 1434h473l-162 -1020h614l-67 -414h-1086z" />
    <glyph glyph-name="ldot" unicode="&#x140;" horiz-adv-x="1052" 
d="M227 1495h432l-237 -1495h-432zM1077 690q-16 -103 -85.5 -154t-166.5 -51q-108 0 -172 68.5t-45 191.5q16 102 86 152.5t166 50.5q110 0 174 -67.5t43 -190.5z" />
    <glyph glyph-name="Lslash" unicode="&#x141;" horiz-adv-x="1318" 
d="M1204 0h-1085l69 449l-170 -58l58 381l174 57l96 605h471l-69 -439l280 97l-57 -381l-283 -97l-33 -200h615z" />
    <glyph glyph-name="lslash" unicode="&#x142;" horiz-adv-x="817" 
d="M338 1495h430l-90 -567l153 55l-49 -321l-155 -54l-97 -608h-430l70 438l-154 -55l52 324l151 53z" />
    <glyph glyph-name="Nacute" unicode="&#x143;" horiz-adv-x="1560" 
d="M485 0h-473l228 1434h356l424 -691q3 125 22 242l70 449h473l-227 -1434h-357l-421 688q0 -82 -21 -233zM1047 1540h-398l254 336h445z" />
    <glyph glyph-name="nacute" unicode="&#x144;" 
d="M508 891q148 125 323 125q92 0 160.5 -34t105 -90.5t49.5 -125t1 -141.5l-98 -625h-433l91 569q7 42 -12 63t-56 21q-58 0 -125 -53l-94 -600h-432l155 983h379zM827 1090h-397l254 335h444z" />
    <glyph glyph-name="Ncommaaccent" unicode="&#x145;" horiz-adv-x="1560" 
d="M485 0h-473l228 1434h356l424 -691q3 125 22 242l70 449h473l-227 -1434h-357l-421 688q0 -82 -21 -233zM741 -567h-325l131 456h385z" />
    <glyph glyph-name="ncommaaccent" unicode="&#x146;" 
d="M508 891q148 125 323 125q92 0 160.5 -34t105 -90.5t49.5 -125t1 -141.5l-98 -625h-433l91 569q7 42 -12 63t-56 21q-58 0 -125 -53l-94 -600h-432l155 983h379zM518 -567h-325l131 456h385z" />
    <glyph glyph-name="Ncaron" unicode="&#x147;" horiz-adv-x="1560" 
d="M485 0h-473l228 1434h356l424 -691q3 125 22 242l70 449h473l-227 -1434h-357l-421 688q0 -82 -21 -233zM1411 1890l-326 -350h-378l-215 350h356l78 -133l125 133h360z" />
    <glyph glyph-name="ncaron" unicode="&#x148;" 
d="M508 891q148 125 323 125q92 0 160.5 -34t105 -90.5t49.5 -125t1 -141.5l-98 -625h-433l91 569q7 42 -12 63t-56 21q-58 0 -125 -53l-94 -600h-432l155 983h379zM1192 1440l-326 -350h-379l-215 350h357l78 -133l124 133h361z" />
    <glyph glyph-name="Eng" unicode="&#x14a;" horiz-adv-x="1560" 
d="M1352 -37q-34 -216 -153.5 -327t-319.5 -111q-96 0 -201 24l55 357q27 -12 66 -12q92 0 110 114l19 111l-348 571q0 -82 -21 -233l-74 -457h-473l228 1434h354l426 -689q3 125 22 242l70 447h473z" />
    <glyph glyph-name="eng" unicode="&#x14b;" 
d="M1030 -119q-14 -86 -44.5 -151.5t-70 -105t-93 -64.5t-106.5 -34t-116 -9q-116 0 -192 41l51 323q27 -10 59 -10q79 0 94 109l95 589q7 42 -12 63t-56 21q-58 0 -125 -53l-94 -600h-432l155 983h379l-14 -92q148 125 323 125q92 0 160.5 -34t105 -90.5t49.5 -125
t1 -141.5z" />
    <glyph glyph-name="Omacron" unicode="&#x14c;" horiz-adv-x="1648" 
d="M1616 688q-23 -151 -92 -280.5t-177 -228.5t-263.5 -155.5t-338.5 -56.5q-185 0 -327.5 61.5t-225 168t-114.5 247.5t-6 301q24 151 93 280.5t176.5 228.5t262.5 155.5t338 56.5q122 0 227.5 -28t184 -78.5t138.5 -122t91 -158t42 -185.5t-9 -206zM551 692
q-17 -138 43.5 -217.5t189.5 -79.5q146 0 241 93t114 253q19 138 -42 217.5t-192 79.5q-144 0 -238 -92.5t-116 -253.5zM651 1847h744l-47 -297h-744z" />
    <glyph glyph-name="omacron" unicode="&#x14d;" 
d="M1153 459q-20 -124 -78.5 -220t-143.5 -154.5t-187.5 -88t-217.5 -29.5q-116 0 -214.5 36t-169.5 103.5t-101.5 175.5t-9.5 242q19 124 75.5 219.5t140 154.5t186.5 88.5t222 29.5q113 0 211 -36t170.5 -103.5t105 -175.5t11.5 -242zM444 481q-8 -68 20.5 -110.5
t96.5 -42.5q74 0 120.5 47.5t55.5 126.5q8 68 -20 110.5t-96 42.5q-74 0 -121 -47.5t-56 -126.5zM344 1389h743l-47 -297h-743z" />
    <glyph glyph-name="Ohungarumlaut" unicode="&#x150;" horiz-adv-x="1648" 
d="M1616 688q-23 -151 -92 -280.5t-177 -228.5t-263.5 -155.5t-338.5 -56.5q-185 0 -327.5 61.5t-225 168t-114.5 247.5t-6 301q24 151 93 280.5t176.5 228.5t262.5 155.5t338 56.5q122 0 227.5 -28t184 -78.5t138.5 -122t91 -158t42 -185.5t-9 -206zM551 692
q-17 -138 43.5 -217.5t189.5 -79.5q146 0 241 93t114 253q19 138 -42 217.5t-192 79.5q-144 0 -238 -92.5t-116 -253.5zM1370 1542h-354l229 344h381zM926 1542h-355l213 344h379z" />
    <glyph glyph-name="ohungarumlaut" unicode="&#x151;" 
d="M1153 459q-20 -124 -78.5 -220t-143.5 -154.5t-187.5 -88t-217.5 -29.5q-116 0 -214.5 36t-169.5 103.5t-101.5 175.5t-9.5 242q19 124 75.5 219.5t140 154.5t186.5 88.5t222 29.5q113 0 211 -36t170.5 -103.5t105 -175.5t11.5 -242zM444 481q-8 -68 20.5 -110.5
t96.5 -42.5q74 0 120.5 47.5t55.5 126.5q8 68 -20 110.5t-96 42.5q-74 0 -121 -47.5t-56 -126.5zM1063 1083h-354l229 344h381zM618 1083h-354l213 344h379z" />
    <glyph glyph-name="OE" unicode="&#x152;" horiz-adv-x="2099" 
d="M930 0q-103 -33 -232 -33q-172 0 -305 61.5t-210.5 167.5t-107 247.5t-3.5 301.5q24 150 91 280t170 229t248.5 155.5t315.5 56.5q130 0 242 -32h1013l-59 -373h-539l-24 -166h465l-56 -348h-464l-27 -170h549l-60 -377h-1007zM549 705q-22 -145 48.5 -229.5t178.5 -84.5
q121 0 211 53l90 562q-63 36 -162 36q-60 0 -117.5 -19t-109.5 -58t-89 -106t-50 -154z" />
    <glyph glyph-name="oe" unicode="&#x153;" horiz-adv-x="1847" 
d="M905 117q-153 -150 -409 -150q-86 0 -163.5 22.5t-140.5 68t-105 112.5t-58 156t2 200q16 100 55.5 181.5t96 138.5t129.5 96t153.5 57.5t169.5 18.5q221 0 342 -139q152 137 379 137q112 1 200.5 -33t141.5 -94t79.5 -139t21 -170.5t-41.5 -186.5h-610
q16 -64 86.5 -94.5t171.5 -30.5q175 0 305 49l-47 -301q-146 -49 -352 -49q-124 0 -230 38t-176 112zM446 481q-8 -62 18.5 -107.5t92.5 -45.5q83 0 128.5 48.5t53.5 129.5q7 62 -19 105.5t-91 43.5q-83 0 -129 -47.5t-54 -126.5zM1337 733q-68 0 -113 -42t-53 -97h269
q15 54 -11.5 96.5t-91.5 42.5z" />
    <glyph glyph-name="Racute" unicode="&#x154;" horiz-adv-x="1492" 
d="M485 0h-473l228 1434h655q90 0 172 -16.5t158 -56t127.5 -98.5t74.5 -152.5t5 -209.5q-45 -290 -306 -407l281 -494h-500l-221 424h-135zM653 1049l-43 -271h172q70 0 120.5 39t60.5 103q8 57 -24.5 93t-96.5 36h-189zM952 1540h-397l254 336h444z" />
    <glyph glyph-name="racute" unicode="&#x155;" horiz-adv-x="860" 
d="M508 877q59 71 158.5 105.5t230.5 18.5l-63 -397q-90 30 -185 10t-145 -79l-84 -535h-432l155 983h381zM676 1090h-397l253 335h445z" />
    <glyph glyph-name="Rcommaaccent" unicode="&#x156;" horiz-adv-x="1492" 
d="M485 0h-473l228 1434h655q90 0 172 -16.5t158 -56t127.5 -98.5t74.5 -152.5t5 -209.5q-45 -290 -306 -407l281 -494h-500l-221 424h-135zM653 1049l-43 -271h172q70 0 120.5 39t60.5 103q8 57 -24.5 93t-96.5 36h-189zM702 -567h-325l131 456h385z" />
    <glyph glyph-name="rcommaaccent" unicode="&#x157;" horiz-adv-x="860" 
d="M508 877q59 71 158.5 105.5t230.5 18.5l-63 -397q-90 30 -185 10t-145 -79l-84 -535h-432l155 983h381zM197 -567h-326l131 456h385z" />
    <glyph glyph-name="Rcaron" unicode="&#x158;" horiz-adv-x="1492" 
d="M485 0h-473l228 1434h655q90 0 172 -16.5t158 -56t127.5 -98.5t74.5 -152.5t5 -209.5q-45 -290 -306 -407l281 -494h-500l-221 424h-135zM653 1049l-43 -271h172q70 0 120.5 39t60.5 103q8 57 -24.5 93t-96.5 36h-189zM1317 1890l-326 -350h-379l-215 350h357l77 -133
l125 133h361z" />
    <glyph glyph-name="rcaron" unicode="&#x159;" horiz-adv-x="860" 
d="M508 877q59 71 158.5 105.5t230.5 18.5l-63 -397q-90 30 -185 10t-145 -79l-84 -535h-432l155 983h381zM1040 1440l-325 -350h-379l-215 350h356l78 -133l125 133h360z" />
    <glyph glyph-name="Sacute" unicode="&#x15a;" horiz-adv-x="1294" 
d="M141 1061q16 99 73 178t141 127.5t185 74t210 25.5q149 0 285.5 -33.5t238.5 -91.5l-62 -395q-94 64 -208.5 97.5t-223.5 31.5q-156 0 -162 -65q-2 -24 25.5 -46.5t74 -39.5t105.5 -41t120 -50t116.5 -67t96 -90t58 -123t3.5 -162q-17 -99 -60 -174t-102.5 -121.5
t-140.5 -76t-165 -41t-184 -11.5q-330 0 -561 142l66 409q211 -156 473 -156q184 0 194 66q4 26 -16.5 48t-58 39.5t-86.5 35.5t-103 40t-107.5 49t-99.5 66t-78.5 87t-45.5 117t-1 151zM901 1540h-397l254 336h444z" />
    <glyph glyph-name="sacute" unicode="&#x15b;" horiz-adv-x="1009" 
d="M72 727q40 289 485 289q217 0 389 -86l-49 -312q-62 44 -142 72.5t-153 28.5q-85 0 -90 -39q-2 -21 22 -37.5t63.5 -30.5t87.5 -30t94.5 -42t82.5 -60t53 -90t5 -126q-11 -71 -46 -125t-83.5 -86t-116 -52t-134 -27t-147.5 -7q-234 0 -403 90l53 334q62 -53 154 -81.5
t168 -30.5q110 -5 116 32q2 20 -21.5 36.5t-62.5 30.5t-86 31t-93 43.5t-82.5 60.5t-54.5 89.5t-9 124.5zM698 1090h-397l254 335h444z" />
    <glyph glyph-name="Scedilla" unicode="&#x15e;" horiz-adv-x="1294" 
d="M815 -291q-9 -54 -42.5 -93.5t-83 -60.5t-101.5 -30.5t-109 -9.5q-152 0 -260 43l35 227q70 -39 166 -39q113 0 121 49q4 23 -23 36t-67.5 13t-83.5 -6l59 135q-239 26 -422 136l66 409q211 -156 473 -156q184 0 194 66q4 26 -16.5 48t-58 39.5t-86.5 35.5t-103 40
t-107.5 49t-99.5 66t-78.5 87t-45.5 117t-1 151q16 99 73 178t141 127.5t185 74t210 25.5q149 0 285.5 -33.5t238.5 -91.5l-62 -395q-94 64 -208.5 97.5t-223.5 31.5q-156 0 -162 -65q-2 -24 25.5 -46.5t74 -39.5t105.5 -41t120 -50t116.5 -67t96 -90t58 -123t3.5 -162
q-66 -388 -543 -420l-29 -61q88 -6 135.5 -61t34.5 -140z" />
    <glyph glyph-name="scedilla" unicode="&#x15f;" horiz-adv-x="1009" 
d="M692 -291q-9 -54 -42.5 -93.5t-82.5 -60.5t-101 -30.5t-108 -9.5q-154 0 -262 43l35 227q70 -39 166 -39q113 0 121 49q5 23 -22.5 36t-68 13t-83.5 -6l57 133q-179 15 -311 86l53 334q62 -53 154 -81.5t168 -30.5q110 -5 116 32q2 20 -21.5 36.5t-62.5 30.5t-86 31
t-93 43.5t-82.5 60.5t-54.5 89.5t-9 124.5q40 289 485 289q217 0 389 -86l-49 -312q-62 44 -142 72.5t-153 28.5q-85 0 -90 -39q-2 -21 22 -37.5t63.5 -30.5t87.5 -30t94.5 -42t82.5 -60t53 -90t5 -126q-40 -248 -365 -289l-33 -65q88 -6 135.5 -61t34.5 -140z" />
    <glyph glyph-name="Scaron" unicode="&#x160;" horiz-adv-x="1294" 
d="M141 1061q16 99 73 178t141 127.5t185 74t210 25.5q149 0 285.5 -33.5t238.5 -91.5l-62 -395q-94 64 -208.5 97.5t-223.5 31.5q-156 0 -162 -65q-2 -24 25.5 -46.5t74 -39.5t105.5 -41t120 -50t116.5 -67t96 -90t58 -123t3.5 -162q-17 -99 -60 -174t-102.5 -121.5
t-140.5 -76t-165 -41t-184 -11.5q-330 0 -561 142l66 409q211 -156 473 -156q184 0 194 66q4 26 -16.5 48t-58 39.5t-86.5 35.5t-103 40t-107.5 49t-99.5 66t-78.5 87t-45.5 117t-1 151zM1266 1890l-326 -350h-379l-215 350h356l78 -133l125 133h361z" />
    <glyph glyph-name="scaron" unicode="&#x161;" horiz-adv-x="1009" 
d="M72 727q40 289 485 289q217 0 389 -86l-49 -312q-62 44 -142 72.5t-153 28.5q-85 0 -90 -39q-2 -21 22 -37.5t63.5 -30.5t87.5 -30t94.5 -42t82.5 -60t53 -90t5 -126q-11 -71 -46 -125t-83.5 -86t-116 -52t-134 -27t-147.5 -7q-234 0 -403 90l53 334q62 -53 154 -81.5
t168 -30.5q110 -5 116 32q2 20 -21.5 36.5t-62.5 30.5t-86 31t-93 43.5t-82.5 60.5t-54.5 89.5t-9 124.5zM1063 1440l-326 -350h-379l-215 350h357l78 -133l124 133h361z" />
    <glyph glyph-name="Tcommaaccent" unicode="&#x162;" horiz-adv-x="1290" 
d="M158 1434h1241l-66 -414h-385l-162 -1020h-471l162 1020h-385zM549 -567h-326l131 456h385z" />
    <glyph glyph-name="tcommaaccent" unicode="&#x163;" horiz-adv-x="886" 
d="M270 1247l449 101l-57 -365h219l-56 -344h-219l-37 -231q-7 -50 16 -70.5t74 -20.5q63 0 134 23l-54 -336q-122 -39 -264 -39q-59 0 -111.5 11t-103 39t-83.5 71t-47.5 112.5t-0.5 157.5l45 283h-137l55 344h137zM473 -567h-326l132 456h385z" />
    <glyph glyph-name="Tcaron" unicode="&#x164;" horiz-adv-x="1290" 
d="M158 1434h1241l-66 -414h-385l-162 -1020h-471l162 1020h-385zM1307 1890l-326 -350h-379l-215 350h356l78 -133l125 133h361z" />
    <glyph glyph-name="tcaron" unicode="&#x165;" horiz-adv-x="884" 
d="M897 1561h352l-155 -476h-306zM270 1247l449 101l-57 -365h219l-56 -344h-219l-37 -231q-7 -50 16 -70.5t74 -20.5q63 0 134 23l-54 -336q-122 -39 -264 -39q-59 0 -111.5 11t-103 39t-83.5 71t-47.5 112.5t-0.5 157.5l45 283h-137l55 344h137z" />
    <glyph glyph-name="Tbar" unicode="&#x166;" horiz-adv-x="1312" 
d="M797 0h-471l77 487h-229l45 281h227l41 252h-385l66 414h1241l-66 -414h-385l-40 -252h229l-43 -281h-230z" />
    <glyph glyph-name="tbar" unicode="&#x167;" horiz-adv-x="886" 
d="M881 983l-52 -324h-219l-14 -86h190l-24 -149h-189l-6 -29q-11 -78 95 -78q64 0 131 23l-52 -336q-122 -39 -264 -39q-59 0 -111.5 11t-103 39t-83.5 71t-47.5 112.5t-0.5 157.5l10 68h-78l23 149h78l14 86h-137l51 324h137l43 264l449 101l-59 -365h219z" />
    <glyph glyph-name="Umacron" unicode="&#x16a;" horiz-adv-x="1517" 
d="M1085 1434h471l-139 -891q-21 -129 -71.5 -229.5t-120 -165t-160.5 -106t-187 -58.5t-206 -17q-102 0 -193.5 20t-173.5 66t-136.5 114t-77.5 172t-3 232l137 863h473l-139 -867q-14 -96 26.5 -136t131.5 -40q200 0 235 203zM565 1847h744l-47 -297h-744z" />
    <glyph glyph-name="umacron" unicode="&#x16b;" 
d="M762 983h432l-156 -983h-381l17 92q-122 -125 -301 -125q-120 0 -204 56t-117.5 145.5t-16.5 196.5l98 618h432l-90 -563q-15 -92 70 -92q72 0 123 55zM352 1397h744l-47 -297h-744z" />
    <glyph glyph-name="Uring" unicode="&#x16e;" horiz-adv-x="1517" 
d="M1085 1434h471l-139 -891q-21 -129 -71.5 -229.5t-120 -165t-160.5 -106t-187 -58.5t-206 -17q-102 0 -193.5 20t-173.5 66t-136.5 114t-77.5 172t-3 232l137 863h473l-139 -867q-14 -96 26.5 -136t131.5 -40q200 0 235 203zM1212 1737q-19 -117 -105 -178.5t-204 -61.5
q-57 0 -108.5 20t-89.5 56.5t-56 94t-8 126.5q20 111 106.5 174.5t200.5 63.5q58 0 110 -20.5t90.5 -57.5t56.5 -93.5t7 -123.5zM856 1767q-5 -33 12 -53t50 -20t52.5 18.5t24.5 48.5q6 31 -10 51.5t-51 20.5q-31 0 -52 -18.5t-26 -47.5z" />
    <glyph glyph-name="uring" unicode="&#x16f;" 
d="M762 983h432l-156 -983h-381l17 92q-122 -125 -301 -125q-120 0 -204 56t-117.5 145.5t-16.5 196.5l98 618h432l-90 -563q-15 -92 70 -92q72 0 123 55zM999 1286q-13 -78 -58.5 -133t-109.5 -80.5t-141 -25.5q-57 0 -108.5 20t-89.5 56.5t-56 93.5t-8 126
q20 111 106.5 174.5t200.5 63.5q58 0 110 -20.5t90.5 -57.5t56.5 -93.5t7 -123.5zM643 1317q-5 -33 12 -53.5t50 -20.5t52.5 18.5t24.5 49.5q6 31 -10 51t-51 20q-31 0 -52 -18t-26 -47z" />
    <glyph glyph-name="Uhungarumlaut" unicode="&#x170;" horiz-adv-x="1517" 
d="M1085 1434h471l-139 -891q-21 -129 -71.5 -229.5t-120 -165t-160.5 -106t-187 -58.5t-206 -17q-102 0 -193.5 20t-173.5 66t-136.5 114t-77.5 172t-3 232l137 863h473l-139 -867q-14 -96 26.5 -136t131.5 -40q200 0 235 203zM1284 1542h-354l229 344h381zM840 1542h-355
l213 344h379z" />
    <glyph glyph-name="uhungarumlaut" unicode="&#x171;" horiz-adv-x="1214" 
d="M762 983h432l-156 -983h-381l17 92q-122 -125 -301 -125q-120 0 -204 56t-117.5 145.5t-16.5 196.5l98 618h432l-90 -563q-15 -92 70 -92q72 0 123 55zM1071 1092h-354l229 344h381zM627 1092h-355l213 344h379z" />
    <glyph glyph-name="Uogonek" unicode="&#x172;" horiz-adv-x="1517" 
d="M952 594l133 840h471l-139 -891q-47 -285 -235 -430q-68 -54 -115 -101.5t-68.5 -82.5t-29.5 -57t-8 -40q0 -37 47 -37q24 0 51 10l-41 -260q-77 -28 -170 -28q-119 0 -189.5 56.5t-64.5 154.5q5 61 47 124t123 117q-31 -2 -92 -2q-102 0 -193.5 20t-173.5 66t-136.5 114
t-77.5 172t-3 232l137 863h473l-139 -867q-14 -96 26.5 -136t131.5 -40q200 0 235 203z" />
    <glyph glyph-name="uogonek" unicode="&#x173;" 
d="M668 383l94 600h432l-156 -983h-2q-53 -38 -91 -86.5t-38 -81.5q0 -37 45 -37q29 0 52 10l-41 -260q-74 -28 -170 -28q-118 0 -188.5 56.5t-63.5 154.5q5 68 55 140.5t141 131.5h-80l17 92q-122 -125 -301 -125q-120 0 -204 56t-117.5 145.5t-16.5 196.5l98 618h432
l-90 -563q-15 -92 70 -92q72 0 123 55z" />
    <glyph glyph-name="Wcircumflex" unicode="&#x174;" horiz-adv-x="2275" 
d="M1878 1434h524l-659 -1434h-516l-72 723l-309 -723h-504l-205 1434h492l65 -865l363 865h391l82 -865zM1118 1880h379l207 -350h-344l-72 123l-112 -123h-375z" />
    <glyph glyph-name="wcircumflex" unicode="&#x175;" horiz-adv-x="1732" 
d="M1327 983h457l-469 -983h-420l-51 485l-213 -485h-410l-147 983h422l32 -539l222 539h329l47 -539zM786 1430h379l207 -351h-344l-72 123l-112 -123h-375z" />
    <glyph glyph-name="Ycircumflex" unicode="&#x176;" horiz-adv-x="1540" 
d="M907 0h-469l80 489l-395 945h504l168 -547l335 547h553l-696 -945zM760 1880h379l207 -350h-345l-71 123l-113 -123h-375z" />
    <glyph glyph-name="ycircumflex" unicode="&#x177;" horiz-adv-x="1234" 
d="M610 451l211 532h469l-538 -1053q-61 -119 -131.5 -202t-145 -127t-146 -63t-151.5 -19q-126 0 -235 41l55 344q62 -23 127 -23q139 0 221 144l-293 958h436zM532 1430h379l207 -351h-344l-72 123l-112 -123h-375z" />
    <glyph glyph-name="Ydieresis" unicode="&#x178;" horiz-adv-x="1540" 
d="M907 0h-469l80 489l-395 945h504l168 -547l335 547h553l-696 -945zM1358 1698q-9 -84 -68.5 -135.5t-140.5 -51.5q-88 0 -140.5 57.5t-43.5 149.5q9 83 68.5 135t140.5 52q88 0 140.5 -57.5t43.5 -149.5zM887 1698q-9 -84 -68.5 -135.5t-140.5 -51.5q-88 0 -140.5 57.5
t-43.5 149.5q9 83 68 135t140 52q88 0 141 -57.5t44 -149.5z" />
    <glyph glyph-name="Zacute" unicode="&#x179;" horiz-adv-x="1320" 
d="M1167 0h-1206l47 299l639 721h-489l63 414h1149l-47 -301l-639 -719h549zM946 1540h-397l254 336h444z" />
    <glyph glyph-name="zacute" unicode="&#x17a;" horiz-adv-x="1034" 
d="M147 983h865l-41 -252l-393 -387h360l-53 -344h-924l39 252l393 387h-299zM762 1090h-397l253 335h445z" />
    <glyph glyph-name="Zdotaccent" unicode="&#x17b;" horiz-adv-x="1320" 
d="M1167 0h-1206l47 299l639 721h-489l63 414h1149l-47 -301l-639 -719h549zM1028 1714q-14 -94 -75 -137t-148 -43q-101 0 -159.5 60.5t-39.5 174.5q14 92 76 136.5t149 44.5q100 0 157.5 -61.5t39.5 -174.5z" />
    <glyph glyph-name="zdotaccent" unicode="&#x17c;" horiz-adv-x="1034" 
d="M147 983h865l-41 -252l-393 -387h360l-53 -344h-924l39 252l393 387h-299zM844 1264q-14 -94 -75 -137.5t-148 -43.5q-101 0 -159.5 61t-39.5 175q14 92 76 136t149 44q100 0 157.5 -61t39.5 -174z" />
    <glyph glyph-name="Zcaron" unicode="&#x17d;" horiz-adv-x="1320" 
d="M1167 0h-1206l47 299l639 721h-489l63 414h1149l-47 -301l-639 -719h549zM1311 1890l-326 -350h-379l-215 350h357l77 -133l125 133h361z" />
    <glyph glyph-name="zcaron" unicode="&#x17e;" horiz-adv-x="1034" 
d="M147 983h865l-41 -252l-393 -387h360l-53 -344h-924l39 252l393 387h-299zM1126 1440l-325 -350h-379l-215 350h356l78 -133l125 133h360z" />
    <glyph glyph-name="Scommaaccent" unicode="&#x218;" horiz-adv-x="1294" 
d="M141 1061q16 99 73 178t141 127.5t185 74t210 25.5q149 0 285.5 -33.5t238.5 -91.5l-62 -395q-94 64 -208.5 97.5t-223.5 31.5q-156 0 -162 -65q-2 -24 25.5 -46.5t74 -39.5t105.5 -41t120 -50t116.5 -67t96 -90t58 -123t3.5 -162q-17 -99 -60 -174t-102.5 -121.5
t-140.5 -76t-165 -41t-184 -11.5q-330 0 -561 142l66 409q211 -156 473 -156q184 0 194 66q4 26 -16.5 48t-58 39.5t-86.5 35.5t-103 40t-107.5 49t-99.5 66t-78.5 87t-45.5 117t-1 151zM600 -567h-326l132 456h385z" />
    <glyph glyph-name="scommaaccent" unicode="&#x219;" horiz-adv-x="1009" 
d="M72 727q40 289 485 289q217 0 389 -86l-49 -312q-62 44 -142 72.5t-153 28.5q-85 0 -90 -39q-2 -21 22 -37.5t63.5 -30.5t87.5 -30t94.5 -42t82.5 -60t53 -90t5 -126q-11 -71 -46 -125t-83.5 -86t-116 -52t-134 -27t-147.5 -7q-234 0 -403 90l53 334q62 -53 154 -81.5
t168 -30.5q110 -5 116 32q2 20 -21.5 36.5t-62.5 30.5t-86 31t-93 43.5t-82.5 60.5t-54.5 89.5t-9 124.5zM449 -567h-326l131 456h385z" />
    <glyph glyph-name="uni021A" unicode="&#x21a;" horiz-adv-x="1290" 
d="M158 1434h1241l-66 -414h-385l-162 -1020h-471l162 1020h-385zM549 -567h-326l131 456h385z" />
    <glyph glyph-name="uni021B" unicode="&#x21b;" horiz-adv-x="886" 
d="M270 1247l449 101l-57 -365h219l-56 -344h-219l-37 -231q-7 -50 16 -70.5t74 -20.5q63 0 134 23l-54 -336q-122 -39 -264 -39q-59 0 -111.5 11t-103 39t-83.5 71t-47.5 112.5t-0.5 157.5l45 283h-137l55 344h137zM473 -567h-326l132 456h385z" />
    <glyph glyph-name="circumflex" unicode="&#x2c6;" horiz-adv-x="856" 
d="M489 1880h379l207 -350h-344l-72 123l-112 -123h-375z" />
    <glyph glyph-name="caron" unicode="&#x2c7;" horiz-adv-x="856" 
d="M1147 1890l-326 -350h-379l-215 350h357l78 -133l124 133h361z" />
    <glyph glyph-name="breve" unicode="&#x2d8;" horiz-adv-x="874" 
d="M1014 1618q-168 -105 -371 -105q-229 0 -371 105l47 293q138 -94 345 -94q228 0 395 94z" />
    <glyph glyph-name="dotaccent" unicode="&#x2d9;" horiz-adv-x="432" 
d="M659 1714q-14 -94 -75 -137t-148 -43q-101 0 -159 60.5t-39 174.5q14 92 76 136.5t149 44.5q100 0 157 -61.5t39 -174.5z" />
    <glyph glyph-name="ring" unicode="&#x2da;" horiz-adv-x="567" 
d="M805 1737q-19 -117 -105 -178.5t-204 -61.5q-57 0 -108.5 20t-90 56.5t-56.5 94t-8 126.5q20 111 107 174.5t201 63.5q58 0 110 -20.5t90.5 -57.5t56.5 -93.5t7 -123.5zM449 1767q-5 -33 11.5 -53t49.5 -20t53 18.5t25 48.5q6 31 -10.5 51.5t-51.5 20.5q-30 0 -51 -18
t-26 -48z" />
    <glyph glyph-name="ogonek" unicode="&#x2db;" horiz-adv-x="485" 
d="M119 0h299q-53 -38 -91 -86.5t-38 -81.5q0 -37 45 -37q28 0 51 10l-41 -260q-74 -28 -170 -28q-118 0 -188.5 56.5t-63.5 154.5q5 68 55 140.5t142 131.5z" />
    <glyph glyph-name="tilde" unicode="&#x2dc;" horiz-adv-x="860" 
d="M1096 1880q20 -159 -55.5 -263t-206.5 -104q-57 0 -115 20.5t-104 41t-74 20.5t-42.5 -22t-9.5 -47h-274q-20 158 55 262t205 104q58 0 116 -20.5t104 -41t73 -20.5q28 0 42 22.5t9 47.5h277z" />
    <glyph glyph-name="hungarumlaut" unicode="&#x2dd;" horiz-adv-x="1032" 
d="M1044 1542h-354l230 344h380zM600 1542h-354l213 344h379z" />
    <glyph glyph-name="uni0326" unicode="&#x326;" horiz-adv-x="512" 
d="M279 -567h-326l131 456h385z" />
    <glyph glyph-name="uni0401" unicode="&#x401;" horiz-adv-x="1271" 
d="M1264 1698q-9 -84 -68.5 -135.5t-140.5 -51.5q-88 0 -141 57.5t-44 149.5q9 83 68.5 135t140.5 52q88 0 141 -57.5t44 -149.5zM793 1698q-9 -84 -68.5 -135.5t-140.5 -51.5q-88 0 -141 57.5t-44 149.5q9 83 68.5 135t140.5 52q88 0 141 -57.5t44 -149.5zM240 1434h1085
l-59 -373h-615l-24 -166h540l-55 -348h-541l-26 -170h624l-59 -377h-1098z" />
    <glyph glyph-name="uni0410" unicode="&#x410;" horiz-adv-x="1566" 
d="M1479 0h-461l-33 190h-506l-92 -190h-487l762 1434h509zM795 846l-154 -314h289l-51 312q-15 103 -15 184q-35 -113 -69 -182z" />
    <glyph glyph-name="uni0411" unicode="&#x411;" horiz-adv-x="1394" 
d="M631 920h219q83 0 156 -13.5t143 -48t116 -88t66 -140.5t2 -198q-16 -104 -58.5 -182t-98.5 -125t-133 -76t-152.5 -39t-165.5 -10h-713l228 1434h1132l-59 -379h-662zM541 344h159q155 0 172 119q18 112 -122 112h-172z" />
    <glyph glyph-name="uni0412" unicode="&#x412;" horiz-adv-x="1427" 
d="M240 1434h698q154 0 264 -42t165.5 -132t35.5 -218q-16 -103 -75 -174t-175 -114q113 -37 169 -132.5t34 -238.5q-14 -91 -55.5 -159t-99.5 -110t-138 -68.5t-161.5 -36t-180.5 -9.5h-709zM901 467q11 54 -19.5 84.5t-97.5 30.5h-206l-37 -234h190q69 0 114.5 30t55.5 89
zM942 981q8 45 -17 74.5t-85 29.5h-183l-34 -211l168 -2q60 0 101 30.5t50 78.5z" />
    <glyph glyph-name="uni0413" unicode="&#x413;" horiz-adv-x="1204" 
d="M485 0h-473l228 1434h1075l-66 -414h-602z" />
    <glyph glyph-name="uni0414" unicode="&#x414;" horiz-adv-x="1740" 
d="M319 -279h-419l106 676h156q160 215 245.5 470t133.5 567h1099l-165 -1037h186l-107 -676h-419l45 279h-818zM918 1032q-46 -205 -105 -360.5t-145 -274.5h340l102 635h-192z" />
    <glyph glyph-name="uni0415" unicode="&#x415;" horiz-adv-x="1271" 
d="M240 1434h1085l-59 -373h-615l-24 -166h540l-55 -348h-541l-26 -170h624l-59 -377h-1098z" />
    <glyph glyph-name="uni0416" unicode="&#x416;" horiz-adv-x="2142" 
d="M1755 1434h522l-489 -760l248 -674h-480l-167 512h-97l-80 -512h-473l82 512h-84l-321 -512h-512l489 729l-258 705h483l179 -508h90l80 508h473l-80 -508h88z" />
    <glyph glyph-name="uni0417" unicode="&#x417;" horiz-adv-x="1288" 
d="M1204 365q-64 -398 -663 -398q-284 0 -559 101l63 399q218 -98 461 -98q232 3 248 110q6 38 -21.5 57t-79.5 19h-356l57 344h283q126 0 141 74q6 42 -35.5 66t-124.5 24q-217 0 -475 -115l68 430q240 88 485 88q135 0 244 -27.5t185 -80.5t110 -136.5t18 -189.5
q-14 -97 -79.5 -170.5t-186.5 -113.5q123 -43 182 -138.5t35 -244.5z" />
    <glyph glyph-name="uni0418" unicode="&#x418;" horiz-adv-x="1548" 
d="M1573 1434l-227 -1434h-472l68 420q18 133 51 231l-590 -651h-391l228 1434h473l-68 -420q-25 -155 -51 -230l588 650h391z" />
    <glyph glyph-name="uni0419" unicode="&#x419;" horiz-adv-x="1548" 
d="M1573 1434l-227 -1434h-472l68 420q18 133 51 231l-590 -651h-391l228 1434h473l-68 -420q-25 -155 -51 -230l588 650h391zM1313 1618q-168 -105 -371 -105q-229 0 -371 105l47 293q138 -94 345 -94q228 0 395 94z" />
    <glyph glyph-name="uni041A" unicode="&#x41a;" horiz-adv-x="1490" 
d="M1118 1434h529l-555 -725l323 -709h-497l-226 512h-127l-80 -512h-473l228 1434h473l-82 -508h125z" />
    <glyph glyph-name="uni041B" unicode="&#x41b;" horiz-adv-x="1548" 
d="M451 1434h1122l-227 -1434h-472l162 1020h-205q-24 -116 -39.5 -185t-41.5 -172t-47.5 -165t-54.5 -144t-67 -130.5t-80.5 -102t-98.5 -82t-117.5 -47.5t-141.5 -19q-141 0 -231 43l63 402q52 -25 117 -10q32 6 61.5 29.5t54 57t47.5 86t40.5 102.5t35.5 121t30 126.5
t27 134t23.5 129.5t21 127t18.5 113z" />
    <glyph glyph-name="uni041C" unicode="&#x41c;" horiz-adv-x="1855" 
d="M1430 1434h450l-227 -1434h-461l106 666l-278 -363h-268l-170 365l-109 -668h-461l228 1434h405l297 -639z" />
    <glyph glyph-name="uni041D" unicode="&#x41d;" horiz-adv-x="1548" 
d="M1102 1434h471l-227 -1434h-472l80 510h-389l-80 -510h-473l228 1434h473l-82 -510h391z" />
    <glyph glyph-name="uni041E" unicode="&#x41e;" horiz-adv-x="1648" 
d="M1616 688q-23 -151 -92 -280.5t-177 -228.5t-263.5 -155.5t-338.5 -56.5q-185 0 -327.5 61.5t-225 168t-114.5 247.5t-6 301q24 151 93 280.5t176.5 228.5t262.5 155.5t338 56.5q122 0 227.5 -28t184 -78.5t138.5 -122t91 -158t42 -185.5t-9 -206zM551 692
q-17 -138 43.5 -217.5t189.5 -79.5q146 0 241 93t114 253q19 138 -42 217.5t-192 79.5q-144 0 -238 -92.5t-116 -253.5z" />
    <glyph glyph-name="uni041F" unicode="&#x41f;" horiz-adv-x="1558" 
d="M483 0h-471l228 1434h1343l-227 -1434h-471l162 1020h-402z" />
    <glyph glyph-name="uni0420" unicode="&#x420;" horiz-adv-x="1411" 
d="M240 1434h616q89 0 166 -12.5t148 -39.5t122 -70.5t87.5 -105.5t45 -143.5t-5.5 -185.5q-22 -143 -80.5 -242t-152 -155t-207.5 -80.5t-264 -24.5h-170l-60 -375h-473zM958 909q11 68 -29 101.5t-116 33.5h-162l-45 -280h146q184 0 206 145z" />
    <glyph glyph-name="uni0421" unicode="&#x421;" horiz-adv-x="1320" 
d="M70 739q24 150 89.5 274.5t154.5 207t198.5 139t219.5 81.5t220 25q239 0 418 -98l-63 -399q-48 39 -128.5 63.5t-168.5 24.5q-78 0 -150 -18.5t-137.5 -57t-112 -108t-61.5 -162.5q-13 -79 8 -143t66.5 -103.5t106 -60.5t128.5 -21q214 0 383 102l-70 -438
q-175 -80 -405 -80q-121 0 -232 28t-207.5 89.5t-162 150t-92 218.5t-2.5 286z" />
    <glyph glyph-name="uni0422" unicode="&#x422;" horiz-adv-x="1290" 
d="M158 1434h1241l-66 -414h-385l-162 -1020h-471l162 1020h-385z" />
    <glyph glyph-name="uni0423" unicode="&#x423;" horiz-adv-x="1445" 
d="M899 315q-117 -186 -249.5 -267t-289.5 -81q-163 0 -278 47l59 375q65 -29 154 -29q109 0 176 76l35 43l-389 955h477l188 -578l305 578h502z" />
    <glyph glyph-name="uni0424" unicode="&#x424;" horiz-adv-x="1818" 
d="M1016 -96h-424l33 186q-139 12 -255.5 62.5t-199 132t-119 200.5t-14.5 260q43 268 247.5 425t536.5 176l29 184h424l-29 -184q138 -14 253 -65t196 -133t117 -201t14 -259q-43 -266 -247.5 -422t-533.5 -178zM496 711q-9 -36 -2 -77.5t24.5 -77.5t61.5 -63t108 -34
l80 510q-124 -16 -190 -85t-82 -173zM1182 975l-82 -512q123 18 187.5 88t80.5 174q3 30 4 61.5t-11 62.5t-32 56.5t-58 44t-89 25.5z" />
    <glyph glyph-name="uni0425" unicode="&#x425;" horiz-adv-x="1495" 
d="M426 0h-563l622 733l-362 701h532l152 -363l278 363h564l-590 -697l379 -737h-533l-170 389z" />
    <glyph glyph-name="uni0426" unicode="&#x426;" horiz-adv-x="1669" 
d="M1481 -279h-410l45 279h-1104l228 1434h473l-162 -1020h391l162 1020h473l-162 -1020h174z" />
    <glyph glyph-name="uni0427" unicode="&#x427;" horiz-adv-x="1445" 
d="M1243 0h-471l72 453q-128 -43 -279 -43q-111 0 -203 32.5t-156.5 93.5t-92.5 158t-9 217l84 523h471l-77 -494q-10 -66 28.5 -93.5t110.5 -27.5q99 0 186 41l92 574h471z" />
    <glyph glyph-name="uni0428" unicode="&#x428;" horiz-adv-x="2123" 
d="M1921 0h-1909l228 1434h473l-162 -1020h246l161 1020h474l-162 -1020h246l161 1020h471z" />
    <glyph glyph-name="uni0429" unicode="&#x429;" horiz-adv-x="2242" 
d="M2054 -279h-409l45 279h-1678l228 1434h473l-162 -1020h246l161 1020h474l-162 -1020h246l161 1020h471l-159 -1020h174z" />
    <glyph glyph-name="uni042A" unicode="&#x42a;" horiz-adv-x="1611" 
d="M879 0h-637l161 1020h-311l66 414h782l-63 -410h143q98 0 182.5 -15.5t161.5 -55t127 -99t71 -155t1 -216.5q-17 -113 -62 -198.5t-106.5 -139t-146.5 -86.5t-173.5 -46t-195.5 -13zM815 635l-39 -246h139q171 0 191 127q7 55 -28.5 87t-100.5 32h-162z" />
    <glyph glyph-name="uni042B" unicode="&#x42b;" horiz-adv-x="2021" 
d="M649 0h-637l228 1434h473l-66 -410h144q98 0 182 -15.5t161 -55t127.5 -99.5t71.5 -155t2 -216q-18 -113 -63 -198.5t-107 -139t-147 -86.5t-173.5 -46t-195.5 -13zM586 635l-39 -246h139q171 0 191 127q7 55 -28.5 87t-100.5 32h-162zM1819 0h-473l227 1434h473z" />
    <glyph glyph-name="uni042C" unicode="&#x42c;" horiz-adv-x="1384" 
d="M649 0h-637l228 1434h473l-66 -410h144q98 0 182 -15.5t161 -55t127.5 -99.5t71.5 -155t2 -216q-18 -113 -63 -198.5t-107 -139t-147 -86.5t-173.5 -46t-195.5 -13zM586 635l-39 -246h139q171 0 191 127q7 55 -28.5 87t-100.5 32h-162z" />
    <glyph glyph-name="uni042D" unicode="&#x42d;" horiz-adv-x="1325" 
d="M197 1382q178 84 411 84q97 0 188.5 -20t177 -61.5t151 -105t111.5 -151.5t59 -201t-7 -253q-23 -148 -83 -267.5t-144.5 -200.5t-192.5 -135.5t-225 -79t-246 -24.5q-227 0 -409 92l61 387q133 -86 328 -86q308 0 411 183h-522l58 356h526q-13 52 -45 88t-78.5 55
t-94 26.5t-106.5 8.5q-108 0 -212.5 -28.5t-180.5 -73.5z" />
    <glyph glyph-name="uni042E" unicode="&#x42e;" horiz-adv-x="2289" 
d="M2257 688q-24 -151 -93 -280.5t-177 -228.5t-263.5 -155.5t-339.5 -56.5q-149 0 -269.5 41t-201 114.5t-128 171.5t-60.5 216h-160l-80 -510h-473l228 1434h473l-82 -510h147q90 252 298.5 397t506.5 145q182 0 323.5 -61.5t225.5 -167t117 -247.5t8 -302zM1190 692
q-17 -138 43.5 -217.5t189.5 -79.5q146 0 241 93t114 253q19 138 -42 217.5t-192 79.5q-144 0 -238 -92.5t-116 -253.5z" />
    <glyph glyph-name="uni042F" unicode="&#x42f;" horiz-adv-x="1486" 
d="M442 0h-542l450 524q-237 141 -190 428q17 107 63 191t110 137.5t148 89t171 50t184 14.5h675l-227 -1434h-471l66 424h-80zM629 920q-11 -61 23.5 -101.5t105.5 -40.5h178l43 271h-164q-77 0 -127 -33.5t-59 -95.5z" />
    <glyph glyph-name="uni0430" unicode="&#x430;" horiz-adv-x="1277" 
d="M737 106q-112 -139 -323 -139q-90 0 -162 30t-118 82.5t-76 123t-34 150.5t7 167q16 99 55 186t101 157.5t154 111.5t202 41q109 0 190 -50.5t121 -127.5l23 145h378l-155 -983h-379zM467 483q-9 -72 21 -121t94 -49q87 0 149 76l35 213q-9 30 -38.5 49t-68.5 19
q-77 0 -128 -53.5t-64 -133.5z" />
    <glyph glyph-name="uni0431" unicode="&#x431;" horiz-adv-x="1189" 
d="M1122 397q-14 -90 -52 -162.5t-93 -122t-126 -82.5t-148.5 -48t-163.5 -15q-61 0 -116.5 9.5t-110.5 31t-99 56t-81 84.5t-57 117.5t-27 153.5t9 193q62 456 387 650q88 49 184.5 78.5t175.5 40.5t151.5 19.5t133.5 26t101 50.5l-47 -398q-49 -41 -125.5 -59
t-167.5 -30.5t-148 -35.5q-70 -23 -129 -84.5t-77 -126.5q116 131 290 131q173 0 272.5 -125t63.5 -352zM455 424q-2 -24 1.5 -44.5t14 -40.5t32.5 -32t54 -12q70 0 108.5 48.5t45.5 115.5q4 53 -19.5 91t-85.5 38q-69 0 -106.5 -48.5t-44.5 -115.5z" />
    <glyph glyph-name="uni0432" unicode="&#x432;" horiz-adv-x="1140" 
d="M664 0h-676l155 983h633q68 0 122 -13.5t87.5 -35.5t58 -51.5t33 -61.5t13 -65t-2.5 -62q-21 -143 -194 -211q89 -28 130 -93t26 -161q-7 -41 -27 -77t-61 -72.5t-117.5 -58t-179.5 -21.5zM455 385l-21 -139h111q97 0 106 73q5 28 -11.5 47t-55.5 19h-129zM510 735
l-23 -139h97q100 0 110 72q5 30 -13 48.5t-58 18.5h-113z" />
    <glyph glyph-name="uni0433" unicode="&#x433;" horiz-adv-x="897" 
d="M420 0h-432l155 983h787l-53 -344h-357z" />
    <glyph glyph-name="uni0434" unicode="&#x434;" horiz-adv-x="1382" 
d="M285 -252h-387l86 555h133q187 272 235 680h901l-108 -680h151l-86 -555h-387l41 252h-540zM676 678q-25 -124 -56 -213t-85 -162h221l63 375h-143z" />
    <glyph glyph-name="uni0435" unicode="&#x435;" horiz-adv-x="1116" 
d="M31 528q15 102 59 186t103.5 139t132.5 92.5t144.5 54t141.5 16.5q125 0 219 -38.5t145.5 -101.5t75 -144.5t17 -168t-38.5 -170.5h-610q16 -64 86.5 -94.5t171.5 -30.5q175 0 305 49l-47 -301q-146 -49 -354 -49q-92 0 -177 20t-161.5 64t-129 108t-76.5 159.5t-7 209.5
zM711 592q15 54 -11.5 96.5t-91.5 42.5q-68 0 -113 -42t-53 -97h269z" />
    <glyph glyph-name="uni0436" unicode="&#x436;" horiz-adv-x="1763" 
d="M354 0h-456l354 520l-160 463h418l108 -334h66l53 334h416l-51 -334h67l195 334h451l-334 -526l166 -457h-422l-109 313h-69l-50 -313h-415l47 313h-74z" />
    <glyph glyph-name="uni0437" unicode="&#x437;" horiz-adv-x="1036" 
d="M936 246q-43 -279 -557 -279q-253 0 -414 86l43 281q59 -33 145 -54.5t171 -21.5q172 0 182 72q10 55 -100 55h-209l34 223h166q64 0 100 13t42 49q3 26 -24 40.5t-85 14.5q-89 0 -184.5 -22t-163.5 -54l45 299q166 68 424 68q106 0 188.5 -20.5t131.5 -52.5t78.5 -75
t37 -85t0.5 -85q-24 -149 -190 -202q79 -28 116 -93.5t23 -156.5z" />
    <glyph glyph-name="uni0438" unicode="&#x438;" horiz-adv-x="1236" 
d="M330 0h-342l155 983h406l-60 -379l383 379h342l-155 -983h-406l58 377z" />
    <glyph glyph-name="uni0439" unicode="&#x439;" horiz-adv-x="1236" 
d="M1059 1171q-143 -94 -346 -94q-92 0 -185 25.5t-163 68.5l43 277q147 -84 323 -84q202 0 371 84zM330 0h-342l155 983h406l-60 -379l383 379h342l-155 -983h-406l58 377z" />
    <glyph glyph-name="uni043A" unicode="&#x43a;" horiz-adv-x="1218" 
d="M420 0h-432l155 983h432l-51 -315h66l225 315h477l-393 -512l227 -471h-444l-139 332h-72z" />
    <glyph glyph-name="uni043B" unicode="&#x43b;" horiz-adv-x="1263" 
d="M643 647q-72 -340 -189 -507t-313 -167q-126 0 -217 39l56 342q28 -14 79 -14q31 1 56.5 22t47.5 65t39 93.5t35 130t31 152t31 180.5h942l-156 -983h-430l103 647h-115z" />
    <glyph glyph-name="uni043C" unicode="&#x43c;" horiz-adv-x="1400" 
d="M379 0h-391l155 983h344l195 -422l336 422h360l-155 -983h-392l70 414l-192 -242h-148l-115 248z" />
    <glyph glyph-name="uni043D" unicode="&#x43d;" horiz-adv-x="1228" 
d="M420 0h-432l155 983h432l-53 -326h201l51 326h432l-155 -983h-433l54 326h-201z" />
    <glyph glyph-name="uni043E" unicode="&#x43e;" 
d="M1153 459q-20 -124 -78.5 -220t-143.5 -154.5t-187.5 -88t-217.5 -29.5q-116 0 -214.5 36t-169.5 103.5t-101.5 175.5t-9.5 242q19 124 75.5 219.5t140 154.5t186.5 88.5t222 29.5q113 0 211 -36t170.5 -103.5t105 -175.5t11.5 -242zM444 481q-8 -68 20.5 -110.5
t96.5 -42.5q74 0 120.5 47.5t55.5 126.5q8 68 -20 110.5t-96 42.5q-74 0 -121 -47.5t-56 -126.5z" />
    <glyph glyph-name="uni043F" unicode="&#x43f;" horiz-adv-x="1220" 
d="M420 0h-432l155 983h1055l-156 -983h-430l101 639h-193z" />
    <glyph glyph-name="uni0440" unicode="&#x440;" horiz-adv-x="1280" 
d="M506 868q58 66 143.5 107t181.5 41q144 0 240.5 -79.5t131 -204t11.5 -269.5q-16 -100 -54 -186.5t-98.5 -157t-151.5 -111.5t-201 -41q-89 0 -161 33t-116 82l-84 -533h-432l229 1434h379zM778 498q10 68 -17.5 120t-96.5 52q-87 0 -150 -78l-35 -215q28 -64 109 -64
q74 0 125 53.5t65 131.5z" />
    <glyph glyph-name="uni0441" unicode="&#x441;" horiz-adv-x="1005" 
d="M27 498q14 108 60 197t110 148t145 99t164 58t168 18q175 0 315 -70l-53 -334q-91 48 -201 48q-101 0 -177.5 -43t-90.5 -134q-11 -80 42.5 -119.5t147.5 -39.5q138 0 250 53l-55 -361q-149 -51 -309 -51q-121 0 -221.5 34t-173.5 98.5t-106 167t-15 231.5z" />
    <glyph glyph-name="uni0442" unicode="&#x442;" horiz-adv-x="997" 
d="M621 0h-433l103 639h-254l55 344h936l-53 -344h-254z" />
    <glyph glyph-name="uni0443" unicode="&#x443;" horiz-adv-x="1234" 
d="M610 451l211 532h469l-538 -1053q-61 -119 -131.5 -202t-145 -127t-146 -63t-151.5 -19q-126 0 -235 41l55 344q62 -23 127 -23q139 0 221 144l-293 958h436z" />
    <glyph glyph-name="uni0444" unicode="&#x444;" horiz-adv-x="1634" 
d="M848 -451h-399l67 418q-112 6 -209 47.5t-166.5 110.5t-101 172t-12.5 223q35 222 210.5 352t442.5 142l68 420h399l-68 -418q115 -6 213 -47.5t167.5 -111t101 -172t12.5 -222.5q-37 -223 -211 -353.5t-449 -142.5zM434 487q-10 -67 23.5 -121.5t115.5 -62.5l60 371
q-87 -9 -137 -58t-62 -129zM1020 678l-57 -369q174 17 200 187q10 66 -25 120t-118 62z" />
    <glyph glyph-name="uni0445" unicode="&#x445;" horiz-adv-x="1167" 
d="M356 0h-471l426 502l-248 481h433l106 -225l166 225h469l-412 -494l262 -489h-452l-100 227z" />
    <glyph glyph-name="uni0446" unicode="&#x446;" horiz-adv-x="1329" 
d="M1145 -252h-377l41 252h-821l155 983h432l-102 -639h193l102 639h430l-100 -643h139z" />
    <glyph glyph-name="uni0447" unicode="&#x447;" horiz-adv-x="1167" 
d="M989 0h-432l43 264q-92 -28 -209 -28q-71 0 -136.5 21.5t-118.5 64.5t-78.5 116.5t-10.5 167.5l59 377h433l-54 -338q-7 -38 13 -54t51 -16q56 0 104 25l60 383h432z" />
    <glyph glyph-name="uni0448" unicode="&#x448;" horiz-adv-x="1753" 
d="M1575 0h-1587l155 983h432l-102 -639h148l100 639h432l-102 -639h147l102 639h431z" />
    <glyph glyph-name="uni0449" unicode="&#x449;" horiz-adv-x="1859" 
d="M1675 -252h-375l41 252h-1353l155 983h432l-102 -639h148l100 639h432l-102 -639h147l102 639h431l-101 -643h139z" />
    <glyph glyph-name="uni044A" unicode="&#x44a;" horiz-adv-x="1327" 
d="M799 0h-633l106 662h-235l51 321h666l-39 -252h180q190 0 291 -113t74 -280q-25 -150 -143 -244t-318 -94zM674 469l-31 -195h72q116 0 133 103q3 36 -17 64t-65 28h-92z" />
    <glyph glyph-name="uni044B" unicode="&#x44b;" horiz-adv-x="1742" 
d="M621 0h-633l155 983h432l-40 -252h180q192 0 292 -112.5t72 -280.5q-23 -149 -140.5 -243.5t-317.5 -94.5zM494 469l-31 -195h72q116 0 133 103q3 36 -17 64t-65 28h-92zM1565 0h-432l155 983h432z" />
    <glyph glyph-name="uni044C" unicode="&#x44c;" horiz-adv-x="1150" 
d="M621 0h-633l155 983h432l-40 -252h180q192 0 292 -112.5t72 -280.5q-23 -149 -140.5 -243.5t-317.5 -94.5zM494 469l-31 -195h72q116 0 133 103q3 36 -17 64t-65 28h-92z" />
    <glyph glyph-name="uni044D" unicode="&#x44d;" horiz-adv-x="1032" 
d="M965 440q-15 -98 -58 -178.5t-102.5 -134.5t-134.5 -90.5t-152.5 -53t-157.5 -16.5q-124 0 -208.5 21t-178.5 71l45 281q120 -74 275 -74q188 0 270 107h-360l39 243h362q-15 48 -74 75.5t-137 27.5q-182 0 -321 -84l47 303q88 41 165 59.5t173 18.5q88 0 169 -20.5
t151.5 -66.5t118.5 -112t67.5 -163t1.5 -214z" />
    <glyph glyph-name="uni044E" unicode="&#x44e;" horiz-adv-x="1746" 
d="M1683 459q-16 -100 -57.5 -181.5t-100 -138.5t-134 -96.5t-159 -57.5t-175.5 -18q-180 0 -313.5 95t-163.5 268h-111l-53 -330h-428l155 983h428l-51 -330h94q65 180 218.5 271.5t351.5 91.5q121 0 222 -39t169.5 -109.5t98 -176t9.5 -232.5zM973 481q-8 -68 20.5 -110.5
t96.5 -42.5q74 0 120.5 47.5t55.5 126.5q8 68 -20.5 110.5t-96.5 42.5q-74 0 -120.5 -47.5t-55.5 -126.5z" />
    <glyph glyph-name="uni044F" unicode="&#x44f;" horiz-adv-x="1185" 
d="M377 0h-459l283 338q-153 100 -119 313q10 62 41 119t83 106t135.5 78t186.5 29h635l-155 -983h-408l41 252h-51zM492 606q-5 -37 15.5 -64.5t67.5 -27.5h107l29 178h-90q-114 0 -129 -86z" />
    <glyph glyph-name="uni0451" unicode="&#x451;" horiz-adv-x="1116" 
d="M1087 1247q-9 -84 -68 -135t-140 -51q-88 0 -141 57.5t-44 149.5q9 83 68.5 134.5t140.5 51.5q88 0 140.5 -57.5t43.5 -149.5zM616 1247q-9 -84 -68 -135t-140 -51q-88 0 -141 57.5t-44 149.5q9 83 68.5 134.5t140.5 51.5q88 0 140.5 -57.5t43.5 -149.5zM31 528
q15 102 59 186t103.5 139t132.5 92.5t144.5 54t141.5 16.5q125 0 219 -38.5t145.5 -101.5t75 -144.5t17 -168t-38.5 -170.5h-610q16 -64 86.5 -94.5t171.5 -30.5q175 0 305 49l-47 -301q-146 -49 -354 -49q-92 0 -177 20t-161.5 64t-129 108t-76.5 159.5t-7 209.5zM711 592
q15 54 -11.5 96.5t-91.5 42.5q-68 0 -113 -42t-53 -97h269z" />
    <glyph glyph-name="Wgrave" unicode="&#x1e80;" horiz-adv-x="2275" 
d="M1878 1434h524l-659 -1434h-516l-72 723l-309 -723h-504l-205 1434h492l65 -865l363 865h391l82 -865zM1483 1540h-375l-197 336h424z" />
    <glyph glyph-name="wgrave" unicode="&#x1e81;" horiz-adv-x="1732" 
d="M1327 983h457l-469 -983h-420l-51 485l-213 -485h-410l-147 983h422l32 -539l222 539h329l47 -539zM1151 1090h-375l-196 335h424z" />
    <glyph glyph-name="Wacute" unicode="&#x1e82;" horiz-adv-x="2275" 
d="M1878 1434h524l-659 -1434h-516l-72 723l-309 -723h-504l-205 1434h492l65 -865l363 865h391l82 -865zM1415 1540h-397l254 336h444z" />
    <glyph glyph-name="wacute" unicode="&#x1e83;" horiz-adv-x="1732" 
d="M1327 983h457l-469 -983h-420l-51 485l-213 -485h-410l-147 983h422l32 -539l222 539h329l47 -539zM1083 1090h-397l254 335h444z" />
    <glyph glyph-name="Wdieresis" unicode="&#x1e84;" horiz-adv-x="2275" 
d="M1878 1434h524l-659 -1434h-516l-72 723l-309 -723h-504l-205 1434h492l65 -865l363 865h391l82 -865zM1716 1698q-9 -84 -68.5 -135.5t-140.5 -51.5q-88 0 -140.5 57.5t-43.5 149.5q9 83 68.5 135t140.5 52q88 0 140.5 -57.5t43.5 -149.5zM1245 1698
q-9 -84 -68.5 -135.5t-140.5 -51.5q-88 0 -140.5 57.5t-43.5 149.5q9 83 68.5 135t140.5 52q88 0 140.5 -57.5t43.5 -149.5z" />
    <glyph glyph-name="wdieresis" unicode="&#x1e85;" horiz-adv-x="1732" 
d="M1327 983h457l-469 -983h-420l-51 485l-213 -485h-410l-147 983h422l32 -539l222 539h329l47 -539zM1384 1247q-9 -84 -68 -135t-140 -51q-88 0 -141 57.5t-44 149.5q9 83 68.5 134.5t140.5 51.5q88 0 140.5 -57.5t43.5 -149.5zM913 1247q-9 -84 -68 -135t-140 -51
q-88 0 -141 57.5t-44 149.5q9 83 68.5 134.5t140.5 51.5q88 0 140.5 -57.5t43.5 -149.5z" />
    <glyph glyph-name="Ygrave" unicode="&#x1ef2;" horiz-adv-x="1540" 
d="M907 0h-469l80 489l-395 945h504l168 -547l335 547h553l-696 -945zM1124 1540h-374l-197 336h424z" />
    <glyph glyph-name="ygrave" unicode="&#x1ef3;" horiz-adv-x="1234" 
d="M610 451l211 532h469l-538 -1053q-61 -119 -131.5 -202t-145 -127t-146 -63t-151.5 -19q-126 0 -235 41l55 344q62 -23 127 -23q139 0 221 144l-293 958h436zM897 1090h-375l-196 335h424z" />
    <glyph glyph-name="endash" unicode="&#x2013;" horiz-adv-x="1193" 
d="M1061 326h-1014l53 333h1014z" />
    <glyph glyph-name="emdash" unicode="&#x2014;" horiz-adv-x="1615" 
d="M1483 326h-1436l53 333h1436z" />
    <glyph glyph-name="quoteleft" unicode="&#x2018;" horiz-adv-x="618" 
d="M477 805h-420l336 629h330z" />
    <glyph glyph-name="quoteright" unicode="&#x2019;" horiz-adv-x="610" 
d="M403 805h-327l246 629h419z" />
    <glyph glyph-name="quotesinglbase" unicode="&#x201a;" horiz-adv-x="595" 
d="M168 -293h-328l244 629h420z" />
    <glyph glyph-name="quotedblleft" unicode="&#x201c;" horiz-adv-x="1103" 
d="M963 805h-420l336 629h329zM477 805h-420l336 629h330z" />
    <glyph glyph-name="quotedblright" unicode="&#x201d;" horiz-adv-x="1093" 
d="M887 805h-328l246 629h420zM403 805h-327l246 629h419z" />
    <glyph glyph-name="quotedblbase" unicode="&#x201e;" horiz-adv-x="1077" 
d="M651 -293h-327l245 629h420zM168 -293h-328l244 629h420z" />
    <glyph glyph-name="dagger" unicode="&#x2020;" horiz-adv-x="1173" 
d="M659 -451h-473l162 1018h-301l66 416h301l71 451h473l-71 -451h297l-66 -416h-299z" />
    <glyph glyph-name="daggerdbl" unicode="&#x2021;" horiz-adv-x="1277" 
d="M711 -451h-473l61 383h-322l64 402h321l41 248h-323l63 401h322l72 451h473l-72 -451h322l-64 -401h-322l-40 -248h321l-61 -402h-322z" />
    <glyph glyph-name="bullet" unicode="&#x2022;" horiz-adv-x="894" 
d="M121 745q18 105 76.5 176t135 100.5t167.5 29.5q75 0 137 -22.5t106 -65.5t62 -114t4 -161q-17 -106 -74 -177.5t-133.5 -101.5t-169.5 -30q-74 0 -135.5 22.5t-106.5 66t-64 115t-5 162.5z" />
    <glyph glyph-name="ellipsis" unicode="&#x2026;" horiz-adv-x="1810" 
d="M1696 170q-16 -102 -86 -152.5t-166 -50.5q-110 0 -174 68t-43 192q16 101 85.5 152t164.5 51q110 0 174 -68.5t45 -191.5zM463 170q-16 -102 -86 -152.5t-166 -50.5q-110 0 -174 68t-43 192q16 101 85.5 152t164.5 51q110 0 174 -68.5t45 -191.5zM1079 170
q-16 -102 -86 -152.5t-166 -50.5q-110 0 -174 68t-43 192q16 101 85.5 152t164.5 51q110 0 174 -68.5t45 -191.5z" />
    <glyph glyph-name="perthousand" unicode="&#x2030;" horiz-adv-x="2871" 
d="M590 -123h-266l1103 1679h267zM948 1049q-14 -90 -56.5 -160.5t-103.5 -113.5t-134.5 -65t-155.5 -22q-86 0 -159 26.5t-126.5 77t-76.5 132t-7 182.5q28 177 154 268.5t299 91.5q84 0 156.5 -26.5t125.5 -77t76.5 -131.5t7.5 -182zM436 1067q-4 -40 14 -68t68 -28
q58 0 88 34t33 82q4 40 -14 68.5t-68 28.5q-56 0 -86 -34.5t-35 -82.5zM1888 328q-20 -120 -88 -203t-160.5 -120.5t-203.5 -37.5q-69 0 -130 16.5t-111 50t-82.5 83.5t-45 117t1.5 151q28 177 153.5 270t297.5 93q87 0 160 -27t125.5 -78t75.5 -132.5t7 -182.5zM1374 348
q-4 -40 14 -69t68 -29q57 0 86.5 34.5t34.5 82.5q9 98 -82 98q-56 0 -87 -35.5t-34 -81.5zM2781 328q-20 -120 -88 -203t-160.5 -120.5t-203.5 -37.5q-69 0 -130 16.5t-111 50t-82.5 83.5t-45 117t1.5 151q28 177 153.5 270t297.5 93q87 0 160 -27t125.5 -78t75.5 -132.5
t7 -182.5zM2269 348q-4 -40 14 -69t68 -29q57 0 86.5 34.5t34.5 82.5q9 98 -82 98q-56 0 -87 -35.5t-34 -81.5z" />
    <glyph glyph-name="guilsinglleft" unicode="&#x2039;" horiz-adv-x="806" 
d="M670 66h-424l-215 389l12 84l332 379h438l-371 -426z" />
    <glyph glyph-name="guilsinglright" unicode="&#x203a;" horiz-adv-x="806" 
d="M401 66h-440l373 426l-230 426h424l215 -390l-12 -84z" />
    <glyph glyph-name="fraction" unicode="&#x2044;" horiz-adv-x="397" 
d="M-311 -33h-129l1183 1499h129z" />
    <glyph glyph-name="Euro" unicode="&#x20ac;" horiz-adv-x="1478" 
d="M1497 1333l-63 -389q-58 39 -142 61.5t-172 22.5q-205 0 -323 -115h389l-29 -182h-459q-10 -31 -10 -69h459l-29 -183h-385q77 -108 254 -108q208 0 371 98l-66 -422q-178 -80 -401 -80q-100 0 -193 19.5t-176 60.5t-148 100.5t-109 144.5t-58 187h-168l29 183h137
q0 33 8 69h-135l28 182h158q51 132 140 233t198.5 160.5t227 89t239.5 29.5q233 0 428 -92z" />
    <glyph glyph-name="trademark" unicode="&#x2122;" horiz-adv-x="1458" 
d="M891 895h-232l86 539h226l100 -230l166 230h250l-86 -539h-232l37 225l-88 -123h-135l-55 129zM477 895h-235l53 330h-135l33 209h505l-32 -209h-136z" />
    <glyph glyph-name="oneeighth" unicode="&#x215b;" horiz-adv-x="1923" 
d="M1161 633q14 90 104.5 156.5t250.5 66.5q161 0 250 -83t73 -185q-10 -53 -39.5 -88t-89.5 -70q125 -72 100 -223q-13 -97 -110 -162t-277 -65q-187 0 -278 81.5t-72 194.5q17 116 146 188q-78 69 -58 189zM1470 309q-48 15 -77 27q-44 -27 -47 -74q-3 -30 20.5 -53
t73.5 -23q89 0 100 56q4 23 -16 40t-54 27zM1583 588q2 25 -18 43t-64 18q-37 0 -61.5 -14t-28.5 -39q-8 -48 64 -72q10 -3 32.5 -9.5t30.5 -8.5q42 42 45 82zM446 -33h-129l1184 1499h129zM428 1393h207l-96 -605h141l-37 -231h-573l36 231h158l53 336l-157 -51l39 242z
" />
    <glyph glyph-name="threeeighths" unicode="&#x215c;" horiz-adv-x="1941" 
d="M1180 633q14 90 104 156.5t250 66.5q161 0 250.5 -83t73.5 -185q-10 -53 -39.5 -88t-89.5 -70q125 -72 100 -223q-13 -97 -110 -162t-277 -65q-187 0 -278 81.5t-72 194.5q17 117 145 188q-77 68 -57 189zM1489 309q-53 17 -78 27q-44 -27 -47 -74q-3 -30 20.5 -53
t73.5 -23q90 0 101 56q4 23 -16 40t-54 27zM1602 588q2 25 -18 43t-64 18q-37 0 -61.5 -14t-28.5 -39q-8 -49 63 -72q10 -3 32.5 -9.5t30.5 -8.5q43 43 46 82zM473 -33h-129l1184 1499h129zM782 1159q-20 -116 -157 -158q65 -20 105 -78t26 -149q-38 -223 -371 -223
q-186 0 -311 61l37 234q121 -62 249 -62q58 0 96 15t42 43q3 23 -11 36t-47 13h-157l34 211h111q81 0 86 43q4 22 -16 34.5t-58 12.5q-141 0 -274 -68l39 238q136 65 276 65q63 0 120 -16.5t102 -48t67 -84.5t12 -119z" />
    <glyph glyph-name="fiveeighths" unicode="&#x215d;" horiz-adv-x="1937" 
d="M1176 633q14 90 104 156.5t250 66.5q161 0 250 -83t73 -185q-10 -53 -39.5 -88t-89.5 -70q126 -72 101 -223q-13 -97 -110 -162t-277 -65q-187 0 -278.5 81.5t-72.5 194.5q17 116 146 188q-77 68 -57 189zM1485 309q-53 17 -78 27q-44 -27 -47 -74q-3 -30 20.5 -53
t73.5 -23q89 0 100 56q4 23 -15.5 40t-53.5 27zM1597 588q2 25 -17.5 43t-63.5 18q-37 0 -62 -14t-29 -39q-8 -48 64 -72q10 -3 32.5 -9.5t30.5 -8.5q42 42 45 82zM469 -33h-129l1184 1499h129zM248 1393h567l-37 -234h-329l-17 -82q23 4 62 4q58 0 108.5 -16t90.5 -49
t58 -90.5t5 -132.5q-11 -73 -50 -126t-97 -81t-121.5 -41t-135.5 -13q-161 0 -289 64l35 215q91 -49 215 -49q69 0 117.5 19t54.5 61q4 34 -33 52.5t-106 18.5q-101 0 -201 -28z" />
    <glyph glyph-name="seveneighths" unicode="&#x215e;" horiz-adv-x="1816" 
d="M328 -33h-129l1183 1499h129zM1055 633q14 90 104 156.5t250 66.5q161 0 250.5 -83t73.5 -185q-10 -53 -39.5 -88t-89.5 -70q125 -72 100 -223q-13 -97 -110 -162t-277 -65q-187 0 -278 81.5t-72 194.5q17 117 145 188q-77 68 -57 189zM1364 309q-53 17 -78 27
q-44 -27 -47 -74q-3 -30 20.5 -53t73.5 -23q90 0 101 56q4 23 -16 40t-54 27zM1477 588q2 25 -18 43t-64 18q-37 0 -61.5 -14t-28.5 -39q-8 -49 63 -72q10 -3 33 -9.5t31 -8.5q42 42 45 82zM426 553h-313l372 606h-338l37 234h674l-29 -183z" />
    <glyph glyph-name="partialdiff" unicode="&#x2202;" horiz-adv-x="1179" 
d="M1128 590q-50 -306 -214.5 -464.5t-434.5 -158.5q-226 0 -355.5 144t-96.5 366q16 106 60 190t106 135.5t134 78t150 26.5q85 0 157.5 -30t115.5 -74q8 49 -11 96q-30 104 -150 154.5t-296 36.5l39 376q437 9 649.5 -227.5t146.5 -648.5zM436 434q-7 -52 16.5 -92.5
t88.5 -40.5q72 0 109 45.5t44 108.5q3 34 -3 62t-31.5 50.5t-69.5 22.5q-74 0 -110.5 -46t-43.5 -110z" />
    <glyph glyph-name="emptyset" unicode="&#x2205;" horiz-adv-x="1632" 
d="M1581 688q-23 -148 -100 -281.5t-188.5 -230t-256.5 -153t-299 -56.5q-231 0 -407 133l-103 -100h-237l223 219q-81 104 -113.5 240t-9.5 286q23 148 100 281.5t188.5 230t257 153t300.5 56.5q233 0 407 -135l103 103h237l-223 -220q80 -107 112.5 -242t8.5 -284z
M299 707q-24 -185 74 -332l811 801q-116 77 -269 77q-148 0 -283 -72.5t-224.5 -198.5t-108.5 -275zM492 258q118 -78 268 -78q148 0 282.5 73t224 199t109.5 275q24 186 -73 332z" />
    <glyph glyph-name="product" unicode="&#x220f;" horiz-adv-x="1689" 
d="M528 -451h-471l238 1489h-166l64 396h1570l-63 -396h-164l-238 -1489h-473l238 1489h-297z" />
    <glyph glyph-name="summation" unicode="&#x2211;" horiz-adv-x="1220" 
d="M1047 0h-1076l41 258l496 477l-348 463l39 236h1056l-65 -414h-432l196 -262l-14 -92l-264 -252h436z" />
    <glyph glyph-name="minus" unicode="&#x2212;" horiz-adv-x="1060" 
d="M954 547h-866l55 344h867z" />
    <glyph glyph-name="radical" unicode="&#x221a;" horiz-adv-x="1658" 
d="M821 0h-379l-180 567h-233l65 416h492l114 -465l664 1079h487z" />
    <glyph glyph-name="infinity" unicode="&#x221e;" horiz-adv-x="1828" 
d="M963 981q104 100 209 153.5t225 53.5q87 0 163 -33.5t131 -94t79 -153t6 -202.5q-21 -133 -93 -231t-173 -146.5t-218 -48.5q-221 0 -379 206q-209 -206 -434 -206q-87 0 -163 33.5t-131 94t-79.5 153t-7.5 202.5q21 133 93.5 231t174.5 146.5t220 48.5q120 0 215.5 -59
t161.5 -148zM754 750q-61 95 -144 92q-44 -2 -82.5 -32t-46.5 -83q-7 -49 18.5 -77.5t67.5 -26.5q85 3 187 127zM1395 739q7 48 -19 76.5t-65 26.5q-47 -1 -90 -30t-99 -95q60 -97 146 -94q43 2 80 31t47 85z" />
    <glyph glyph-name="integral" unicode="&#x222b;" horiz-adv-x="1030" 
d="M397 1210q15 96 52.5 170.5t86 120.5t111 76t123 41.5t127.5 11.5q152 0 279 -49l-56 -352q-63 26 -129 26q-69 0 -118 -37.5t-62 -113.5l-184 -1165q-15 -97 -52.5 -172t-86.5 -121t-112.5 -76t-124.5 -41.5t-128 -11.5q-158 0 -275 43l58 360q57 -24 117 -24
q72 0 124.5 37t65.5 110z" />
    <glyph glyph-name="approxequal" unicode="&#x2248;" horiz-adv-x="1273" 
d="M1255 1186q3 -109 -22 -192.5t-71 -133.5t-106 -75t-132 -25q-69 0 -152.5 25t-148.5 49.5t-91 23.5q-62 0 -65 -88h-334q-2 110 23.5 194t72.5 133.5t106 74t128 24.5q72 0 153.5 -24.5t146 -49t93.5 -24.5q33 0 49 20.5t17 67.5h333zM1186 705q3 -109 -22 -192
t-71.5 -132.5t-106.5 -74.5t-132 -25q-69 0 -152 25t-148 49.5t-91 23.5q-63 0 -66 -88h-334q-2 110 23.5 194t72.5 133.5t106 74t128 24.5q72 0 153.5 -24.5t146 -49.5t93.5 -25q63 0 66 87h334z" />
    <glyph glyph-name="notequal" unicode="&#x2260;" horiz-adv-x="1282" 
d="M371 115h-252l139 204h-176l53 332h352l91 131h-422l53 332h598l143 205h252l-141 -205h176l-53 -332h-353l-90 -131h422l-51 -332h-600z" />
    <glyph glyph-name="lessequal" unicode="&#x2264;" horiz-adv-x="1073" 
d="M987 739l-59 -368l-830 262l70 432l911 258l-59 -375l-549 -106zM868 0h-870l53 334h871z" />
    <glyph glyph-name="greaterequal" unicode="&#x2265;" horiz-adv-x="1069" 
d="M987 645l-911 -260l59 377l539 108l-504 107l57 364l830 -266zM885 0h-871l54 334h870z" />
    <glyph glyph-name="lozenge" unicode="&#x25ca;" horiz-adv-x="1284" 
d="M793 0h-486l-235 717l456 717h484l239 -717zM485 680l105 -318l248 390l-105 317z" />
    <glyph glyph-name="i.loclTRK" horiz-adv-x="600" 
d="M422 0h-432l155 983h433zM616 1264q-14 -94 -75 -137.5t-148 -43.5q-101 0 -159 61t-39 175q14 92 76 136t149 44q100 0 157 -61t39 -174z" />
    <glyph glyph-name="a.ss01" horiz-adv-x="1175" 
d="M1028 303q-4 -26 7 -35.5t34 -9.5q26 0 47 6l-39 -260q-88 -31 -200 -31q-179 0 -242 113q-131 -119 -336 -119q-94 0 -168.5 36.5t-115 107.5t-29.5 163q10 85 54.5 147t111 95t139 48.5t153.5 15.5q125 0 218 -19l6 35q7 54 -44 77t-149 23q-162 0 -352 -75l53 337
q192 58 371 58q78 0 143 -7.5t124 -23.5t103 -42.5t79.5 -65t52.5 -89.5t23 -117t-9 -147zM547 385q-133 0 -146 -86q-6 -33 17 -57.5t63 -24.5q77 0 135 55l17 103q-38 10 -86 10z" />
    <glyph glyph-name="aacute.ss01" horiz-adv-x="1175" 
d="M1028 303q-4 -26 7 -35.5t34 -9.5q26 0 47 6l-39 -260q-88 -31 -200 -31q-179 0 -242 113q-131 -119 -336 -119q-94 0 -168.5 36.5t-115 107.5t-29.5 163q10 85 54.5 147t111 95t139 48.5t153.5 15.5q125 0 218 -19l6 35q7 54 -44 77t-149 23q-162 0 -352 -75l53 337
q192 58 371 58q78 0 143 -7.5t124 -23.5t103 -42.5t79.5 -65t52.5 -89.5t23 -117t-9 -147zM547 385q-133 0 -146 -86q-6 -33 17 -57.5t63 -24.5q77 0 135 55l17 103q-38 10 -86 10zM770 1090h-397l254 335h444z" />
    <glyph glyph-name="abreve.ss01" horiz-adv-x="1175" 
d="M1028 303q-4 -26 7 -35.5t34 -9.5q26 0 47 6l-39 -260q-88 -31 -200 -31q-179 0 -242 113q-131 -119 -336 -119q-94 0 -168.5 36.5t-115 107.5t-29.5 163q10 85 54.5 147t111 95t139 48.5t153.5 15.5q125 0 218 -19l6 35q7 54 -44 77t-149 23q-162 0 -352 -75l53 337
q192 58 371 58q78 0 143 -7.5t124 -23.5t103 -42.5t79.5 -65t52.5 -89.5t23 -117t-9 -147zM547 385q-133 0 -146 -86q-6 -33 17 -57.5t63 -24.5q77 0 135 55l17 103q-38 10 -86 10zM999 1167q-85 -53 -172.5 -78.5t-197.5 -25.5q-230 0 -371 104l47 293q138 -94 344 -94
q228 0 395 94z" />
    <glyph glyph-name="acircumflex.ss01" horiz-adv-x="1175" 
d="M1028 303q-4 -26 7 -35.5t34 -9.5q26 0 47 6l-39 -260q-88 -31 -200 -31q-179 0 -242 113q-131 -119 -336 -119q-94 0 -168.5 36.5t-115 107.5t-29.5 163q10 85 54.5 147t111 95t139 48.5t153.5 15.5q125 0 218 -19l6 35q7 54 -44 77t-149 23q-162 0 -352 -75l53 337
q192 58 371 58q78 0 143 -7.5t124 -23.5t103 -42.5t79.5 -65t52.5 -89.5t23 -117t-9 -147zM547 385q-133 0 -146 -86q-6 -33 17 -57.5t63 -24.5q77 0 135 55l17 103q-38 10 -86 10zM473 1430h379l207 -351h-344l-72 123l-113 -123h-374z" />
    <glyph glyph-name="adieresis.ss01" horiz-adv-x="1175" 
d="M1028 303q-4 -26 7 -35.5t34 -9.5q26 0 47 6l-39 -260q-88 -31 -200 -31q-179 0 -242 113q-131 -119 -336 -119q-94 0 -168.5 36.5t-115 107.5t-29.5 163q10 85 54.5 147t111 95t139 48.5t153.5 15.5q125 0 218 -19l6 35q7 54 -44 77t-149 23q-162 0 -352 -75l53 337
q192 58 371 58q78 0 143 -7.5t124 -23.5t103 -42.5t79.5 -65t52.5 -89.5t23 -117t-9 -147zM547 385q-133 0 -146 -86q-6 -33 17 -57.5t63 -24.5q77 0 135 55l17 103q-38 10 -86 10zM1071 1247q-9 -84 -68 -135t-141 -51q-88 0 -140.5 57.5t-43.5 149.5q9 83 68.5 134.5
t140.5 51.5q88 0 140.5 -57.5t43.5 -149.5zM600 1247q-9 -84 -68 -135t-141 -51q-88 0 -140.5 57.5t-43.5 149.5q9 83 68.5 134.5t140.5 51.5q88 0 140.5 -57.5t43.5 -149.5z" />
    <glyph glyph-name="agrave.ss01" horiz-adv-x="1175" 
d="M1028 303q-4 -26 7 -35.5t34 -9.5q26 0 47 6l-39 -260q-88 -31 -200 -31q-179 0 -242 113q-131 -119 -336 -119q-94 0 -168.5 36.5t-115 107.5t-29.5 163q10 85 54.5 147t111 95t139 48.5t153.5 15.5q125 0 218 -19l6 35q7 54 -44 77t-149 23q-162 0 -352 -75l53 337
q192 58 371 58q78 0 143 -7.5t124 -23.5t103 -42.5t79.5 -65t52.5 -89.5t23 -117t-9 -147zM547 385q-133 0 -146 -86q-6 -33 17 -57.5t63 -24.5q77 0 135 55l17 103q-38 10 -86 10zM838 1090h-375l-197 335h424z" />
    <glyph glyph-name="amacron.ss01" horiz-adv-x="1175" 
d="M1028 303q-4 -26 7 -35.5t34 -9.5q26 0 47 6l-39 -260q-88 -31 -200 -31q-179 0 -242 113q-131 -119 -336 -119q-94 0 -168.5 36.5t-115 107.5t-29.5 163q10 85 54.5 147t111 95t139 48.5t153.5 15.5q125 0 218 -19l6 35q7 54 -44 77t-149 23q-162 0 -352 -75l53 337
q192 58 371 58q78 0 143 -7.5t124 -23.5t103 -42.5t79.5 -65t52.5 -89.5t23 -117t-9 -147zM547 385q-133 0 -146 -86q-6 -33 17 -57.5t63 -24.5q77 0 135 55l17 103q-38 10 -86 10zM293 1397h743l-47 -297h-743z" />
    <glyph glyph-name="aogonek.ss01" horiz-adv-x="1177" 
d="M1116 264l-39 -260q-52 -36 -90.5 -85t-38.5 -81q0 -39 45 -39q28 0 51 13l-40 -263q-74 -28 -170 -28q-118 0 -188.5 56.5t-63.5 154.5q5 65 50 133.5t126 124.5q-85 28 -123 96q-131 -119 -336 -119q-94 0 -168.5 36.5t-115 107.5t-29.5 163q10 85 54.5 147t111 95
t139 48.5t153.5 15.5q125 0 218 -19l6 35q7 54 -44 77t-149 23q-162 0 -352 -75l53 337q192 58 371 58q78 0 143 -7.5t124 -23.5t103 -42.5t79.5 -65t52.5 -89.5t23 -117t-9 -147l-35 -221q-4 -26 7 -35.5t34 -9.5q26 0 47 6zM481 217q77 0 135 55l17 103q-38 10 -86 10
q-133 0 -146 -86q-6 -33 17 -57.5t63 -24.5z" />
    <glyph glyph-name="aring.ss01" horiz-adv-x="1175" 
d="M1028 303q-4 -26 7 -35.5t34 -9.5q26 0 47 6l-39 -260q-88 -31 -200 -31q-179 0 -242 113q-131 -119 -336 -119q-94 0 -168.5 36.5t-115 107.5t-29.5 163q10 85 54.5 147t111 95t139 48.5t153.5 15.5q125 0 218 -19l6 35q7 54 -44 77t-149 23q-162 0 -352 -75l53 337
q192 58 371 58q78 0 143 -7.5t124 -23.5t103 -42.5t79.5 -65t52.5 -89.5t23 -117t-9 -147zM547 385q-133 0 -146 -86q-6 -33 17 -57.5t63 -24.5q77 0 135 55l17 103q-38 10 -86 10zM940 1286q-13 -78 -58.5 -133t-109.5 -80.5t-141 -25.5q-57 0 -108.5 20t-89.5 56.5
t-56 93.5t-8 126q20 111 106.5 174.5t200.5 63.5q58 0 110 -20.5t90.5 -57.5t56.5 -93.5t7 -123.5zM584 1317q-5 -33 11.5 -53.5t49.5 -20.5t53 19t25 49q6 31 -10 51t-51 20q-31 0 -52 -18t-26 -47z" />
    <glyph glyph-name="atilde.ss01" horiz-adv-x="1175" 
d="M1028 303q-4 -26 7 -35.5t34 -9.5q26 0 47 6l-39 -260q-88 -31 -200 -31q-179 0 -242 113q-131 -119 -336 -119q-94 0 -168.5 36.5t-115 107.5t-29.5 163q10 85 54.5 147t111 95t139 48.5t153.5 15.5q125 0 218 -19l6 35q7 54 -44 77t-149 23q-162 0 -352 -75l53 337
q192 58 371 58q78 0 143 -7.5t124 -23.5t103 -42.5t79.5 -65t52.5 -89.5t23 -117t-9 -147zM547 385q-133 0 -146 -86q-6 -33 17 -57.5t63 -24.5q77 0 135 55l17 103q-38 10 -86 10zM1069 1430q20 -159 -55.5 -263t-206.5 -104q-57 0 -115 20.5t-104 41t-74 20.5t-42 -22.5
t-9 -47.5h-275q-20 158 55.5 262.5t205.5 104.5q58 0 116 -20.5t103.5 -41t72.5 -20.5q28 0 42.5 22.5t9.5 47.5h276z" />
    <glyph glyph-name="ae.ss01" horiz-adv-x="1703" 
d="M752 115q-187 -148 -433 -148q-158 0 -253 83t-78 226q8 67 39.5 120.5t76 87.5t102 56t114 31t116.5 9q126 0 219 -19l4 35q8 54 -40.5 77t-139.5 23q-162 0 -364 -75l53 337q196 58 383 58q124 0 203.5 -25t128.5 -82q142 107 319 107q120 0 212 -36t145 -97.5
t78.5 -141.5t20 -169.5t-39.5 -180.5h-610q10 -43 48 -71.5t90 -40t118 -11.5q172 0 305 47l-47 -299q-143 -51 -353 -51q-130 0 -238.5 37.5t-178.5 112.5zM406 301q-6 -37 18 -60.5t65 -23.5q94 0 175 72q-13 41 -13 84q-53 12 -104 12q-52 0 -93 -19t-48 -65zM1196 731
q-68 0 -113 -42t-53 -97h268q15 54 -11 96.5t-91 42.5z" />
    <glyph glyph-name="y.ss01" 
d="M1047 49q-18 -117 -64 -209t-107.5 -152t-141.5 -99t-162.5 -55.5t-174.5 -16.5q-244 0 -424 73l43 351q56 -36 138.5 -55t167.5 -19q115 0 196 43.5t94 124.5l4 31q-110 -76 -241 -76q-120 0 -203.5 55.5t-116.5 145t-16 196.5l94 596h432l-90 -563q-15 -92 70 -92
q72 0 123 55l94 600h432z" />
    <glyph glyph-name="yacute.ss01" 
d="M1047 49q-18 -117 -64 -209t-107.5 -152t-141.5 -99t-162.5 -55.5t-174.5 -16.5q-244 0 -424 73l43 351q56 -36 138.5 -55t167.5 -19q115 0 196 43.5t94 124.5l4 31q-110 -76 -241 -76q-120 0 -203.5 55.5t-116.5 145t-16 196.5l94 596h432l-90 -563q-15 -92 70 -92
q72 0 123 55l94 600h432zM821 1090h-397l254 335h444z" />
    <glyph glyph-name="ycircumflex.ss01" 
d="M1047 49q-18 -117 -64 -209t-107.5 -152t-141.5 -99t-162.5 -55.5t-174.5 -16.5q-244 0 -424 73l43 351q56 -36 138.5 -55t167.5 -19q115 0 196 43.5t94 124.5l4 31q-110 -76 -241 -76q-120 0 -203.5 55.5t-116.5 145t-16 196.5l94 596h432l-90 -563q-15 -92 70 -92
q72 0 123 55l94 600h432zM524 1430h379l207 -351h-344l-72 123l-112 -123h-375z" />
    <glyph glyph-name="ydieresis.ss01" 
d="M1047 49q-18 -117 -64 -209t-107.5 -152t-141.5 -99t-162.5 -55.5t-174.5 -16.5q-244 0 -424 73l43 351q56 -36 138.5 -55t167.5 -19q115 0 196 43.5t94 124.5l4 31q-110 -76 -241 -76q-120 0 -203.5 55.5t-116.5 145t-16 196.5l94 596h432l-90 -563q-15 -92 70 -92
q72 0 123 55l94 600h432zM1122 1247q-9 -84 -68 -135t-141 -51q-88 0 -140.5 57.5t-43.5 149.5q9 83 68.5 134.5t140.5 51.5q88 0 140.5 -57.5t43.5 -149.5zM651 1247q-9 -84 -68 -135t-141 -51q-88 0 -140.5 57.5t-43.5 149.5q9 83 68.5 134.5t140.5 51.5q88 0 140.5 -57.5
t43.5 -149.5z" />
    <glyph glyph-name="ygrave.ss01" 
d="M1047 49q-18 -117 -64 -209t-107.5 -152t-141.5 -99t-162.5 -55.5t-174.5 -16.5q-244 0 -424 73l43 351q56 -36 138.5 -55t167.5 -19q115 0 196 43.5t94 124.5l4 31q-110 -76 -241 -76q-120 0 -203.5 55.5t-116.5 145t-16 196.5l94 596h432l-90 -563q-15 -92 70 -92
q72 0 123 55l94 600h432zM889 1090h-375l-197 335h424z" />
    <glyph glyph-name="f_b" horiz-adv-x="2103" 
d="M1389 915q123 101 270 101q86 0 157 -30t117.5 -82.5t76.5 -123t35 -150.5t-7 -167q-15 -99 -54 -186t-100 -157.5t-151.5 -111.5t-198.5 -41q-112 0 -193 48.5t-122 121.5l-27 -137h-379l178 1120q-68 20 -119 17q-73 0 -124.5 -35t-63.5 -103l-4 -16h184l-55 -344h-182
l-103 -639h-430l101 639h-140l56 344h139l12 78q17 107 68 190.5t124 134.5t160 77t183 26q166 0 317 -53l365 39zM1409 313q75 0 127.5 52t65.5 129q10 71 -17.5 123.5t-95.5 52.5q-83 0 -152 -76l-32 -215q27 -66 104 -66z" />
    <glyph glyph-name="f_f_b" horiz-adv-x="2818" 
d="M2103 915q123 101 271 101q86 0 157 -30t117.5 -82.5t76.5 -123t35 -150.5t-7 -167q-15 -99 -54 -186t-100 -157.5t-151.5 -111.5t-198.5 -41q-112 0 -193.5 48.5t-122.5 121.5l-26 -137h-379l180 1130q-65 20 -115 17q-76 0 -130 -36.5t-64 -102.5l-4 -25h184l-55 -344
h-183l-102 -639h-430l100 639h-282l-103 -639h-430l101 639h-140l56 344h139l10 61q16 102 65 181t121 127.5t158.5 73t183.5 24.5q195 0 351 -80q144 127 374 127q169 0 320 -53l362 39zM965 983l8 57q2 23 12 62q-50 22 -131 22q-73 0 -118 -34.5t-54 -90.5l-2 -16h285z
M2124 313q75 0 127 52t65 129q10 71 -17 123.5t-95 52.5q-83 0 -152 -76l-33 -215q27 -66 105 -66z" />
    <glyph glyph-name="f_f_h" horiz-adv-x="2756" 
d="M2107 934q134 82 256 82q94 0 164 -34t107.5 -90.5t51 -125.5t1.5 -143l-98 -623h-432l90 569q7 41 -12 62.5t-56 21.5q-66 0 -125 -55l-94 -598h-432l178 1130q-65 20 -113 17q-76 0 -130 -36.5t-64 -102.5l-4 -25h184l-55 -344h-183l-102 -639h-430l100 639h-282
l-103 -639h-430l101 639h-140l56 344h139l10 61q16 102 65 181t121 127.5t158.5 73t183.5 24.5q195 0 351 -80q144 127 374 127q169 0 320 -53l362 39zM965 983l8 66l12 53q-50 22 -131 22q-73 0 -118 -34.5t-54 -90.5l-2 -16h285z" />
    <glyph glyph-name="f_f_j" horiz-adv-x="2113" 
d="M1913 -131q-16 -96 -56.5 -166t-100 -109.5t-127.5 -58t-148 -18.5q-126 0 -211 45l55 348q24 -12 66 -12q48 0 75.5 27t36.5 89l101 625h-263l-102 -639h-430l100 639h-282l-103 -639h-430l101 639h-140l56 344h139l10 61q13 82 47.5 149.5t85 114.5t115.5 79.5
t137.5 47.5t151.5 15q194 0 340 -80q161 137 430 137q216 0 399 -71l-53 -328q-143 51 -277 51q-103 0 -163.5 -38.5t-71.5 -108.5l-6 -29h694zM682 999l-2 -16h285l8 57q3 25 12 62q-53 22 -131 22q-73 0 -118 -34.5t-54 -90.5z" />
    <glyph glyph-name="f_f_k" horiz-adv-x="2760" 
d="M2359 983h477l-395 -514l225 -469h-444l-139 332h-72l-51 -332h-432l178 1130q-65 20 -113 17q-76 0 -130 -36.5t-64 -102.5l-4 -25h184l-55 -344h-183l-102 -639h-430l100 639h-282l-103 -639h-430l101 639h-140l56 344h139l10 61q16 102 65 181t121 127.5t158.5 73
t183.5 24.5q195 0 351 -80q144 127 374 127q169 0 320 -53l362 39l-129 -815h68zM965 983l8 57q3 25 12 62q-50 22 -131 22q-73 0 -118 -34.5t-54 -90.5l-2 -16h285z" />
    <glyph glyph-name="f_h" horiz-adv-x="2041" 
d="M1393 934q134 82 256 82q94 0 164 -34t107 -90.5t50.5 -125.5t1.5 -143l-98 -623h-432l90 569q7 41 -12 62.5t-56 21.5q-66 0 -125 -55l-94 -598h-432l178 1120q-68 20 -119 17q-73 0 -124.5 -35t-63.5 -103l-4 -16h184l-55 -344h-182l-103 -639h-430l101 639h-140
l56 344h139l12 78q17 107 68 190.5t124 134.5t160 77t183 26q166 0 317 -53l365 39z" />
    <glyph glyph-name="f_i" horiz-adv-x="1378" 
d="M524 0h-430l101 639h-140l56 344h139l10 70q19 114 73.5 200t136 136.5t176.5 75t204 24.5q210 0 399 -72l-53 -327q-143 51 -278 51q-102 0 -162.5 -39t-71.5 -107l-4 -12h676l-156 -983h-432l102 639h-243z" />
    <glyph glyph-name="f_j" horiz-adv-x="1380" 
d="M1180 -131q-15 -96 -55.5 -166t-100 -109.5t-127.5 -58t-147 -18.5q-128 0 -213 45l55 348q24 -12 65 -12q50 0 77 27t36 89l100 625h-243l-103 -639h-430l101 639h-140l56 344h139l10 70q19 114 73.5 200t136 136.5t176.5 75t204 24.5q210 0 399 -72l-53 -327
q-143 51 -278 51q-102 0 -162.5 -39t-71.5 -107l-4 -12h676z" />
    <glyph glyph-name="f_k" horiz-adv-x="2045" 
d="M1645 983h477l-396 -514l226 -469h-445l-139 332h-72l-51 -332h-432l178 1120q-68 20 -119 17q-73 0 -124.5 -35t-63.5 -103l-4 -16h184l-55 -344h-182l-103 -639h-430l101 639h-140l56 344h139l12 78q17 107 68 190.5t124 134.5t160 77t183 26q166 0 317 -53l365 39
l-129 -807h69z" />
    <glyph glyph-name="f_l" horiz-adv-x="1423" 
d="M797 1489q166 0 317 -53l365 39l-234 -1475h-432l178 1120q-68 20 -119 17q-73 0 -124.5 -35t-63.5 -103l-4 -16h184l-55 -344h-182l-103 -639h-430l101 639h-140l56 344h139l12 78q17 107 68 190.5t124 134.5t160 77t183 26z" />
    <glyph glyph-name="uni0414.loclBGR" horiz-adv-x="1802" 
d="M332 -279h-420l106 676h177l579 1037h514l256 -1037h178l-106 -676h-420l43 279h-864zM977 952l-291 -555h404z" />
    <glyph glyph-name="uni041B.loclBGR" horiz-adv-x="1521" 
d="M-100 0l751 1434h486l297 -1434h-492l-121 874l-405 -874h-516z" />
    <glyph glyph-name="uni0424.loclBGR" horiz-adv-x="1837" 
d="M1012 -184h-430l30 196q-198 22 -339.5 127t-202 266.5t-31.5 348.5q21 132 83.5 247t162 205t241.5 147t312 70l32 195h430l-34 -197q201 -23 342.5 -128.5t200 -265.5t28.5 -347q-20 -132 -80.5 -246t-158 -204.5t-240 -148t-314.5 -71.5zM500 723q-5 -36 -6 -72
t8 -79.5t28 -78t57.5 -61t92.5 -33.5l100 631q-234 -31 -280 -307zM1198 1034l-98 -628q67 10 118 41t82 76.5t48.5 93.5t25.5 102q3 33 5.5 71t-8 78t-28.5 74t-55.5 59t-89.5 33z" />
    <glyph glyph-name="uni0432.loclBGR" horiz-adv-x="1249" 
d="M766 1466q109 0 196.5 -32.5t141 -87.5t76.5 -127.5t10 -153.5q-27 -181 -203 -270q105 -44 160 -143.5t35 -229.5q-35 -217 -201.5 -336t-411.5 -119q-87 0 -159.5 14t-138 45.5t-110 82t-75 124t-34 171.5t13.5 223l20 139q54 350 226 525t454 175zM791 1026
q8 44 -10.5 71t-63.5 27q-67 0 -117 -58.5t-80 -205.5l121 25q64 13 103.5 54t46.5 87zM596 319q67 0 113 40.5t57 107.5q9 62 -35.5 99.5t-122.5 19.5l-135 -29q-17 -131 12.5 -184.5t110.5 -53.5z" />
    <glyph glyph-name="uni0433.loclBGR" horiz-adv-x="1017" 
d="M858 43q-171 -76 -407 -76q-81 0 -150.5 11t-131.5 36.5t-104 65t-61.5 101t-9.5 138.5q9 67 42.5 118.5t80.5 81.5t102 51t109 33t98.5 22t73.5 22.5t32 30.5q6 41 -77 41q-77 0 -168.5 -25t-167.5 -65l49 307q180 80 389 80q71 0 134.5 -10.5t122 -35.5t98 -63t58 -98
t7.5 -135q-11 -68 -45.5 -119t-81.5 -80.5t-101.5 -50.5t-107 -32.5t-96.5 -21.5t-72 -24t-31 -33q-3 -21 20 -30t79 -9q82 0 184 25.5t186 81.5z" />
    <glyph glyph-name="uni0434.loclBGR" horiz-adv-x="1277" 
d="M1110 49q-18 -115 -63.5 -206.5t-107.5 -151.5t-141.5 -100t-162.5 -57t-174 -17q-272 0 -469 90l55 346q160 -86 338 -86q119 0 198 45t95 139l6 41q-91 -102 -264 -102q-90 0 -162.5 29t-119 79t-77 118.5t-35 148t6.5 165.5q16 98 57 184.5t104.5 154.5t154 107.5
t196.5 39.5q103 0 183.5 -45t125.5 -119l23 131h378zM469 489q-9 -73 21 -122t94 -50q86 0 149 78l35 215q-11 29 -40 47.5t-66 18.5q-77 0 -128.5 -53.5t-64.5 -133.5z" />
    <glyph glyph-name="uni0436.loclBGR" horiz-adv-x="1763" 
d="M354 0h-456l354 520l-160 463h418l108 -334h66l125 785h416l-123 -785h67l195 334h451l-334 -526l166 -457h-422l-109 313h-67l-52 -313h-415l49 313h-76z" />
    <glyph glyph-name="uni0438.loclBGR" 
d="M762 983h432l-156 -983h-381l17 92q-122 -125 -301 -125q-120 0 -204 56t-117.5 145.5t-16.5 196.5l98 618h432l-90 -563q-15 -92 70 -92q72 0 123 55z" />
    <glyph glyph-name="uni0439.loclBGR" 
d="M1040 1171q-143 -94 -346 -94q-92 0 -185 25.5t-163 68.5l43 277q147 -84 324 -84q201 0 370 84zM762 983h432l-156 -983h-381l17 92q-122 -125 -301 -125q-120 0 -204 56t-117.5 145.5t-16.5 196.5l98 618h432l-90 -563q-15 -92 70 -92q72 0 123 55z" />
    <glyph glyph-name="uni043A.loclBGR" horiz-adv-x="1218" 
d="M813 983h479l-393 -512l227 -471h-444l-139 332h-72l-51 -332h-432l227 1434h432l-123 -766h64z" />
    <glyph glyph-name="uni043B.loclBGR" horiz-adv-x="1226" 
d="M907 983l221 -983h-436l-63 571l-250 -571h-469l536 983h461z" />
    <glyph glyph-name="uni043F.loclBGR" 
d="M508 891q148 125 323 125q92 0 160.5 -34t105 -90.5t49.5 -125t1 -141.5l-98 -625h-433l91 569q7 42 -12 63t-56 21q-58 0 -125 -53l-94 -600h-432l155 983h379z" />
    <glyph glyph-name="uni0442.loclBGR" horiz-adv-x="1769" 
d="M1069 887q62 59 149.5 94t180.5 35q72 0 129.5 -23t92.5 -62t57.5 -91.5t25 -112.5t-5.5 -123l-96 -604h-426l94 594q4 30 -13.5 45.5t-46.5 15.5q-53 0 -102 -45q0 -12 -4 -32l-92 -578h-426l94 594q4 30 -13 45.5t-44 15.5q-65 0 -115 -57l-94 -598h-426l155 983h381
l-16 -98q49 55 133.5 93t175.5 38q179 0 252 -129z" />
    <glyph glyph-name="uni0446.loclBGR" horiz-adv-x="1308" 
d="M1085 303q-9 -43 43 -43h91l-80 -512h-365l37 242q-86 27 -127 102q-134 -125 -311 -125q-120 0 -204 56t-117.5 145.5t-16.5 196.5l98 618h432l-90 -563q-15 -92 70 -92q72 0 123 55l94 600h432z" />
    <glyph glyph-name="uni0448.loclBGR" horiz-adv-x="1775" 
d="M1227 373l96 610h430l-156 -983h-380l14 86q-51 -51 -130.5 -85t-166.5 -34q-175 0 -256 125q-69 -59 -157 -92t-177 -33q-119 0 -195.5 60.5t-101.5 152t-8 199.5l96 604h430l-92 -596q-6 -33 10 -48t43 -15q55 0 99 41q1 6 4 23.5t4 23.5l92 571h430l-94 -596
q-4 -33 11.5 -48t43.5 -15q65 0 111 49z" />
    <glyph glyph-name="uni0449.loclBGR" horiz-adv-x="1867" 
d="M1645 303q-3 -22 8.5 -32.5t36.5 -10.5h90l-80 -512h-365l37 242q-87 28 -125 100q-123 -123 -315 -123q-170 0 -256 121q-144 -121 -326 -121q-75 0 -134.5 23t-96 62t-59.5 91.5t-26 112.5t5 123l96 604h430l-92 -596q-6 -33 10 -48t43 -15q51 0 99 41l98 618h430
l-92 -596q-6 -33 10 -48t43 -15q65 0 111 49l96 610h432z" />
    <glyph glyph-name="uni044E.loclBGR" horiz-adv-x="1746" 
d="M1683 459q-16 -100 -57.5 -181.5t-100 -138.5t-134 -96.5t-159 -57.5t-175.5 -18q-180 0 -313.5 95t-163.5 268h-111l-53 -330h-428l227 1434h428l-123 -781h94q65 180 218.5 271.5t351.5 91.5q121 0 222 -39t169.5 -109.5t98 -176t9.5 -232.5zM973 481
q-8 -68 20.5 -110.5t96.5 -42.5q74 0 120.5 47.5t55.5 126.5q8 68 -20.5 110.5t-96.5 42.5q-74 0 -120.5 -47.5t-55.5 -126.5z" />
    <glyph glyph-name="uni0430.ss01" horiz-adv-x="1193" 
d="M1028 303q-4 -26 7 -35.5t34 -9.5q26 0 47 6l-39 -260q-88 -31 -200 -31q-179 0 -242 113q-131 -119 -336 -119q-94 0 -168.5 36.5t-115 107.5t-29.5 163q10 85 54.5 147t111 95t139 48.5t153.5 15.5q125 0 218 -19l6 35q7 54 -44 77t-149 23q-162 0 -352 -75l53 337
q192 58 371 58q78 0 143 -7.5t124 -23.5t103 -42.5t79.5 -65t52.5 -89.5t23 -117t-9 -147zM547 385q-133 0 -146 -86q-6 -33 17 -57.5t63 -24.5q77 0 135 55l17 103q-38 10 -86 10z" />
    <glyph glyph-name="uni0437.ss01" horiz-adv-x="983" 
d="M879 -49q-18 -117 -78 -203t-149 -135.5t-191.5 -72.5t-220.5 -23q-235 0 -381 77l49 322q129 -76 293 -76q242 0 266 172q12 73 -34 112.5t-154 14.5l-117 -24l45 291l131 28q70 14 107 51t44 86q9 63 -34.5 94t-120.5 31q-141 0 -293 -90l51 328q180 82 377 82
q70 0 136 -16.5t122.5 -50t96.5 -80.5t57.5 -113t5.5 -142q-27 -187 -207 -272q107 -49 163.5 -154.5t35.5 -236.5z" />
    <glyph glyph-name="uni0443.ss01" 
d="M1047 49q-18 -117 -64 -209t-107.5 -152t-141.5 -99t-162.5 -55.5t-174.5 -16.5q-244 0 -424 73l43 351q56 -36 138.5 -55t167.5 -19q115 0 196 43.5t94 124.5l4 31q-110 -76 -241 -76q-120 0 -203.5 55.5t-116.5 145t-16 196.5l94 596h432l-90 -563q-15 -92 70 -92
q72 0 123 55l94 600h432z" />
    <glyph glyph-name="zero.osf" horiz-adv-x="1386" 
d="M1317 502q-14 -84 -49.5 -161t-96 -145.5t-140 -119t-187.5 -80t-232 -29.5q-111 0 -203 23t-156 63.5t-111.5 96t-69.5 121.5t-30 140t7 150q17 106 69.5 200.5t138 171t213.5 121t282 44.5q95 0 176.5 -17t142 -48t109 -73.5t77.5 -94.5t47.5 -111.5t19.5 -122.5
t-7 -129zM512 518q-12 -74 21.5 -120t105.5 -46q85 0 142 53.5t71 141.5q12 75 -21 120.5t-104 45.5q-88 0 -145.5 -53t-69.5 -142z" />
    <glyph glyph-name="one.osf" horiz-adv-x="1030" 
d="M506 1065h346l-109 -690h213l-59 -375h-909l61 375h238l43 266l-240 -84l60 379z" />
    <glyph glyph-name="two.osf" horiz-adv-x="1169" 
d="M997 2h-1026l29 174q9 56 32.5 102.5t52.5 78.5t78 63.5t90 52t109 49.5q24 10 61.5 25.5t55.5 23t43.5 19t38 19t26 17t19.5 19t8 19.5q6 26 -14 38.5t-59 12.5q-74 0 -189 -38.5t-235 -105.5l67 420q121 55 236 81t252 26q93 0 176.5 -24t147.5 -69.5t95.5 -119
t16.5 -164.5q-26 -153 -180 -246q-109 -67 -246 -98h375z" />
    <glyph glyph-name="three.osf" horiz-adv-x="1153" 
d="M1057 670q-14 -96 -80 -170t-184 -111q53 -14 96.5 -42t76.5 -71.5t46.5 -107t1.5 -139.5q-17 -106 -77 -184.5t-149.5 -121.5t-189 -63t-211.5 -20q-230 0 -457 88l60 376q161 -77 375 -77q95 2 152.5 28t64.5 74q6 40 -20 58t-83 18h-217l57 350h156q120 -3 137 74
q7 38 -26 58t-99 20q-193 0 -393 -82l64 393q189 80 422 80q102 0 193 -26.5t161.5 -77.5t104.5 -135t18 -189z" />
    <glyph glyph-name="four.osf" horiz-adv-x="1310" 
d="M709 1065h467l-134 -840h162l-57 -366h-162l-29 -187h-415l28 187h-653l53 354zM627 225l53 314l-274 -314h221z" />
    <glyph glyph-name="five.osf" horiz-adv-x="1150" 
d="M231 1065h883l-59 -385l-477 2l-31 -139q39 8 92 8q92 -2 168.5 -33t130.5 -87.5t76.5 -145t5.5 -197.5q-16 -101 -62 -179.5t-110 -128t-148.5 -82t-170.5 -45.5t-183 -13q-235 0 -424 86l60 366q142 -74 321 -74q106 0 176 32.5t80 96.5q10 62 -43.5 93.5t-153.5 31.5
q-159 0 -305 -47z" />
    <glyph glyph-name="six.osf" horiz-adv-x="1316" 
d="M596 866q113 43 242 43q85 0 162.5 -31t137.5 -88.5t87.5 -151.5t9.5 -208q-15 -97 -55.5 -175.5t-98 -131.5t-132 -88.5t-155 -51.5t-169.5 -16q-317 0 -458 197t-85 545q23 148 81.5 269.5t137 203t175.5 137.5t196.5 81t201.5 25q210 0 396 -94l-56 -348
q-121 80 -262 80q-246 0 -356 -197zM639 317q60 0 103 34t53 98q10 66 -24.5 99.5t-86.5 33.5q-92 0 -172 -54q-5 -211 127 -211z" />
    <glyph glyph-name="seven.osf" horiz-adv-x="1128" 
d="M113 1065h1067l-45 -299l-664 -1094h-518l612 1008h-514z" />
    <glyph glyph-name="eight.osf" horiz-adv-x="1302" 
d="M180 1038q12 72 53.5 138.5t111.5 123.5t179 91t242 34q130 0 232.5 -38t161 -100t83.5 -137.5t12 -152.5q-16 -92 -67.5 -152.5t-147.5 -119.5q206 -111 166 -360q-13 -80 -57.5 -150t-121 -126.5t-195 -89t-265.5 -32.5q-124 0 -222.5 24.5t-161.5 66.5t-102 98.5
t-51 119t-1 130.5q16 103 87 187.5t167 135.5q-134 112 -103 309zM666 518q-21 7 -56.5 21.5t-50.5 19.5q-68 -51 -80 -123q-5 -49 26.5 -86t98.5 -37q64 0 104 25.5t48 71.5q13 73 -90 108zM840 989q5 37 -25 65.5t-82 28.5q-53 0 -89 -24.5t-42 -65.5q-6 -31 11.5 -59.5
t58.5 -46.5q30 -12 86 -29q71 58 82 131z" />
    <glyph glyph-name="nine.osf" horiz-adv-x="1292" 
d="M45 635q19 120 78 211.5t144 145t183 80t205 26.5q308 0 454 -199t91 -543q-23 -148 -79 -269.5t-131.5 -203.5t-170 -137.5t-192.5 -80.5t-201 -25q-230 0 -414 96l54 344q118 -78 286 -78q114 0 199 45.5t139 153.5q-107 -45 -237 -45q-95 0 -176 31t-140 89t-84.5 151
t-7.5 208zM635 743q-57 0 -98.5 -32t-51.5 -95q-10 -65 22.5 -101t82.5 -36q94 0 176 53q5 211 -131 211z" />
    <glyph glyph-name="zero.sinf" horiz-adv-x="874" 
d="M768 184q-15 -86 -46.5 -157t-83 -129t-131 -90.5t-179.5 -32.5q-80 0 -144.5 24.5t-105.5 68t-67.5 102.5t-30.5 127.5t6 144.5q14 86 45.5 157t83.5 129t131.5 90.5t179.5 32.5q129 0 215 -65.5t116.5 -170t10.5 -231.5zM264 213q-34 -193 80 -193q59 0 95 46t53 147
q34 193 -80 193q-59 0 -95 -46t-53 -147z" />
    <glyph glyph-name="one.sinf" horiz-adv-x="655" 
d="M289 631h207l-97 -604h142l-37 -232h-574l37 232h158l53 335l-158 -51l39 242z" />
    <glyph glyph-name="two.sinf" horiz-adv-x="776" 
d="M74 567q155 84 309 84q64 0 121 -18t102.5 -53t67 -94.5t8.5 -135.5q-12 -75 -54 -120t-126 -97q-20 -12 -50.5 -30.5t-47.5 -28.5t-35.5 -23.5t-30.5 -25.5h291l-35 -230h-670l19 121q10 65 36.5 117.5t67.5 92t80.5 66.5t93.5 56q17 9 41 21t37.5 19.5t31 17t27.5 16.5
t20 15t15 16t6 16q4 20 -12 30.5t-45 10.5q-137 0 -311 -113z" />
    <glyph glyph-name="three.sinf" horiz-adv-x="751" 
d="M643 383q-20 -115 -158 -158q65 -20 105 -78t26 -149q-38 -223 -370 -223q-187 0 -312 61l37 234q121 -62 250 -62q58 0 95.5 15t41.5 43q3 23 -11 36t-46 13h-158l35 211h111q81 0 86 43q4 22 -16 34.5t-58 12.5q-141 0 -274 -68l39 238q136 65 276 65q63 0 120 -16.5
t102 -48t67 -84.5t12 -119z" />
    <glyph glyph-name="four.sinf" horiz-adv-x="845" 
d="M426 631h281l-80 -504h102l-35 -219h-102l-19 -113h-256l17 113h-414l35 225zM369 127l30 184l-174 -184h144z" />
    <glyph glyph-name="five.sinf" horiz-adv-x="751" 
d="M113 635h567l-37 -234h-330l-16 -82q29 5 61 5q58 0 108.5 -16.5t91 -49t58.5 -90.5t5 -133q-11 -73 -50 -126t-97 -81t-121.5 -40.5t-135.5 -12.5q-163 0 -289 63l35 215q91 -49 215 -49q69 0 117.5 19t54.5 61q4 34 -33 53t-106 19q-98 0 -201 -29z" />
    <glyph glyph-name="six.sinf" horiz-adv-x="833" 
d="M291 309q71 31 162 31q54 0 104 -19t89 -54t57.5 -93t7.5 -129q-22 -137 -124.5 -203.5t-242.5 -66.5q-206 0 -298 125.5t-58 345.5q17 106 62.5 186t110 127t138.5 69.5t158 22.5q143 0 266 -65l-33 -201q-68 47 -172 47q-159 0 -227 -123zM340 -16q95 0 106 82
q6 36 -17 55.5t-64 19.5q-59 0 -123 -39q0 -118 98 -118z" />
    <glyph glyph-name="seven.sinf" horiz-adv-x="722" 
d="M276 -205h-313l373 606h-338l37 234h674l-29 -182z" />
    <glyph glyph-name="eight.sinf" horiz-adv-x="825" 
d="M43 432q14 90 104 156.5t250 66.5q161 0 250.5 -83t73.5 -185q-10 -53 -39.5 -88t-89.5 -70q125 -72 100 -223q-13 -97 -110 -162t-277 -65q-187 0 -278 81.5t-72 194.5q17 118 145 189q-77 68 -57 188zM352 109q-65 21 -78 26q-44 -27 -47 -74q-3 -30 21 -52.5t74 -22.5
q89 0 100 55q4 23 -16 40.5t-54 27.5zM465 387q2 25 -18 43.5t-64 18.5q-37 0 -61 -14.5t-29 -39.5q-8 -48 63 -71q11 -4 36 -11t28 -8q42 42 45 82z" />
    <glyph glyph-name="nine.sinf" horiz-adv-x="833" 
d="M4 381q22 137 123.5 203.5t241.5 66.5q206 0 298 -125.5t58 -345.5q-17 -106 -62.5 -186t-110 -127t-138.5 -69.5t-158 -22.5q-156 0 -268 59l32 207q83 -47 193 -47q156 0 217 125q-79 -33 -170 -33q-54 0 -104 19t-89 54t-57 93t-6 129zM371 442q-42 0 -71.5 -20.5
t-35.5 -59.5q-4 -34 18 -55.5t58 -21.5q68 0 129 39q-1 66 -27 92t-71 26z" />
    <glyph glyph-name="zero.sups" horiz-adv-x="874" 
d="M924 1165q-14 -86 -46 -157t-84 -129t-131.5 -90.5t-179.5 -32.5q-80 0 -144.5 24.5t-105.5 68t-67.5 102.5t-30.5 127.5t6 144.5q14 86 45.5 157t84 129t132 90.5t179.5 32.5q129 0 215 -65.5t116.5 -170t10.5 -231.5zM420 1194q-34 -193 80 -193q59 0 94.5 45.5
t52.5 147.5q34 192 -80 192q-59 0 -94.5 -45t-52.5 -147z" />
    <glyph glyph-name="one.sups" horiz-adv-x="653" 
d="M440 1597h207l-96 -604h141l-37 -231h-573l37 231h157l54 336l-158 -51l39 242z" />
    <glyph glyph-name="two.sups" horiz-adv-x="776" 
d="M229 1548q155 84 310 84q64 0 121 -18t102.5 -53t67 -94.5t8.5 -135.5q-12 -75 -54.5 -120t-126.5 -97q-19 -12 -50 -30.5t-47.5 -28.5t-35 -23.5t-30.5 -25.5h290l-34 -230h-670l18 121q10 65 37 117.5t68 92.5t80.5 66.5t93.5 55.5q17 9 41 21t37.5 19.5t31 17
t27.5 16.5t20 15t15 16t6 16q4 20 -12 30.5t-45 10.5q-138 0 -312 -113z" />
    <glyph glyph-name="three.sups" horiz-adv-x="751" 
d="M799 1364q-20 -115 -158 -158q65 -20 105 -78t26 -149q-38 -223 -371 -223q-186 0 -311 61l37 234q121 -62 250 -62q58 0 95.5 15t41.5 43q3 23 -11 36t-46 13h-158l35 211h110q81 0 86 43q4 22 -15.5 34.5t-57.5 12.5q-142 0 -275 -68l39 238q136 65 277 65
q63 0 120 -16.5t102 -48t67 -84.5t12 -119z" />
    <glyph glyph-name="four.sups" horiz-adv-x="843" 
d="M578 1597h280l-80 -503h103l-35 -220h-103l-18 -112h-256l16 112h-413l34 226zM520 1094l31 184l-174 -184h143z" />
    <glyph glyph-name="five.sups" horiz-adv-x="749" 
d="M264 1597h567l-36 -233h-330l-16 -82q23 4 61 4q58 0 108.5 -16.5t90.5 -49.5t58 -90.5t5 -132.5q-11 -73 -50 -126t-97 -81t-121 -40.5t-135 -12.5q-161 0 -289 64l35 215q91 -49 215 -49q69 0 117.5 19t54.5 61q4 34 -33 52.5t-107 18.5q-100 0 -200 -28z" />
    <glyph glyph-name="six.sups" horiz-adv-x="833" 
d="M446 1290q71 31 162 31q54 0 104 -19t89 -54t57.5 -93t7.5 -129q-22 -137 -124 -203.5t-242 -66.5q-207 0 -299 125.5t-58 345.5q17 106 62.5 186t110 127t138.5 69.5t158 22.5q144 0 267 -65l-33 -201q-68 47 -172 47q-160 0 -228 -123zM496 965q95 0 106 82
q6 36 -17.5 55.5t-64.5 19.5q-59 0 -123 -39q0 -118 99 -118z" />
    <glyph glyph-name="seven.sups" horiz-adv-x="722" 
d="M428 758h-313l372 606h-337l36 233h674l-29 -182z" />
    <glyph glyph-name="eight.sups" horiz-adv-x="825" 
d="M199 1413q14 90 104 156.5t250 66.5q161 0 250.5 -83t73.5 -185q-10 -53 -39.5 -88t-89.5 -70q125 -72 100 -223q-13 -97 -110 -162t-277 -65q-187 0 -278 81.5t-72 194.5q17 118 145 189q-77 68 -57 188zM508 1090q-65 21 -78 26q-44 -27 -47 -74q-3 -30 20.5 -52.5
t73.5 -22.5q90 0 101 55q4 23 -16 40.5t-54 27.5zM621 1368q2 25 -18 43.5t-64 18.5q-37 0 -61 -14.5t-29 -39.5q-8 -48 63 -71q3 -1 63 -19q43 43 46 82z" />
    <glyph glyph-name="nine.sups" horiz-adv-x="831" 
d="M158 1362q22 137 123 203.5t241 66.5q207 0 299 -125.5t58 -345.5q-17 -106 -62.5 -186t-110 -127t-138.5 -69.5t-158 -22.5q-157 0 -269 59l33 207q83 -47 193 -47q156 0 217 125q-79 -33 -170 -33q-54 0 -104 19t-89 54t-57 93t-6 129zM524 1423q-42 0 -71 -20t-35 -60
q-4 -34 18 -55.5t58 -21.5q68 0 129 39q-3 118 -99 118z" />
    <glyph glyph-name="zero.tf" horiz-adv-x="1353" 
d="M53 725q18 115 56 217t100.5 191.5t144 153.5t193 101t241.5 37q109 0 199 -28t153.5 -78t110 -120t68 -154t27 -179.5t-12.5 -197.5q-18 -115 -56 -217t-100.5 -191.5t-144.5 -154t-193 -101.5t-241 -37t-234 40t-169.5 110t-106.5 166t-46.5 207.5t11.5 234.5zM870 696
q53 322 -116 322q-89 0 -148.5 -77t-89.5 -245q-53 -321 117 -321q183 0 237 321z" />
    <glyph glyph-name="one.tf" horiz-adv-x="1353" 
d="M721 1393h346l-160 -1006h359l-62 -387h-1206l61 387h392l88 559l-336 -123l61 402z" />
    <glyph glyph-name="two.tf" horiz-adv-x="1353" 
d="M246 1282q277 143 557 143q114 0 211.5 -29.5t170 -85.5t106.5 -147.5t16 -206.5q-20 -123 -93 -204.5t-198 -157.5q-62 -37 -150.5 -84.5t-130.5 -73.5t-55 -49h539l-62 -385h-1159l33 205q10 62 31 118t46 99.5t63 85t72 71t83.5 62.5t86.5 54.5t91 50.5
q37 20 90.5 45.5t85.5 41.5t65.5 36t51 39.5t20.5 41.5q5 34 -24 53t-88 19q-107 0 -250 -49t-277 -135z" />
    <glyph glyph-name="three.tf" horiz-adv-x="1353" 
d="M1260 997q-14 -95 -80.5 -168t-184.5 -110q113 -29 179 -122t43 -241q-17 -107 -76 -184.5t-150 -121t-197 -63.5t-233 -20q-301 0 -528 99l61 391q196 -103 449 -103q229 3 245 105q5 36 -19.5 54.5t-84.5 18.5h-299l57 351h224q132 0 145 67q6 41 -32 62.5t-124 21.5
q-243 0 -462 -129l63 406q209 114 496 114q90 0 170.5 -15.5t149 -49.5t115 -83t67 -121t6.5 -159z" />
    <glyph glyph-name="four.tf" horiz-adv-x="1353" 
d="M801 1393h465l-133 -840h174l-60 -367h-172l-31 -186h-426l29 186h-690l59 379zM707 553l49 305l-291 -305h242z" />
    <glyph glyph-name="five.tf" horiz-adv-x="1353" 
d="M340 1393h975l-62 -385l-577 2l-29 -140q64 9 135 9q74 0 141.5 -15.5t129 -51t103.5 -87.5t60 -131.5t3 -177.5q-13 -84 -48.5 -153t-88 -117.5t-116 -83.5t-139 -55.5t-151.5 -30t-158 -9.5q-283 0 -483 99l57 366q147 -86 371 -86q277 0 297 129q8 59 -52.5 91
t-179.5 32q-205 0 -362 -45z" />
    <glyph glyph-name="six.tf" horiz-adv-x="1353" 
d="M565 844q142 65 301 65q92 0 174 -30.5t144.5 -87.5t91 -150t10.5 -207q-19 -120 -77 -211.5t-143.5 -146.5t-188 -82t-218.5 -27q-346 0 -492 201t-89 561q23 146 79 264.5t133 198t174.5 133t200 77t212.5 23.5q236 0 430 -98l-56 -348q-139 84 -299 84
q-285 0 -387 -219zM657 313q72 0 125 34.5t64 105.5q9 60 -28.5 93.5t-102.5 33.5q-97 0 -209 -64q1 -116 41.5 -159.5t109.5 -43.5z" />
    <glyph glyph-name="seven.tf" horiz-adv-x="1353" 
d="M213 1393h1186l-47 -303l-690 -1090h-519l639 1008h-630z" />
    <glyph glyph-name="eight.tf" horiz-adv-x="1353" 
d="M1262 365q-10 -64 -40 -121t-85 -108.5t-130 -88.5t-181.5 -58.5t-233.5 -21.5q-128 0 -230.5 24.5t-169.5 66.5t-109.5 98.5t-56.5 120t-3 131.5q16 101 86 185.5t165 135.5q-131 121 -100 309q12 72 54.5 138.5t115 123.5t188.5 91t259 34q135 0 243 -38t171 -100
t91 -137.5t15 -152.5q-16 -92 -67.5 -152.5t-147.5 -119.5q36 -23 63.5 -46t53 -55t37 -68t18 -85t-5.5 -106zM479 440q-5 -52 36 -91.5t120 -39.5q71 0 116.5 27.5t53.5 64.5q6 25 0 44.5t-26 34t-40 24t-55 22.5q-39 16 -121 52q-75 -63 -84 -138zM700 879
q16 -7 51.5 -19.5t49.5 -17.5q75 62 84 133q3 43 -32 75.5t-103 32.5q-62 0 -103.5 -24.5t-48.5 -65.5q-6 -39 20.5 -65.5t81.5 -48.5z" />
    <glyph glyph-name="nine.tf" horiz-adv-x="1353" 
d="M100 958q19 120 77 211.5t144 146.5t188.5 82t217.5 27q226 0 370 -93t196 -263t14 -405q-23 -147 -77.5 -265t-129.5 -197.5t-171 -133t-200 -77.5t-219 -24q-250 0 -434 96l55 351q136 -84 307 -84q147 0 240.5 48.5t146.5 172.5q-145 -68 -307 -68q-76 0 -144.5 19.5
t-125.5 57.5t-95 95.5t-53 133t0 169.5zM723 1079q-72 0 -121.5 -34.5t-58.5 -98.5q-10 -63 29.5 -98t107.5 -35q108 0 203 59q-3 207 -160 207z" />
    <glyph glyph-name="zero.tosf" horiz-adv-x="1353" 
d="M1307 504q-14 -85 -48.5 -162t-94.5 -146t-139 -119.5t-189 -80t-238 -29.5q-110 0 -202 23t-156.5 63.5t-113.5 96t-72.5 121.5t-32.5 140t6 150q13 85 47 162t93.5 146t138.5 119.5t189 80t238 29.5q110 0 202 -23t157 -63.5t114 -96t73 -121.5t33 -140t-5 -150z
M489 522q-11 -72 25.5 -121t110.5 -49q91 0 148.5 50.5t72.5 142.5q11 70 -25 119t-110 49q-91 0 -150 -50.5t-72 -140.5z" />
    <glyph glyph-name="one.tosf" horiz-adv-x="1353" 
d="M662 1065h346l-109 -690h358l-59 -375h-1206l61 375h389l45 278l-340 -123l60 367z" />
    <glyph glyph-name="two.tosf" horiz-adv-x="1353" 
d="M1149 2h-1147l29 174q12 74 47.5 130.5t97 98.5t126.5 71t161 61q32 10 72.5 21.5t65.5 18.5t54 16t46 16.5t32.5 16.5t23 18.5t9.5 21.5q8 49 -100 49q-107 0 -254.5 -43.5t-266.5 -114.5l66 420q248 121 532 121q170 0 291 -42.5t182 -131.5t41 -215
q-23 -150 -180 -238q-106 -58 -278 -94h409z" />
    <glyph glyph-name="three.tosf" horiz-adv-x="1353" 
d="M1208 670q-14 -95 -80 -168.5t-184 -110.5q113 -29 178.5 -121.5t42.5 -240.5q-17 -107 -76 -184.5t-149.5 -121t-196.5 -63.5t-233 -20q-304 0 -528 98l61 391q194 -102 449 -102q229 3 245 104q5 35 -18 54.5t-78 19.5h-307l57 350h232q124 0 137 68q6 41 -32 62.5
t-124 21.5q-244 0 -463 -129l64 405q210 115 495 115q90 0 170.5 -15.5t149 -49.5t115 -83t67 -121t6.5 -159z" />
    <glyph glyph-name="four.tosf" horiz-adv-x="1353" 
d="M754 1065h465l-134 -840h175l-60 -366h-172l-31 -187h-426l29 187h-690l59 379zM659 225l50 305l-291 -305h241z" />
    <glyph glyph-name="five.tosf" horiz-adv-x="1353" 
d="M289 1065h975l-62 -385l-577 2l-29 -139q57 8 131 8q77 0 146.5 -15.5t130.5 -50.5t102.5 -87.5t58.5 -132t2 -177.5q-16 -100 -64.5 -179t-116 -128.5t-156.5 -82t-180 -45.5t-193 -13q-132 0 -257 26.5t-216 71.5l57 366q147 -86 365 -86q281 0 303 129q9 59 -52.5 91
t-185.5 32q-189 3 -356 -45z" />
    <glyph glyph-name="six.tosf" horiz-adv-x="1353" 
d="M565 844q142 65 301 65q89 0 170.5 -30.5t145 -87.5t93 -150t11.5 -207q-19 -120 -77 -211.5t-143.5 -146.5t-188 -82t-218.5 -27q-340 0 -488.5 202t-92.5 560q23 146 80.5 264.5t136 197.5t177.5 133t202.5 77.5t212.5 23.5q232 0 420 -98l-56 -348q-139 84 -299 84
q-285 0 -387 -219zM657 313q72 0 125 34.5t64 105.5q9 60 -28.5 93.5t-102.5 33.5q-97 0 -209 -64q1 -116 41.5 -159.5t109.5 -43.5z" />
    <glyph glyph-name="seven.tosf" horiz-adv-x="1353" 
d="M160 1065h1188l-43 -299l-703 -1094h-518l647 1008h-633z" />
    <glyph glyph-name="eight.tosf" horiz-adv-x="1353" 
d="M1262 365q-10 -64 -40 -121t-85 -108.5t-130 -88.5t-181.5 -58.5t-233.5 -21.5q-128 0 -230.5 24.5t-169.5 66.5t-109.5 98.5t-56.5 120t-3 131.5q16 101 86 185.5t165 135.5q-131 121 -100 309q12 72 54.5 138.5t115 123.5t188.5 91t259 34q135 0 243 -38t171 -100
t91 -137.5t15 -152.5q-16 -92 -67.5 -152.5t-147.5 -119.5q36 -23 63.5 -46t53 -55t37 -68t18 -85t-5.5 -106zM479 440q-5 -52 36 -91.5t120 -39.5q71 0 116.5 27.5t53.5 64.5q6 25 0 44.5t-26 34t-40 24t-55 22.5q-39 16 -121 52q-75 -63 -84 -138zM700 879
q16 -7 51.5 -19.5t49.5 -17.5q75 62 84 133q3 43 -32 75.5t-103 32.5q-62 0 -103.5 -24.5t-48.5 -65.5q-6 -39 20.5 -65.5t81.5 -48.5z" />
    <glyph glyph-name="nine.tosf" horiz-adv-x="1353" 
d="M45 631q19 120 78 211.5t145 146.5t188.5 82t217.5 27q335 0 486 -203.5t93 -558.5q-23 -147 -77 -265t-129 -197.5t-171 -132.5t-200 -77t-219 -24q-250 0 -437 96l58 350q136 -84 307 -84q147 0 240.5 48.5t144.5 172.5q-136 -65 -295 -65q-96 0 -180 30t-147.5 86.5
t-92 149t-10.5 207.5zM666 750q-70 0 -119 -35t-58 -99q-10 -62 30 -97.5t108 -35.5q102 0 202 60q-5 207 -163 207z" />
    <glyph glyph-name="zero.dnom" horiz-adv-x="874" 
d="M801 389q-14 -86 -46 -157t-84 -129t-131.5 -90.5t-179.5 -32.5q-80 0 -144.5 24.5t-105.5 67.5t-67.5 102t-30.5 127.5t6 144.5q14 86 45.5 157t84 129.5t132 91t179.5 32.5q129 0 215 -65.5t116.5 -170t10.5 -231.5zM297 418q-34 -193 80 -193q59 0 94.5 45.5
t52.5 147.5q34 192 -80 192q-59 0 -94.5 -45t-52.5 -147z" />
    <glyph glyph-name="one.dnom" horiz-adv-x="653" 
d="M319 836h207l-96 -605h141l-36 -231h-574l37 231h158l53 336l-158 -51l39 242z" />
    <glyph glyph-name="two.dnom" horiz-adv-x="776" 
d="M106 772q155 84 310 84q64 0 121 -18t102.5 -53t67 -94.5t8.5 -135.5q-12 -75 -54 -120t-126 -97q-19 -12 -50.5 -31t-47.5 -29t-35 -23.5t-31 -25.5h291l-35 -229h-670l18 121q10 65 37 117.5t68 92.5t80.5 66.5t93.5 55.5q19 10 55 28t50.5 26.5t34.5 21t28 23t10 21.5
q4 20 -12 30.5t-45 10.5q-139 0 -312 -112z" />
    <glyph glyph-name="three.dnom" horiz-adv-x="751" 
d="M676 588q-20 -115 -158 -158q65 -20 105 -78t26 -149q-38 -223 -370 -223q-187 0 -312 61l37 233q119 -61 250 -61q128 0 137 57q3 23 -11 36t-46 13h-158l35 211h111q81 0 86 43q5 22 -15.5 35t-58.5 13q-142 0 -275 -68l39 238q136 65 277 65q63 0 120 -16.5t102 -48
t67 -84.5t12 -119z" />
    <glyph glyph-name="four.dnom" horiz-adv-x="843" 
d="M457 836h280l-80 -504h103l-35 -219h-102l-19 -113h-256l17 113h-414l35 225zM399 332l31 184l-174 -184h143z" />
    <glyph glyph-name="five.dnom" horiz-adv-x="749" 
d="M143 840h568l-37 -234h-330l-16 -82q23 4 61 4q58 0 108.5 -16t90.5 -49t58 -90.5t5 -132.5q-11 -73 -50 -126t-97 -81t-121 -40.5t-135 -12.5q-163 0 -289 63l35 215q91 -49 215 -49q69 0 117.5 19t54.5 61q4 34 -33 52.5t-106 18.5q-101 0 -201 -28z" />
    <glyph glyph-name="six.dnom" horiz-adv-x="833" 
d="M324 514q71 31 161 31q54 0 104 -19t89 -54t57.5 -93t7.5 -129q-22 -137 -124 -203.5t-242 -66.5q-207 0 -299 125.5t-58 345.5q17 106 62.5 186t110 127t138.5 69.5t158 22.5q144 0 267 -65l-33 -201q-68 47 -172 47q-159 0 -227 -123zM373 188q95 0 106 82
q6 36 -17.5 56t-64.5 20q-59 0 -123 -39q0 -119 99 -119z" />
    <glyph glyph-name="seven.dnom" horiz-adv-x="722" 
d="M309 0h-313l373 606h-338l37 234h673l-28 -183z" />
    <glyph glyph-name="eight.dnom" horiz-adv-x="827" 
d="M76 633q14 90 104 156.5t250 66.5q161 0 250.5 -83t73.5 -185q-10 -53 -39.5 -88t-89.5 -70q125 -72 100 -223q-13 -97 -110 -162t-277 -65q-187 0 -278 81.5t-72 194.5q17 117 145 188q-77 68 -57 189zM385 309q-52 17 -78 27q-44 -27 -47 -74q-3 -30 20.5 -53t73.5 -23
q90 0 101 56q4 23 -16 40t-54 27zM498 588q2 25 -18 43t-64 18q-37 0 -61.5 -14t-28.5 -39q-8 -49 63 -72q10 -3 33 -9.5t31 -8.5q42 42 45 82z" />
    <glyph glyph-name="nine.dnom" horiz-adv-x="831" 
d="M35 586q22 137 123 203.5t241 66.5q207 0 299 -125.5t58 -345.5q-17 -106 -62.5 -186t-110 -127t-138.5 -69.5t-158 -22.5q-157 0 -269 59l33 207q83 -47 193 -47q156 0 217 125q-79 -33 -170 -33q-54 0 -104 19t-89 54t-57 93t-6 129zM401 647q-42 0 -71 -20t-35 -60
q-4 -35 18 -56.5t58 -21.5q68 0 129 39q-3 119 -99 119z" />
    <glyph glyph-name="zero.numr" horiz-adv-x="876" 
d="M893 961q-15 -86 -46.5 -157t-83 -129.5t-131 -91t-179.5 -32.5q-80 0 -144.5 24.5t-105.5 68t-67.5 102.5t-30.5 127.5t6 144.5q14 86 45.5 157t83.5 129t131.5 90.5t179.5 32.5q129 0 215 -65t116.5 -169.5t10.5 -231.5zM389 989q-34 -192 80 -192q59 0 94.5 45
t52.5 147q34 193 -79 193q-59 0 -95 -46t-53 -147z" />
    <glyph glyph-name="one.numr" horiz-adv-x="651" 
d="M408 1393h206l-96 -605h141l-36 -231h-574l37 231h158l53 336l-158 -51l39 242z" />
    <glyph glyph-name="two.numr" horiz-adv-x="776" 
d="M197 1343q155 84 309 84q64 0 121 -18t102.5 -53t67 -94.5t8.5 -135.5q-12 -75 -54 -120t-126 -97q-20 -12 -50.5 -30.5t-47.5 -28.5t-35.5 -23.5t-30.5 -25.5h291l-35 -230h-670l19 121q10 65 36.5 117.5t67.5 92t80.5 66.5t93.5 56q17 9 41 21t37.5 19.5t31 17
t27.5 16.5t20 15t15 16t6 16q4 20 -12 30.5t-45 10.5q-137 0 -311 -113z" />
    <glyph glyph-name="three.numr" horiz-adv-x="751" 
d="M766 1159q-20 -115 -158 -158q65 -20 105 -78t26 -149q-38 -223 -370 -223q-187 0 -312 61l37 234q121 -62 250 -62q58 0 95.5 15t41.5 43q3 23 -11 36t-46 13h-158l35 211h111q81 0 86 43q4 22 -16 34.5t-58 12.5q-141 0 -274 -68l38 238q136 65 277 65q63 0 120 -16.5
t102 -48t67 -84.5t12 -119z" />
    <glyph glyph-name="four.numr" horiz-adv-x="845" 
d="M547 1393h280l-79 -504h102l-35 -219h-102l-19 -113h-256l17 113h-414l35 225zM489 889l31 184l-174 -184h143z" />
    <glyph glyph-name="five.numr" horiz-adv-x="749" 
d="M231 1393h568l-37 -234h-330l-16 -82q23 4 61 4q58 0 108.5 -16t90.5 -49t58 -90.5t5 -132.5q-11 -73 -50 -126t-96.5 -81t-121 -41t-135.5 -13q-161 0 -289 64l35 215q91 -49 215 -49q69 0 117.5 19t54.5 61q4 34 -33 52.5t-106 18.5q-101 0 -201 -28z" />
    <glyph glyph-name="six.numr" horiz-adv-x="833" 
d="M414 1085q71 31 161 31q54 0 104.5 -19t89.5 -54t57.5 -93t7.5 -129q-22 -137 -124.5 -203.5t-242.5 -66.5q-206 0 -298 125.5t-58 345.5q17 106 62.5 186t110 127t138.5 69.5t158 22.5q143 0 266 -65l-33 -201q-68 47 -172 47q-159 0 -227 -123zM463 760q95 0 106 82
q6 36 -17.5 56t-64.5 20q-58 0 -122 -39q0 -119 98 -119z" />
    <glyph glyph-name="seven.numr" horiz-adv-x="722" 
d="M397 553h-313l373 606h-338l37 234h673l-28 -183z" />
    <glyph glyph-name="eight.numr" horiz-adv-x="825" 
d="M166 1204q14 90 104 156.5t250 66.5q161 0 250.5 -83t73.5 -185q-10 -53 -39.5 -88t-89.5 -70q125 -72 100 -223q-13 -97 -110 -162t-277 -65q-187 0 -278 81.5t-72 194.5q17 118 145 189q-77 68 -57 188zM475 881q-65 21 -78 26q-44 -27 -47 -73q-3 -30 20.5 -53
t73.5 -23q90 0 101 55q4 23 -16 40.5t-54 27.5zM588 1159q2 25 -18 43.5t-64 18.5q-37 0 -61.5 -14.5t-28.5 -39.5q-8 -48 63 -71q11 -4 36 -11t28 -8q42 42 45 82z" />
    <glyph glyph-name="nine.numr" horiz-adv-x="831" 
d="M125 1157q22 137 123 203.5t241 66.5q207 0 299 -125.5t58 -345.5q-17 -106 -62.5 -186t-110 -127t-138.5 -69.5t-158 -22.5q-156 0 -268 59l32 207q83 -47 193 -47q156 0 217 125q-79 -33 -170 -33q-54 0 -104 19t-89 54t-57 93t-6 129zM492 1219q-42 0 -71.5 -20.5
t-35.5 -59.5q-4 -35 18 -56.5t58 -21.5q68 0 129 39q-3 119 -98 119z" />
    <glyph glyph-name="emdash.case" horiz-adv-x="1634" 
d="M1526 551h-1436l53 332h1436z" />
    <glyph glyph-name="endash.case" horiz-adv-x="1212" 
d="M1104 551h-1014l53 332h1014z" />
    <glyph glyph-name="hyphen.case" horiz-adv-x="997" 
d="M143 883h799l-53 -332h-799z" />
    <glyph glyph-name="guillemotleft.case" horiz-adv-x="1411" 
d="M1284 291h-424l-215 389l12 84l332 379h438l-370 -426zM715 291h-424l-215 389l12 84l332 379h438l-371 -426z" />
    <glyph glyph-name="guillemotright.case" horiz-adv-x="1413" 
d="M1032 291h-440l373 426l-230 426h424l217 -389l-14 -84zM461 291h-441l373 426l-229 426h424l217 -389l-14 -84z" />
    <glyph glyph-name="guilsinglleft.case" horiz-adv-x="841" 
d="M715 291h-424l-215 389l12 84l332 379h438l-371 -426z" />
    <glyph glyph-name="guilsinglright.case" horiz-adv-x="841" 
d="M461 291h-441l373 426l-229 426h424l217 -389l-14 -84z" />
    <glyph glyph-name="cent.tf" horiz-adv-x="1353" 
d="M1149 948l-53 -334q-54 28 -125 41l-51 -321q84 13 147 45l-55 -361q-73 -24 -148 -36l-37 -228h-182l33 213q-116 3 -212.5 38.5t-165.5 100t-100 165.5t-14 227q14 108 60 197t110.5 148t145.5 99t164 58t168 18h12l33 211h182l-37 -234q55 -15 125 -47zM786 647
q-64 -16 -106.5 -56.5t-52.5 -105.5q-9 -61 21 -99t89 -52z" />
    <glyph glyph-name="currency.tf" horiz-adv-x="1353" 
d="M446 344l-147 -129l-158 178l133 123q-40 104 -20 229q16 113 86 201l-92 101l188 172l105 -121q90 37 200 37q117 0 205 -45l152 133l155 -179l-139 -126q43 -107 23 -230q-17 -116 -86 -199l94 -100l-193 -172l-102 117q-86 -35 -201 -35t-203 45zM592 707
q-5 -36 16 -63.5t70 -27.5q55 0 86.5 33t34.5 78q5 37 -16 64.5t-70 27.5q-55 0 -86.5 -33t-34.5 -79z" />
    <glyph glyph-name="dollar.tf" horiz-adv-x="1353" 
d="M698 -244h-323l35 224q-212 29 -383 129l65 409q205 -162 475 -162q188 0 197 68q4 24 -16.5 44.5t-58 36.5t-86.5 32.5t-103 37.5t-107.5 46t-99.5 63t-79 84.5t-46.5 114t-1.5 147.5q17 108 86 191t166.5 130t216.5 64l37 221h323l-34 -227q192 -27 337 -109l-61 -395
q-94 68 -208 101.5t-226 33.5q-154 0 -162 -59q-4 -28 31 -51t93 -43t128 -44t137.5 -62t120.5 -88t79 -130t11 -180q-56 -361 -508 -410z" />
    <glyph glyph-name="Euro.tf" horiz-adv-x="1353" 
d="M1395 1368l-60 -383q-98 43 -217 43q-219 0 -342 -115h389l-28 -182h-461q-9 -29 -12 -69h462l-28 -183h-389q82 -108 278 -108q155 0 268 49l-63 -406q-137 -47 -303 -47q-126 0 -241 30.5t-212.5 91t-163.5 161t-84 229.5h-172l29 183h139q2 20 9 69h-138l29 182h158
q50 130 137.5 230.5t197 160.5t230.5 90.5t250 30.5q185 0 338 -57z" />
    <glyph glyph-name="sterling.tf" horiz-adv-x="1353" 
d="M1176 0h-1176l59 369h43q63 0 101.5 37t46.5 94l8 49h-139l49 307h139l12 80q20 129 75 224.5t137.5 152.5t182.5 84.5t220 27.5q212 0 383 -77l-51 -338q-123 63 -265 63q-213 0 -239 -166l-8 -51h338l-50 -307h-335l-11 -53q-12 -95 -84 -127h623z" />
    <glyph glyph-name="yen.tf" horiz-adv-x="1353" 
d="M969 1393h512l-453 -656h213l-35 -225h-309l-14 -80h309l-35 -225h-311l-33 -207h-471l33 207h-312l35 225h314l14 80h-313l34 225h220l-244 656h479l109 -469z" />
    </font>
</defs>
</svg>
